<?xml version="1.0" encoding="utf-8"?>
<!-- Generator: Adobe Illustrator 24.0.0, SVG Export Plug-In . SVG Version: 6.00 Build 0)  -->
<svg version="1.1" id="Layer_1" xmlns="http://www.w3.org/2000/svg" xmlns:xlink="http://www.w3.org/1999/xlink" x="0px" y="0px"
	 viewBox="0 0 1600 1000" style="enable-background:new 0 0 1600 1000;" xml:space="preserve">
<style type="text/css">
	.st0{fill:#2F2E41;}
	.st1{fill:#9F616A;}
	.st2{opacity:0.2;enable-background:new    ;}
	.st3{fill:#5360DE;}
	.st4{fill:#FFB9B9;}
	.st5{fill:#3F3D56;}
	.st6{fill:#E6E6E6;}
	.st7{fill:#FFFFFF;}
</style>
<path class="st0" d="M158.99,387.42c1.35,83.08,32.4,92.08,70.53,83.41c43.56-9.9,79.32-40.93,96.94-81.98l12.15-28.31
	c16.83-39.19-1.31-84.61-40.5-101.43h0c-39.19-16.83-84.61,1.31-101.43,40.5l0,0C157.58,314.98,149.85,346.79,158.99,387.42z"/>
<path class="st1" d="M404.2,220.21l11.7-19.81c5.23-8.85,2.29-20.26-6.55-25.48c-1.25-0.74-2.58-1.33-3.96-1.76l0,0
	c-9.82-3.04-20.24,2.45-23.28,12.27c-0.61,1.98-0.89,4.04-0.82,6.1l0.69,21.29l-55.01,150.74l30,6.26L404.2,220.21z"/>
<path class="st1" d="M114.82,591.81l-14.41,17.94c-6.43,8.01-5.16,19.72,2.85,26.16c1.13,0.91,2.36,1.68,3.67,2.3l0,0
	c9.28,4.41,20.38,0.46,24.79-8.83c0.89-1.87,1.46-3.87,1.68-5.93l2.35-21.17l75.92-141.37l-28.8-10.47L114.82,591.81z"/>
<path class="st0" d="M203.83,741.04l2.12,25.47l0.5,5.94l141-13.56c17.06-1.92,29.33-17.31,27.41-34.38
	c-0.36-3.18-1.21-6.29-2.51-9.21l-45.47-97.62l-15.71-33.72l-68.07-15.71c-56.13,42.96-5.63,90.37,57.91,138.33
	c2.49,1.88,5,3.77,7.54,5.65L203.83,741.04z"/>
<path class="st0" d="M156.31,829.24L156.31,829.24c3.49,0.5,7-0.86,9.24-3.58l46.12-55.83l-2.62-26.18l-15.73-9.44
	c-4.89-2.94-11.24-1.35-14.18,3.54c-0.29,0.49-0.54,1-0.75,1.52l-30.08,76.21c-2.05,5.2,0.5,11.09,5.7,13.14
	C154.76,828.93,155.53,829.13,156.31,829.24z"/>
<path class="st2" d="M195.97,735.8l2.62,31.42l7.36-0.71l133.65-12.85c17.06-1.92,29.33-17.31,27.41-34.38
	c-0.36-3.18-1.21-6.29-2.51-9.21l-37.62-84.22v-8.17l-15.71-33.72l-68.07-15.71c-56.13,42.96-5.63,90.37,57.91,138.33l-0.31,0.42
	L195.97,735.8z"/>
<path class="st0" d="M143.23,818.77L143.23,818.77c3.49,0.5,7-0.86,9.24-3.58l46.12-55.83l-2.62-26.18l-15.73-9.44
	c-4.89-2.94-11.24-1.35-14.18,3.54c-0.29,0.49-0.54,1-0.75,1.52l-30.08,76.21c-2.05,5.2,0.5,11.09,5.7,13.14
	C141.67,818.46,142.44,818.66,143.23,818.77z"/>
<path class="st0" d="M190.74,730.57l2.62,31.42l141-13.56c17.06-1.92,29.34-17.32,27.42-34.38c-0.36-3.18-1.2-6.28-2.51-9.2
	l-37.63-84.22v-47.12l-91.63-15.71c-58.34,44.65-1.5,94.11,65.45,143.99L190.74,730.57z"/>
<circle class="st1" cx="279.75" cy="322.17" r="39.27"/>
<path class="st1" d="M227.39,387.61l54.98,36.65l47.12-10.47l-26.18-26.18v-39.27l-41.89-2.62
	C260.54,361.41,251.56,375.76,227.39,387.61z"/>
<path class="st3" d="M219.53,570.87l102.1,13.09l23.56-109.95c10.95-29.19,4.67-54.97-15.6-78c-1.6-7.98-8.48-13.8-16.62-14.05
	l-9.67,0.42c1.09,34.72-24.49,26.36-62.83-2.62l-4.63,1.39c-12.37,3.71-20.15,15.94-18.25,28.72l4.22,28.5
	c1.79,11.3,4.57,22.42,8.31,33.23C240.6,502.88,236.86,536,219.53,570.87z"/>
<path class="st3" d="M172.41,453.06l47.12,15.71l20.94-75.92l-7.1-3.23c-12.21-5.55-26.63-0.67-32.96,11.15L172.41,453.06z"/>
<polygon class="st3" points="311.16,382.38 337.34,411.18 368.76,361.43 329.49,340.49 "/>
<path class="st0" d="M233.93,310.39c24.68,9.31,51.01,8.34,78.54,0v-31.42h-78.54V310.39z"/>
<polygon class="st0" points="1458.68,849.66 1431.6,860.94 1251.12,615.03 1120.27,865.45 1086.43,858.69 1185.7,513.51 
	1300.75,513.51 "/>
<path class="st0" d="M1495,907.03L1495,907.03c-3.03,0.83-6.27,0.41-8.99-1.16L1428.91,873c-5.55-3.19-7.45-10.28-4.26-15.82
	c0.51-0.88,1.13-1.69,1.85-2.41l5.1-5.1l27.07-2.26l41.39,39.73c4.7,4.51,4.85,11.98,0.34,16.68
	C1498.93,905.36,1497.06,906.46,1495,907.03z"/>
<path class="st0" d="M1052.37,916.05L1052.37,916.05c3.03,0.83,6.27,0.41,8.99-1.16l57.09-32.87c5.55-3.19,7.45-10.28,4.26-15.82
	c-0.51-0.88-1.13-1.69-1.85-2.41l-5.1-5.1l-27.07-2.26l-41.39,39.73c-4.7,4.51-4.85,11.98-0.34,16.68
	C1048.44,914.38,1050.31,915.49,1052.37,916.05z"/>
<path class="st4" d="M1108.99,154.8l-11.28,6.77l-23.38-37.99c-4.94-8.04-2.44-18.56,5.6-23.5c1.67-1.03,3.51-1.76,5.43-2.17l0,0
	c9.23-1.94,18.29,3.97,20.24,13.2c0.16,0.74,0.26,1.5,0.32,2.26L1108.99,154.8z"/>
<path class="st4" d="M1421.47,450.54l4.68-12.29l41.86,15.4c8.86,3.26,13.39,13.08,10.14,21.93c-0.68,1.84-1.67,3.56-2.93,5.06l0,0
	c-6.05,7.24-16.83,8.2-24.07,2.14c-0.58-0.49-1.13-1.01-1.65-1.58L1421.47,450.54z"/>
<circle class="st4" cx="1244.35" cy="256.32" r="33.84"/>
<polygon class="st4" points="1273.68,328.51 1226.3,328.51 1226.3,276.63 1266.91,272.11 "/>
<path class="st5" d="M1307.52,527.05h-128.59c4.53-71.75,8.13-141.09,0-180.48l7.48-35.89c2.15-10.31,11.85-17.25,22.3-15.94
	l17.59,2.2c11.92,20.95,26.32,20.75,42.86,2.26h21.19c11.73,0,21.25,9.51,21.25,21.25c0,0.14,0,0.28,0,0.42l0,0
	c5.52,25.28,7.36,51.22,5.45,77.03L1307.52,527.05z"/>
<polygon class="st5" points="1090.94,154.8 1108.99,145.78 1206,305.96 1178.93,346.56 "/>
<path class="st5" d="M1421.72,456.96l15.42-13.01l-81.96-114.84c-16.37-22.94-44.53-34.34-72.24-29.25l-2.59,0.47l30.99,54.23
	l40.82,30.9L1421.72,456.96z"/>
<path class="st0" d="M1283.49,236.34c0,0,6.32-13.91-10.12-20.24c0,0-13.91-22.76-41.74-7.59c0,0-18.97,7.59-18.97,27.82
	s-6.32,24.03-6.32,24.03s9.42-9.66,11.95-17.25c2.53-7.59,22.2-9.31,29.79-1.72c7.59,7.59,26.56,6.32,26.56,6.32l-1.26,27.82
	c0,0,6.32-16.44,8.85-16.44S1287.28,236.34,1283.49,236.34z"/>
<ellipse class="st6" cx="1280.37" cy="982.86" rx="207.06" ry="10.78"/>
<ellipse class="st6" cx="246.53" cy="982.86" rx="109.45" ry="5.7"/>
<path class="st3" d="M1082.74,199.65l-665.36,59.63c-6.8,0.6-12.81-4.42-13.43-11.22L389.16,83.01c-0.6-6.8,4.42-12.81,11.22-13.43
	l665.36-59.63c6.8-0.6,12.81,4.42,13.43,11.22l14.79,165.05C1094.56,193.02,1089.55,199.03,1082.74,199.65z"/>
<circle class="st7" cx="495.13" cy="156.7" r="51.96"/>
<path class="st7" d="M611.56,111.49c-4.76,0.44-8.27,4.65-7.83,9.41c0.44,4.75,4.63,8.25,9.38,7.84l406.61-36.44
	c4.76-0.42,8.29-4.62,7.87-9.39c-0.42-4.76-4.62-8.29-9.39-7.87c-0.01,0-0.02,0-0.03,0L611.56,111.49z"/>
<path class="st7" d="M616.19,163.24c-4.76,0.42-8.29,4.62-7.87,9.38c0.42,4.76,4.62,8.29,9.38,7.87c0.01,0,0.03,0,0.04,0
	l406.61-36.44c4.76-0.42,8.29-4.62,7.87-9.39s-4.62-8.29-9.39-7.87c-0.01,0-0.02,0-0.03,0L616.19,163.24z"/>
</svg>
