<?xml version="1.0" encoding="utf-8"?>
<!-- Generator: Adobe Illustrator 24.0.0, SVG Export Plug-In . SVG Version: 6.00 Build 0)  -->
<svg version="1.1" id="Layer_1" xmlns="http://www.w3.org/2000/svg" xmlns:xlink="http://www.w3.org/1999/xlink" x="0px" y="0px"
	 viewBox="0 0 1600 1000" style="enable-background:new 0 0 1600 1000;" xml:space="preserve">
<style type="text/css">
	.st0{fill:#3F3D56;}
	.st1{fill:#5360DE;}
	.st2{fill:#FFFFFF;}
	.st3{fill:#A0616A;}
	.st4{fill:#D0CDE1;}
	.st5{fill:#2F2E41;}
	.st6{opacity:0.15;enable-background:new    ;}
</style>
<path class="st0" d="M523.81,606.94c-3.18,0-6.4-0.05-9.55-0.15l0.07-2.29c4.53,0.14,9.16,0.18,13.71,0.12l0.03,2.29
	C526.65,606.93,525.23,606.94,523.81,606.94z M541.87,606.41l-0.13-2.29c4.54-0.27,9.13-0.64,13.66-1.12l0.24,2.28
	C551.07,605.76,546.44,606.14,541.87,606.41z M500.46,606.05c-4.58-0.35-9.2-0.81-13.75-1.37l0.28-2.28
	c4.51,0.55,9.1,1.01,13.64,1.36L500.46,606.05z M569.33,603.53l-0.34-2.27c4.51-0.68,9.05-1.48,13.5-2.36l0.45,2.25
	C578.45,602.04,573.88,602.84,569.33,603.53z M473.05,602.69c-4.52-0.77-9.08-1.65-13.56-2.62l0.49-2.24
	c4.44,0.97,8.97,1.84,13.46,2.6L473.05,602.69z M596.42,598.14l-0.55-2.23c4.43-1.09,8.88-2.3,13.23-3.59l0.65,2.2
	C605.36,595.82,600.88,597.04,596.42,598.14z M446.06,596.83c-4.43-1.18-8.9-2.48-13.26-3.86l0.69-2.19
	c4.33,1.37,8.76,2.66,13.16,3.83L446.06,596.83z M622.9,590.29l-0.75-2.17c4.29-1.49,8.61-3.11,12.84-4.8l0.85,2.13
	C631.58,587.16,627.23,588.78,622.9,590.29L622.9,590.29z M419.69,588.49c-4.31-1.58-8.64-3.29-12.88-5.08l0.89-2.11
	c4.21,1.77,8.51,3.47,12.78,5.04L419.69,588.49z M648.51,580.04l-0.95-2.09c4.12-1.87,8.27-3.87,12.32-5.95l1.04,2.04
	C656.84,576.14,652.67,578.15,648.51,580.04L648.51,580.04z M673.06,567.49l-1.14-1.99c3.96-2.26,7.9-4.63,11.73-7.05l1.23,1.94
	C681.02,562.83,677.04,565.22,673.06,567.49L673.06,567.49z M696.37,552.74l-1.31-1.88c3.72-2.6,7.44-5.33,11.05-8.1l1.4,1.82
	C703.87,547.38,700.12,550.12,696.37,552.74z M346.7,549.51c-3.7-2.69-7.4-5.51-11-8.38l1.43-1.79c3.57,2.85,7.24,5.64,10.91,8.31
	L346.7,549.51z M718.25,535.92l-1.48-1.75c3.47-2.93,6.93-5.98,10.27-9.07l1.56,1.68C725.23,529.9,721.75,532.97,718.25,535.92z
	 M325.11,532.27c-3.45-3.02-6.87-6.16-10.18-9.34l1.59-1.66c3.28,3.15,6.68,6.27,10.11,9.27L325.11,532.27z M738.53,517.17
	l-1.63-1.61c3.2-3.24,6.37-6.6,9.41-9.97l1.71,1.53C744.94,510.52,741.75,513.91,738.53,517.17z M305.18,513.14
	c-3.16-3.33-6.29-6.77-9.29-10.22l1.73-1.5c2.98,3.43,6.08,6.84,9.22,10.14L305.18,513.14z M757.02,496.65l-1.77-1.46
	c2.89-3.52,5.74-7.15,8.46-10.79l1.84,1.37C762.8,489.45,759.93,493.1,757.02,496.65L757.02,496.65z M287.08,492.29
	c-2.84-3.59-5.64-7.3-8.32-11.02l1.86-1.34c2.66,3.69,5.43,7.37,8.25,10.93L287.08,492.29z M773.57,474.52l-1.9-1.29
	c2.56-3.77,5.06-7.64,7.45-11.53l1.96,1.2C778.67,466.81,776.15,470.72,773.57,474.52L773.57,474.52z M270.96,469.89
	c-2.5-3.83-4.95-7.78-7.27-11.72l1.98-1.17c2.31,3.92,4.74,7.83,7.22,11.63L270.96,469.89z M788.04,450.96l-2.01-1.11
	c2.2-3.99,4.34-8.08,6.36-12.17l2.06,1.02C792.42,442.81,790.26,446.94,788.04,450.96z M800.29,426.15l-2.1-0.92
	c1.83-4.18,3.58-8.45,5.22-12.71l2.14,0.82C803.9,417.64,802.13,421.95,800.29,426.15z M245.2,421.2
	c-1.76-4.22-3.44-8.54-5.01-12.84l2.16-0.78c1.55,4.26,3.22,8.55,4.97,12.74L245.2,421.2z M810.21,400.31l-2.18-0.72
	c1.43-4.31,2.78-8.72,4.01-13.11l2.21,0.62C813.02,391.52,811.65,395.96,810.21,400.31z M235.78,395.28
	c-1.36-4.37-2.65-8.84-3.81-13.28l2.22-0.58c1.16,4.4,2.43,8.84,3.78,13.18L235.78,395.28z M817.69,373.72l-2.23-0.52
	c1.03-4.42,1.97-8.94,2.79-13.42l2.26,0.41C819.67,364.71,818.73,369.26,817.69,373.72L817.69,373.72z M228.77,368.57
	c-0.96-4.48-1.82-9.05-2.57-13.57l2.26-0.38c0.75,4.49,1.6,9.02,2.55,13.47L228.77,368.57z M822.69,346.56l-2.27-0.31
	c0.62-4.49,1.14-9.07,1.55-13.62l2.29,0.21C823.84,337.42,823.31,342.03,822.69,346.56L822.69,346.56z M224.25,341.32
	c-0.54-4.54-0.99-9.17-1.32-13.75l2.29-0.17c0.33,4.55,0.77,9.14,1.31,13.64L224.25,341.32z M825.18,319.06l-2.29-0.1
	c0.2-4.55,0.31-9.16,0.31-13.7h2.29C825.49,309.83,825.39,314.48,825.18,319.06z M222.24,313.78c-0.08-2.81-0.12-5.68-0.12-8.53
	c0-1.77,0.02-3.53,0.05-5.29l2.29,0.04c-0.03,1.75-0.05,3.49-0.05,5.25c0,2.82,0.04,5.67,0.12,8.47L222.24,313.78z M225,286.31
	l-2.29-0.14c0.29-4.58,0.68-9.21,1.17-13.76l2.28,0.25C225.68,277.16,225.29,281.76,225,286.31L225,286.31z M821.72,272.31
	c-0.46-4.52-1.09-6.73-1.75-11.23l2.27-0.33c0.67,4.54,1.24,8,1.71,12.56L821.72,272.31z M227.95,259.06l-2.27-0.35
	c0.7-4.54,1.52-9.11,2.43-13.6l2.25,0.45C229.46,250.02,228.65,254.56,227.95,259.06z M817.65,247.57
	c-0.87-4.48-1.86-8.98-2.93-13.39l2.23-0.54c1.08,4.44,2.08,8.98,2.96,13.49L817.65,247.57z M233.39,232.2l-2.23-0.56
	c1.11-4.44,2.35-8.92,3.67-13.32l2.2,0.66C235.72,223.34,234.49,227.79,233.39,232.2z M811.17,220.94
	c-1.28-4.37-2.68-8.76-4.15-13.06l2.17-0.75c1.49,4.33,2.9,8.76,4.19,13.16L811.17,220.94z M241.28,205.91l-2.16-0.76
	c1.52-4.34,3.17-8.69,4.89-12.95l2.13,0.86C244.43,197.29,242.8,201.61,241.28,205.91L241.28,205.91z M802.26,195.02
	c-1.67-4.22-3.47-8.46-5.33-12.59l2.09-0.94c1.88,4.17,3.68,8.44,5.37,12.69L802.26,195.02z M251.58,180.45l-2.08-0.96
	c1.92-4.17,3.96-8.36,6.06-12.44l2.04,1.05C255.51,172.16,253.48,176.31,251.58,180.45z M791.03,170.09
	c-2.05-4.05-4.23-8.11-6.47-12.06l2-1.13c2.26,3.98,4.45,8.07,6.52,12.15L791.03,170.09z M264.17,156.06l-1.99-1.14
	c2.29-3.97,4.7-7.95,7.17-11.82l1.93,1.23C268.84,148.17,266.44,152.12,264.17,156.06L264.17,156.06z M777.55,146.27
	c-2.42-3.86-4.96-7.7-7.54-11.43l1.88-1.31c2.6,3.75,5.16,7.63,7.6,11.51L777.55,146.27z M278.94,132.93l-1.88-1.32
	c2.64-3.75,5.41-7.49,8.22-11.11l1.81,1.41C284.31,125.5,281.56,129.21,278.94,132.93z M761.94,123.77
	c-2.76-3.62-5.64-7.22-8.56-10.7l1.76-1.47c2.94,3.51,5.84,7.13,8.62,10.78L761.94,123.77z M295.75,111.26l-1.75-1.49
	c2.97-3.49,6.06-6.96,9.19-10.31l1.68,1.56C301.76,104.36,298.69,107.8,295.75,111.26z M744.35,102.77
	c-3.08-3.35-6.28-6.68-9.5-9.88l1.62-1.63c3.25,3.23,6.47,6.58,9.57,9.96L744.35,102.77z M314.45,91.22l-1.6-1.64
	c3.28-3.21,6.68-6.38,10.09-9.43l1.53,1.71C321.08,84.89,317.71,88.04,314.45,91.22z M724.91,83.45c-3.38-3.06-6.86-6.08-10.36-8.98
	l1.46-1.77c3.53,2.92,7.04,5.96,10.44,9.05L724.91,83.45z M334.89,72.97l-1.45-1.78c3.55-2.89,7.22-5.74,10.9-8.47l1.37,1.84
	C342.05,67.27,338.41,70.1,334.89,72.97z M356.9,56.66l-1.28-1.9c3.8-2.56,7.71-5.06,11.62-7.44l1.19,1.96
	C364.54,51.64,360.66,54.13,356.9,56.66z M380.28,42.44l-1.1-2.01c4.02-2.2,8.14-4.33,12.24-6.34l1.01,2.06
	C388.36,38.14,384.27,40.25,380.28,42.44z M657.16,37.12c-4.08-2.03-8.26-4-12.43-5.84l0.93-2.1c4.2,1.86,8.41,3.84,12.53,5.88
	L657.16,37.12z M404.86,30.42l-0.91-2.1c4.2-1.82,8.49-3.57,12.76-5.19l0.81,2.15C413.28,26.88,409.02,28.61,404.86,30.42z
	 M632.04,26.02c-4.25-1.65-8.6-3.22-12.92-4.67l0.73-2.18c4.36,1.46,8.74,3.05,13.02,4.71L632.04,26.02z M430.45,20.7l-0.71-2.18
	c4.36-1.43,8.81-2.78,13.22-4l0.61,2.21C439.19,17.94,434.77,19.28,430.45,20.7z M606.03,17.29c-4.38-1.25-8.84-2.41-13.26-3.45
	l0.53-2.23c4.46,1.05,8.96,2.22,13.37,3.48L606.03,17.29z M456.85,13.37l-0.51-2.24c4.47-1.02,9.02-1.95,13.53-2.76l0.41,2.26
	C465.81,11.43,461.29,12.36,456.85,13.37z M579.35,11c-4.47-0.84-9.02-1.58-13.53-2.22l0.32-2.27c4.54,0.64,9.13,1.39,13.63,2.23
	L579.35,11z M483.83,8.5l-0.3-2.27c4.54-0.61,9.16-1.12,13.73-1.51l0.2,2.29C492.92,7.4,488.33,7.9,483.83,8.5z M552.21,7.19
	c-4.52-0.43-9.12-0.75-13.67-0.97l0.11-2.29c4.59,0.22,9.22,0.55,13.78,0.98L552.21,7.19z M511.13,6.12l-0.1-2.29
	c4.22-0.18,8.51-0.27,12.77-0.27l1.04,0l-0.01,2.29l-1.03,0C519.58,5.86,515.31,5.95,511.13,6.12L511.13,6.12z"/>
<path class="st0" d="M892.92,111.63v743.55c-0.02,18.44-14.97,33.39-33.42,33.39H557.64c-18.42,0.03-33.38-14.88-33.42-33.3
	c0-0.03,0-0.06,0-0.09V111.63c0-18.45,14.96-33.41,33.41-33.42c0,0,0,0,0.01,0h45.17V84c0,15.19,12.31,27.51,27.51,27.52h153.53
	c5.87,0.01,11.59-1.87,16.31-5.37c0.95-0.69,1.86-1.45,2.71-2.27c5.43-5.19,8.5-12.37,8.49-19.88v-5.79h48.14
	c18.45-0.01,33.41,14.95,33.42,33.39C892.92,111.61,892.92,111.62,892.92,111.63z"/>
<rect x="568.36" y="346.26" class="st1" width="280.43" height="213.36"/>
<path class="st1" d="M420.69,310.31c24.97,0.54,44.83,18.63,44.83,18.63s-20.62,17.23-45.59,16.69
	C394.97,345.09,375.1,327,375.1,327S395.72,309.77,420.69,310.31z"/>
<path class="st1" d="M295.17,225.08c22.56,10.72,48.42,3.45,48.42,3.45s-10.71-24.64-33.26-35.36
	c-22.56-10.72-48.42-3.45-48.42-3.45S272.61,214.36,295.17,225.08z"/>
<path class="st0" d="M297.46,214.43c24.87-2.27,46.64,13.47,46.64,13.47s-18.55,19.43-43.42,21.71s-46.64-13.47-46.64-13.47
	S272.59,216.7,297.46,214.43z"/>
<path class="st0" d="M388.62,218.73c-2.38,24.86,13.27,46.7,13.27,46.7s19.52-18.47,21.9-43.33s-13.27-46.7-13.27-46.7
	S391.01,193.87,388.62,218.73z"/>
<path class="st0" d="M505.75,371.2c-13.04,21.3-8.56,47.79-8.56,47.79s25.64-8.04,38.68-29.33c13.04-21.3,8.56-47.79,8.56-47.79
	S518.79,349.9,505.75,371.2z"/>
<path class="st0" d="M467.91,602.74l1.9-1.28c-6.7-9.72-10.36-21.22-10.51-33.03c0.05-17.27,8.54-33.25,16.74-48.7
	c1.52-2.87,3.04-5.73,4.5-8.58c6.13-11.65,11.01-23.91,14.57-36.58c12.73-47.3,0.2-103.09-33.52-149.26
	c-26.75-36.63-66.61-68.65-121.88-97.91l-1.07,2.03c54.96,29.09,94.57,60.9,121.1,97.24c33.31,45.61,45.7,100.68,33.15,147.31
	c-3.52,12.52-8.34,24.63-14.4,36.14c-1.46,2.85-2.97,5.69-4.49,8.55c-8.34,15.7-16.96,31.93-17.01,49.77
	C457.15,580.69,460.95,592.63,467.91,602.74z"/>
<circle class="st0" cx="230.76" cy="208.6" r="21.8"/>
<polygon class="st1" points="537.57,562.39 400.76,550.99 400.76,350.32 537.57,343.48 "/>
<polygon class="st1" points="879.58,562.39 1016.39,550.99 1016.39,350.32 879.58,343.48 "/>
<path class="st2" d="M756.13,426.34c-8.32-7.19-20.14-8.69-30-3.81c-4.19,2.03-8.69,3.31-13.31,3.81
	c-0.12-10.02,1.72-19.96,5.41-29.27l0.6-1.56h-8.04l-0.23,0.84c-0.9,3.29-1.6,6.63-2.11,10.01c-0.43-1.46-1-2.88-1.68-4.25
	c-5.64-11.18-18.67-15.76-19.22-15.95l-1.11-0.38l-0.35,1.12c-0.18,0.56-4.25,13.75,1.39,24.94c4.04,8.01,11.86,12.62,16.19,14.67
	c-5.47-0.35-10.82-1.78-15.74-4.21c-6.26-3.22-13.8-2.59-19.43,1.64c-15.01,11.41-23.62,28.13-23.62,45.88
	c0,23.32,15.1,44.67,38.47,54.4c2.11,0.87,4.37,1.32,6.65,1.32c3.17,0,6.28-0.85,9.01-2.47c7.37-4.29,16.48-4.31,23.87-0.05
	c4.76,2.81,10.56,3.22,15.67,1.1c23.24-9.77,38.25-31.09,38.25-54.31C776.79,453.2,769.45,437.76,756.13,426.34z M712.55,397.8h2.95
	c-3.32,8.89-5.01,18.31-5,27.81h-0.53C709.27,416.26,710.14,406.86,712.55,397.8L712.55,397.8z M689.52,410.81
	c-4.28-8.49-2.4-18.61-1.57-22.02c3.24,1.36,12.48,5.85,16.77,14.36c4.28,8.49,2.4,18.61,1.57,22.02
	C703.05,423.8,693.8,419.3,689.52,410.81L689.52,410.81z M737.65,522.02c-4.44,1.84-9.48,1.48-13.62-0.97
	c-8.11-4.68-18.11-4.66-26.2,0.05c-4.12,2.45-9.16,2.83-13.6,1c-22.51-9.37-37.06-29.9-37.06-52.29c0-17.03,8.28-33.09,22.72-44.06
	c2.77-2.09,6.15-3.22,9.62-3.21c2.56,0,5.09,0.61,7.37,1.78c12.72,6.07,27.49,6.16,40.28,0.24c9.03-4.47,19.86-3.09,27.48,3.5
	c12.8,10.98,19.86,25.8,19.86,41.75C774.49,492.12,760.03,512.61,737.65,522.02L737.65,522.02z"/>
<path class="st2" d="M468.79,404.66v-2.69h1.07v-8.39c0.01-1.27-0.69-2.43-1.81-3.03c-4.73-2.47-9.82-2.47-15.12,0.01
	c-1.19,0.57-1.95,1.77-1.95,3.09v8.31h1.07v2.44c-8.1,2.27-13.68,9.67-13.65,18.08v18.15l2.04,0.68l-2.04,1.36v5.46l2.04,0.68
	l-2.04,1.36v5.46l2.04,0.68l-2.04,1.36v41.55c0.01,6.75,5.48,12.22,12.22,12.23h18.02c6.73-0.01,12.19-5.46,12.2-12.2v-41.58
	l-2.04-1.36l2.04-0.68v-5.46l-2.04-1.36l2.04-0.68v-5.46l-2.04-1.36l2.04-0.68v-19.09C480.81,413.93,475.98,407.16,468.79,404.66z
	 M453.89,392.64c4.69-2.19,8.97-2.21,13.09-0.06c0.36,0.2,0.58,0.58,0.58,0.99v4.49h-14.3v-4.41
	C453.26,393.22,453.51,392.83,453.89,392.64z M478.54,438.98l-4.92,1.64l4.92,3.28v2.57l-4.92,1.64l4.92,3.28v2.57l-4.92,1.64
	l4.92,3.28v40.35c-0.01,5.47-4.44,9.9-9.9,9.9h-18.02c-5.48-0.01-9.92-4.45-9.93-9.93v-40.32l4.92-3.28l-4.92-1.64v-2.57l4.92-3.28
	l-4.92-1.64v-2.57l4.92-3.28l-4.92-1.64v-16.5c-0.03-7.68,5.27-14.36,12.76-16.07l0.89-0.21v-4.24h12.16v4.39l0.83,0.24
	c6.63,1.95,11.19,8.03,11.22,14.94V438.98z"/>
<path class="st2" d="M1008,436.08l-5.78-1.15l1.36-2.72l-2.65-0.53l0.46-2.75l-2.89-0.48v-2.61l-2.35-0.67l2.23-2.78h-3.87
	l0.81-2.02l-2.86-0.48l0.97-3.4h-3.09v-3.17h-1.15c-3.61,0-5.63,4.29-6.29,6.01c-19.95,3.48-77.88,43.6-84.49,48.22
	c-2.75-0.89-6.82,1.2-7.67,1.66l-1.35,0.73l1.94,1.94l-0.58,1.74l3.56,1.34l-0.78,1.95l2.24,1.87l-2.02,1.51l3.03,1.82l-0.53,2.66
	l3.39,0.49v2.66l1.97,0.39l-0.98,3.44h2.19v2.72h2.13l0.97,2.9l0.99-0.2c2.31-0.46,4.28-3.65,5.06-5.07
	c19.21-3.43,78.54-45.16,84.31-49.25c6.74,0.81,9.22-0.99,9.48-1.21l1.1-0.88l-2.62-2.18L1008,436.08z M996.15,440.51l-0.45-0.06
	l-0.37,0.26c-0.66,0.47-65.71,46.56-84.26,49.21l-0.59,0.09l-0.27,0.54c-0.71,1.45-1.67,2.76-2.84,3.88l-0.75-2.25h-1.49v-2.72
	h-1.44l0.83-2.91l-2.56-0.51v-2.77l-2.96-0.42l0.37-1.87l-1.5-0.9l1.61-1.21l-3.19-2.66l1.03-2.58l-3.69-1.38l0.33-0.98l-0.71-0.71
	c1.72-0.72,3.81-1.25,4.7-0.71l0.64,0.38l0.61-0.43c0.65-0.46,65.27-45.65,84.71-48.3l0.73-0.1l0.22-0.7
	c0.33-1.08,1.52-3.82,3.19-4.76v2.85h2.35l-0.84,2.95l2.58,0.43l-1.01,2.52h2.48l-1.4,1.75l4,1.14v2.83l2.55,0.42l-0.45,2.68
	l1.88,0.38l-1.36,2.72l3.29,0.66l-1.69,1.13l2.44,2.03C1000.65,440.85,998.37,440.88,996.15,440.51z"/>
<circle class="st1" cx="708.57" cy="623.85" r="33.27"/>
<polygon class="st2" points="729.52,620.57 711.86,620.57 711.86,602.91 705.29,602.91 705.29,620.57 687.63,620.57 687.63,627.14 
	705.29,627.14 705.29,644.8 711.86,644.8 711.86,627.14 729.52,627.14 "/>
<polygon class="st2" points="813.49,625 796.29,616.97 796.29,621.56 756.14,621.56 756.14,628.44 796.29,628.44 796.29,633.03 "/>
<polygon class="st2" points="603.65,625 620.86,616.97 620.86,621.56 661.01,621.56 661.01,628.44 620.86,628.44 620.86,633.03 "/>
<rect x="288.16" y="888.84" class="st0" width="840.83" height="2.29"/>
<rect x="598.45" y="186.81" class="st2" width="220.24" height="2.29"/>
<rect x="598.98" y="813.13" class="st2" width="220.24" height="2.29"/>
<path class="st3" d="M1173.11,586.57l-5.74,21.79c0,0-20.65,45.88,0,48.18c20.65,2.29,21.79-59.65,21.79-59.65L1173.11,586.57z"/>
<path class="st4" d="M1208.67,429.42l-41.3,162.89c0,0,16.06,4.59,24.09,10.32L1208.67,429.42z"/>
<path class="st5" d="M1338.29,553.31l11.47,177.8c0,0,27.53,69.97,26.38,136.51c0,0-10.32,26.38-2.29,30.97
	c8.03,4.59,12.62,8.03,8.03,11.47c-4.59,3.44-8.03,11.47-4.59,13.77c3.44,2.29,4.59,5.74,3.44,5.74h-34.41
	c0,0,6.88-17.21-3.44-21.79c-10.32-4.59-4.59-16.06-4.59-16.06l-76.86-224.83l-60.8,206.48c0,0,10.32,6.88,2.29,10.32
	c-8.03,3.44-11.47-3.44-8.03,3.44c3.44,6.88-1.15,10.32-1.15,11.47s-34.41-3.44-34.41-3.44s17.21-14.91,9.18-18.35
	c-8.03-3.44-11.47-6.88-9.18-9.18c2.29-2.29,11.47-24.09,11.47-24.09s4.59-82.59,5.74-86.03c1.15-3.44,0-19.5,0-27.53
	c0-8.03-1.15-40.15,2.29-48.18c3.44-8.03,6.88-106.68,25.24-118.15C1222.44,552.16,1338.29,553.31,1338.29,553.31z"/>
<path class="st5" d="M1192.61,892.85c0,0,22.94,47.03,6.88,52.77s-36.71,1.15-41.3,8.03s-55.06,14.91-56.21-2.29
	c-1.15-17.21,55.06-49.33,55.06-49.33l7.32-11.79L1192.61,892.85z"/>
<path class="st5" d="M1378.44,927.26c0,0,22.94,47.03,6.88,52.77s-36.71,1.15-41.3,8.03c-4.59,6.88-55.06,14.91-56.21-2.29
	s55.06-49.33,55.06-49.33l7.32-11.79L1378.44,927.26z"/>
<circle class="st3" cx="1272.34" cy="299.22" r="37.85"/>
<polygon class="st3" points="1298.15,319.3 1293.56,352.56 1259.14,378.95 1249.97,366.33 1249.97,322.74 "/>
<path class="st0" d="M1244.23,361.74c0,0,35.56,3.44,53.91-9.18l36.71,216.8c0,0-129.62,10.32-135.36,3.44v-67.68l22.94-110.12
	L1244.23,361.74z"/>
<path class="st4" d="M1294.99,342.2l12.34,10.37c0,0,50.47,8.03,47.03,21.8l-13.77,162.89l4.59,55.06c0,0-39-10.32-68.83,0
	c-29.82,10.32-6.13-221.85-6.13-221.85S1297.56,345.6,1294.99,342.2z"/>
<path class="st4" d="M1249.97,354.75c0,0-36.71,26.49-41.3,43.69c-4.59,17.21-19.5,198.45-19.5,198.45s6.88-3.44,10.32,2.29
	S1255.7,363.83,1249.97,354.75z"/>
<path class="st3" d="M1350.91,594.6l-8.22,26.83c0,0-2.1,50.02-29.63,43.14s8.03-65.39,8.03-65.39l8.03-12.62L1350.91,594.6z"/>
<path class="st5" d="M1234.5,297.57c0,0-4.1-6.15-2.52-12.77c0.94-3.76,1.31-7.64,1.1-11.51c0,0,3.31-10.72,6.62-16.71
	c3.31-5.99,1.73-8.51,12.14-10.4c10.4-1.89,6.15-15.45,33.57-0.79c1.89,2.64,5.19,3.89,8.35,3.15c5.67-1.1,7.72,6.78,7.72,6.78
	s3.78-2.21,5.2,0.95s11.53-1.89,11.53,19.39s-11.51,40.28-11.51,40.28s0.84-35.79-17.91-39.42c-18.76-3.63-38.93-14.19-43.82-0.63
	C1242.34,283.51,1238.83,290.78,1234.5,297.57z"/>
<ellipse class="st3" cx="1307.12" cy="301.15" rx="3.7" ry="4.93"/>
<path class="st4" d="M1345.18,366.33c0,0,18.35-4.59,24.09,26.38c5.74,30.97,12.62,119.3,12.62,119.3l-27.53,92.92
	c0,0-27.53-14.91-33.27-12.62l21.66-80.67l-18.22-82.22C1324.53,429.42,1340.59,366.33,1345.18,366.33z"/>
<polygon class="st6" points="1318.49,430.99 1342.58,511.29 1318.49,592.73 1332.26,511.29 "/>
</svg>
