<?xml version="1.0" encoding="utf-8"?>
<!-- Generator: Adobe Illustrator 24.0.0, SVG Export Plug-In . SVG Version: 6.00 Build 0)  -->
<svg version="1.1" id="Layer_1" xmlns="http://www.w3.org/2000/svg" xmlns:xlink="http://www.w3.org/1999/xlink" x="0px" y="0px"
	 viewBox="0 0 1600 1600" style="enable-background:new 0 0 1600 1600;" xml:space="preserve">
<style type="text/css">
	.st0{fill:#3F3D56;}
	.st1{fill:#5360DE;}
	.st2{fill:#FFFFFF;}
	.st3{fill:#A0616A;}
	.st4{fill:#D0CDE1;}
	.st5{fill:#2F2E41;}
	.st6{opacity:0.15;enable-background:new    ;}
</style>
<path class="st0" d="M439.73,942.78c-4.12,0-8.29-0.06-12.37-0.19l0.09-2.97c5.87,0.18,11.86,0.23,17.75,0.16l0.04,2.97
	C443.41,942.77,441.57,942.78,439.73,942.78z M463.12,942.09l-0.17-2.97c5.88-0.35,11.82-0.83,17.69-1.45l0.31,2.95
	C475.03,941.25,469.03,941.75,463.12,942.09z M409.49,941.63c-5.93-0.45-11.91-1.05-17.81-1.77l0.36-2.95
	c5.84,0.71,11.78,1.31,17.66,1.76L409.49,941.63z M498.68,938.37l-0.44-2.94c5.84-0.88,11.72-1.92,17.48-3.06l0.58,2.91
	C510.49,936.44,504.57,937.47,498.68,938.37z M373.99,937.28c-5.85-1-11.76-2.14-17.56-3.39l0.63-2.9
	c5.75,1.26,11.62,2.38,17.43,3.37L373.99,937.28z M533.76,931.39l-0.71-2.89c5.74-1.41,11.5-2.98,17.13-4.65l0.84,2.85
	C545.34,928.38,539.53,929.96,533.76,931.39z M339.04,929.69c-5.74-1.53-11.53-3.21-17.17-5l0.89-2.84
	c5.61,1.77,11.34,3.44,17.04,4.96L339.04,929.69z M568.05,921.22l-0.97-2.81c5.56-1.93,11.15-4.03,16.63-6.22l1.1,2.76
	C579.29,917.17,573.66,919.26,568.05,921.22L568.05,921.22z M304.89,918.89c-5.58-2.05-11.19-4.26-16.68-6.58l1.15-2.73
	c5.45,2.29,11.02,4.49,16.55,6.53L304.89,918.89z M601.21,907.95l-1.23-2.71c5.34-2.42,10.71-5.01,15.95-7.71l1.35,2.64
	C612,902.9,606.6,905.5,601.21,907.95L601.21,907.95z M633.01,891.69l-1.48-2.58c5.13-2.93,10.23-6,15.19-9.13l1.59,2.51
	C643.32,885.66,638.16,888.75,633.01,891.69L633.01,891.69z M663.19,872.59l-1.7-2.43c4.82-3.37,9.63-6.9,14.31-10.49l1.81,2.36
	C672.91,865.65,668.05,869.2,663.19,872.59z M210.37,868.41c-4.79-3.48-9.58-7.14-14.25-10.85l1.85-2.32
	c4.62,3.69,9.38,7.3,14.13,10.76L210.37,868.41z M691.53,850.81l-1.92-2.27c4.49-3.79,8.97-7.74,13.3-11.75l2.02,2.18
	C700.57,843.01,696.06,846.99,691.53,850.81z M182.41,846.08c-4.47-3.91-8.9-7.98-13.18-12.1l2.06-2.15
	c4.25,4.08,8.65,8.12,13.09,12L182.41,846.08z M717.79,826.53l-2.11-2.08c4.14-4.2,8.25-8.55,12.19-12.91l2.21,1.98
	C726.09,817.92,721.96,822.31,717.79,826.53z M156.6,821.31c-4.09-4.31-8.15-8.77-12.03-13.23l2.24-1.94
	c3.86,4.44,7.87,8.86,11.94,13.13L156.6,821.31z M741.74,799.96l-2.29-1.89c3.74-4.56,7.43-9.26,10.96-13.97l2.38,1.77
	C749.22,790.63,745.5,795.36,741.74,799.96L741.74,799.96z M133.16,794.31c-3.68-4.65-7.3-9.45-10.77-14.27l2.41-1.74
	c3.44,4.78,7.03,9.54,10.68,14.15L133.16,794.31z M763.17,771.3l-2.46-1.67c3.32-4.88,6.55-9.89,9.65-14.93l2.54,1.55
	C769.77,761.31,766.51,766.38,763.17,771.3L763.17,771.3z M112.29,765.3c-3.24-4.96-6.41-10.08-9.41-15.18l2.56-1.52
	c2.99,5.08,6.14,10.14,9.35,15.06L112.29,765.3z M781.91,740.79l-2.6-1.44c2.85-5.17,5.62-10.46,8.24-15.76l2.67,1.32
	C787.58,730.23,784.78,735.58,781.91,740.79z M797.77,708.66l-2.72-1.19c2.37-5.41,4.64-10.94,6.76-16.46l2.77,1.06
	C802.45,697.64,800.15,703.22,797.77,708.66z M78.93,702.25c-2.28-5.46-4.45-11.06-6.49-16.63l2.8-1.01
	c2.01,5.52,4.17,11.07,6.44,16.5L78.93,702.25z M810.62,675.19l-2.82-0.93c1.85-5.58,3.6-11.29,5.19-16.98l2.86,0.8
	C814.26,663.81,812.48,669.56,810.62,675.19z M66.73,668.68c-1.76-5.66-3.43-11.45-4.93-17.2l2.87-0.75
	c1.5,5.7,3.15,11.45,4.9,17.07L66.73,668.68z M820.3,640.76l-2.89-0.67c1.33-5.72,2.55-11.58,3.61-17.38l2.93,0.53
	C822.87,629.09,821.65,634.98,820.3,640.76L820.3,640.76z M57.65,634.09c-1.24-5.8-2.36-11.72-3.33-17.57l2.93-0.49
	c0.97,5.81,2.07,11.68,3.3,17.44L57.65,634.09z M826.78,605.59l-2.94-0.4c0.8-5.81,1.48-11.75,2.01-17.64l2.97,0.27
	C828.27,593.75,827.58,599.72,826.78,605.59L826.78,605.59z M51.8,598.8c-0.7-5.88-1.28-11.88-1.71-17.81l2.97-0.22
	c0.43,5.89,1,11.84,1.7,17.66L51.8,598.8z M830,569.98l-2.97-0.13c0.26-5.89,0.4-11.86,0.4-17.74h2.97
	C830.4,558.02,830.27,564.04,830,569.98z M49.19,563.14c-0.1-3.64-0.16-7.36-0.16-11.05c0-2.29,0.03-4.57,0.06-6.85l2.97,0.05
	c-0.04,2.27-0.06,4.52-0.06,6.8c0,3.65,0.05,7.34,0.16,10.97L49.19,563.14z M52.77,527.56l-2.97-0.18
	c0.38-5.93,0.88-11.93,1.52-17.82l2.95,0.32C53.65,515.71,53.14,521.67,52.77,527.56L52.77,527.56z M825.52,509.43
	c-0.6-5.85-1.41-8.72-2.27-14.54l2.94-0.43c0.87,5.88,1.61,10.36,2.21,16.27L825.52,509.43z M56.59,492.27l-2.94-0.45
	c0.91-5.88,1.97-11.8,3.15-17.61l2.91,0.58C58.54,480.57,57.49,486.45,56.59,492.27z M820.25,477.4c-1.13-5.8-2.41-11.63-3.79-17.34
	l2.89-0.7c1.4,5.75,2.69,11.63,3.83,17.47L820.25,477.4z M63.63,457.49l-2.89-0.73c1.44-5.75,3.04-11.55,4.75-17.25l2.85,0.85
	C66.65,446.02,65.06,451.78,63.63,457.49z M811.86,442.91c-1.66-5.66-3.47-11.34-5.37-16.91l2.81-0.97
	c1.93,5.61,3.76,11.34,5.43,17.04L811.86,442.91z M73.85,423.45l-2.8-0.98c1.97-5.62,4.11-11.25,6.33-16.77l2.76,1.11
	C77.93,412.28,75.82,417.88,73.85,423.45L73.85,423.45z M800.32,409.34c-2.16-5.46-4.49-10.96-6.9-16.3l2.71-1.22
	c2.43,5.4,4.77,10.93,6.95,16.43L800.32,409.34z M87.19,390.47l-2.69-1.24c2.49-5.4,5.13-10.83,7.85-16.11l2.64,1.36
	C92.28,379.74,89.65,385.11,87.19,390.47z M785.78,377.06c-2.65-5.24-5.48-10.5-8.38-15.62l2.59-1.46
	c2.93,5.15,5.76,10.45,8.44,15.73L785.78,377.06z M103.49,358.89l-2.58-1.48c2.97-5.14,6.09-10.3,9.29-15.31l2.5,1.59
	C109.54,348.67,106.43,353.79,103.49,358.89L103.49,358.89z M768.32,346.21c-3.13-5-6.42-9.97-9.76-14.8l2.43-1.7
	c3.37,4.86,6.68,9.88,9.84,14.91L768.32,346.21z M122.62,328.94l-2.43-1.71c3.42-4.86,7.01-9.7,10.64-14.39l2.34,1.83
	C129.57,319.31,126.01,324.12,122.62,328.94z M748.11,317.07c-3.57-4.69-7.3-9.35-11.09-13.86l2.28-1.9
	c3.81,4.55,7.56,9.23,11.16,13.96L748.11,317.07z M144.39,300.87l-2.27-1.93c3.85-4.52,7.85-9.01,11.9-13.35l2.18,2.02
	C152.17,291.94,148.2,296.39,144.39,300.87z M725.33,289.88c-3.99-4.34-8.13-8.65-12.3-12.79l2.1-2.11
	c4.21,4.18,8.38,8.52,12.39,12.9L725.33,289.88z M168.61,274.92l-2.07-2.12c4.25-4.16,8.65-8.26,13.07-12.21l1.98,2.21
	C177.19,266.72,172.83,270.8,168.61,274.92z M700.15,264.86c-4.38-3.96-8.88-7.87-13.42-11.63l1.89-2.29
	c4.57,3.78,9.12,7.72,13.52,11.72L700.15,264.86z M195.08,251.29l-1.88-2.31c4.6-3.74,9.35-7.43,14.12-10.97l1.77,2.38
	C204.35,243.91,199.63,247.57,195.08,251.29z M223.58,230.17l-1.66-2.46c4.92-3.32,9.98-6.55,15.05-9.63l1.54,2.54
	C233.47,223.67,228.45,226.89,223.58,230.17z M253.86,211.75l-1.42-2.6c5.21-2.85,10.54-5.61,15.85-8.21l1.31,2.67
	C264.32,206.18,259.02,208.92,253.86,211.75z M612.42,204.86c-5.28-2.63-10.7-5.18-16.1-7.56l1.2-2.72
	c5.44,2.41,10.89,4.97,16.23,7.61L612.42,204.86z M285.69,196.19l-1.18-2.72c5.44-2.36,10.99-4.62,16.52-6.72l1.05,2.78
	C296.59,191.6,291.07,193.84,285.69,196.19z M579.89,190.49c-5.5-2.14-11.14-4.17-16.73-6.05l0.95-2.82
	c5.65,1.89,11.32,3.95,16.86,6.1L579.89,190.49z M318.83,183.6l-0.92-2.82c5.65-1.85,11.41-3.6,17.12-5.18l0.79,2.86
	C330.14,180.02,324.42,181.76,318.83,183.6z M546.2,179.18c-5.67-1.62-11.45-3.12-17.17-4.47l0.69-2.89
	c5.78,1.36,11.6,2.87,17.31,4.51L546.2,179.18z M353.01,174.11l-0.66-2.9c5.79-1.32,11.68-2.53,17.52-3.57l0.53,2.93
	C364.62,171.59,358.76,172.8,353.01,174.11z M511.65,171.04c-5.79-1.09-11.68-2.05-17.52-2.87l0.41-2.94
	c5.88,0.83,11.82,1.8,17.65,2.89L511.65,171.04z M387.95,167.8l-0.39-2.94c5.88-0.79,11.86-1.45,17.78-1.96l0.26,2.97
	C399.72,166.37,393.78,167.02,387.95,167.8z M476.51,166.1c-5.85-0.56-11.81-0.97-17.7-1.26l0.14-2.97
	c5.94,0.28,11.94,0.71,17.85,1.27L476.51,166.1z M423.31,164.72l-0.13-2.97c5.46-0.23,11.02-0.35,16.54-0.35h1.35l-0.01,2.97h-1.33
	C434.25,164.38,428.72,164.5,423.31,164.72L423.31,164.72z"/>
<path class="st0" d="M917.73,301.35v962.9c-0.03,23.88-19.39,43.24-43.28,43.24H483.54c-23.85,0.04-43.23-19.27-43.28-43.12
	c0-0.04,0-0.08,0-0.12v-962.9c0-23.89,19.37-43.27,43.27-43.28c0,0,0,0,0.01,0h58.5v7.5c0,19.67,15.94,35.63,35.63,35.64h198.82
	c7.6,0.01,15.01-2.42,21.12-6.95c1.23-0.89,2.41-1.88,3.51-2.94c7.03-6.72,11.01-16.02,10.99-25.74v-7.5h62.34
	c23.89-0.01,43.27,19.36,43.28,43.24C917.73,301.33,917.73,301.34,917.73,301.35z"/>
<rect x="497.42" y="605.2" class="st1" width="363.16" height="276.3"/>
<path class="st1" d="M306.19,558.64c32.34,0.7,58.06,24.13,58.06,24.13s-26.7,22.31-59.04,21.61c-32.32-0.7-58.06-24.13-58.06-24.13
	S273.85,557.94,306.19,558.64z"/>
<path class="st1" d="M143.64,448.27c29.22,13.88,62.7,4.47,62.7,4.47s-13.87-31.91-43.07-45.79c-29.22-13.88-62.7-4.47-62.7-4.47
	S114.42,434.39,143.64,448.27z"/>
<path class="st0" d="M146.6,434.48c32.21-2.94,60.4,17.44,60.4,17.44s-24.02,25.16-56.23,28.11s-60.4-17.44-60.4-17.44
	S114.4,437.42,146.6,434.48z"/>
<path class="st0" d="M264.66,440.05c-3.08,32.19,17.18,60.48,17.18,60.48s25.28-23.92,28.36-56.11s-17.18-60.48-17.18-60.48
	S267.75,407.85,264.66,440.05z"/>
<path class="st0" d="M416.34,637.5c-16.89,27.58-11.09,61.89-11.09,61.89s33.2-10.41,50.09-37.98
	c16.89-27.58,11.09-61.89,11.09-61.89S433.23,609.91,416.34,637.5z"/>
<path class="st0" d="M367.34,937.34l2.46-1.66c-8.68-12.59-13.42-27.48-13.61-42.77c0.06-22.36,11.06-43.06,21.68-63.07
	c1.97-3.72,3.94-7.42,5.83-11.11c7.94-15.09,14.26-30.96,18.87-47.37c16.49-61.25,0.26-133.5-43.41-193.29
	c-34.64-47.44-86.26-88.9-157.84-126.79l-1.39,2.63c71.17,37.67,122.47,78.87,156.83,125.93c43.14,59.07,59.18,130.38,42.93,190.77
	c-4.56,16.21-10.8,31.9-18.65,46.8c-1.89,3.69-3.85,7.37-5.81,11.07c-10.8,20.33-21.96,41.35-22.03,64.45
	C353.4,908.79,358.32,924.25,367.34,937.34z"/>
<circle class="st0" cx="60.23" cy="426.93" r="28.23"/>
<polygon class="st1" points="457.55,885.09 280.38,870.33 280.38,610.46 457.55,601.6 "/>
<polygon class="st1" points="900.45,885.09 1077.62,870.33 1077.62,610.46 900.45,601.6 "/>
<path class="st2" d="M740.58,708.9c-10.77-9.31-26.08-11.25-38.85-4.93c-5.43,2.63-11.25,4.29-17.24,4.93
	c-0.16-12.98,2.23-25.85,7.01-37.9l0.78-2.02h-10.41l-0.3,1.09c-1.17,4.26-2.07,8.59-2.73,12.96c-0.56-1.89-1.29-3.73-2.18-5.5
	c-7.3-14.48-24.18-20.41-24.89-20.66l-1.44-0.49l-0.45,1.45c-0.23,0.73-5.5,17.81,1.8,32.3c5.23,10.37,15.36,16.34,20.97,19
	c-7.08-0.45-14.01-2.31-20.38-5.45c-8.11-4.17-17.87-3.35-25.16,2.12c-19.44,14.78-30.59,36.43-30.59,59.41
	c0,30.2,19.55,57.85,49.82,70.45c2.73,1.13,5.66,1.71,8.61,1.71c4.11,0,8.13-1.1,11.67-3.2c9.54-5.56,21.34-5.58,30.91-0.06
	c6.16,3.64,13.68,4.17,20.29,1.42c30.1-12.65,49.53-40.26,49.53-70.33C767.34,743.69,757.83,723.69,740.58,708.9z M684.15,671.94
	h3.82c-4.3,11.51-6.49,23.71-6.47,36.01h-0.69C679.9,695.85,681.03,683.68,684.15,671.94L684.15,671.94z M654.32,688.79
	c-5.54-10.99-3.11-24.1-2.03-28.52c4.2,1.76,16.16,7.58,21.72,18.6c5.54,10.99,3.11,24.1,2.03,28.52
	C671.84,705.61,659.87,699.79,654.32,688.79L654.32,688.79z M716.65,832.81c-5.75,2.38-12.28,1.92-17.64-1.26
	c-10.5-6.06-23.45-6.03-33.93,0.06c-5.34,3.17-11.86,3.66-17.61,1.29c-29.15-12.13-47.99-38.72-47.99-67.72
	c0-22.05,10.72-42.85,29.42-57.06c3.59-2.71,7.96-4.17,12.46-4.16c3.32,0,6.59,0.79,9.54,2.31c16.47,7.86,35.6,7.98,52.16,0.31
	c11.69-5.79,25.72-4,35.59,4.53c16.58,14.22,25.72,33.41,25.72,54.07C764.36,794.09,745.63,820.62,716.65,832.81L716.65,832.81z"/>
<path class="st2" d="M368.48,680.83v-3.48h1.39v-10.87c0.01-1.64-0.89-3.15-2.34-3.92c-6.13-3.2-12.72-3.2-19.58,0.01
	c-1.54,0.74-2.53,2.29-2.53,4v10.76h1.39v3.16c-10.49,2.94-17.72,12.52-17.68,23.41v23.5l2.64,0.88l-2.64,1.76v7.07l2.64,0.88
	l-2.64,1.76v7.07l2.64,0.88l-2.64,1.76v53.81c0.01,8.74,7.1,15.82,15.82,15.84h23.34c8.72-0.01,15.79-7.07,15.8-15.8v-53.85
	l-2.64-1.76l2.64-0.88v-7.07l-2.64-1.76l2.64-0.88v-7.07l-2.64-1.76l2.64-0.88v-24.72C384.04,692.83,377.79,684.07,368.48,680.83z
	 M349.18,665.26c6.07-2.84,11.62-2.86,16.95-0.08c0.47,0.26,0.75,0.75,0.75,1.28v5.81h-18.52v-5.71
	C348.36,666.01,348.69,665.51,349.18,665.26z M381.1,725.27l-6.37,2.12l6.37,4.25v3.33l-6.37,2.12l6.37,4.25v3.33l-6.37,2.12
	l6.37,4.25v52.25c-0.01,7.08-5.75,12.82-12.82,12.82h-23.34c-7.1-0.01-12.85-5.76-12.86-12.86v-52.21l6.37-4.25l-6.37-2.12v-3.33
	l6.37-4.25l-6.37-2.12v-3.33l6.37-4.25l-6.37-2.12V703.9c-0.04-9.95,6.82-18.6,16.52-20.81l1.15-0.27v-5.49h15.75v5.69l1.07,0.31
	c8.59,2.53,14.49,10.4,14.53,19.35v22.6H381.1z"/>
<path class="st2" d="M1066.76,721.52l-7.49-1.49l1.76-3.52l-3.43-0.69l0.6-3.56l-3.74-0.62v-3.38l-3.04-0.87l2.89-3.6h-5.01
	l1.05-2.62l-3.7-0.62l1.26-4.4h-4v-4.11h-1.49c-4.68,0-7.29,5.56-8.15,7.78c-25.84,4.51-100.85,56.46-109.41,62.45
	c-3.56-1.15-8.83,1.55-9.93,2.15l-1.75,0.95l2.51,2.51l-0.75,2.25l4.61,1.74l-1.01,2.53l2.9,2.42l-2.62,1.96l3.92,2.36l-0.69,3.44
	l4.39,0.63v3.44l2.55,0.51l-1.27,4.45h2.84v3.52h2.76l1.26,3.76l1.28-0.26c2.99-0.6,5.54-4.73,6.55-6.57
	c24.88-4.44,101.71-58.48,109.18-63.78c8.73,1.05,11.94-1.28,12.28-1.57l1.42-1.14l-3.39-2.82L1066.76,721.52z M1051.41,727.25
	l-0.58-0.08l-0.48,0.34c-0.85,0.61-85.09,60.3-109.12,63.73l-0.76,0.12l-0.35,0.7c-0.92,1.88-2.16,3.57-3.68,5.02l-0.97-2.91h-1.93
	v-3.52h-1.86l1.07-3.77l-3.32-0.66v-3.59l-3.83-0.54l0.48-2.42l-1.94-1.17l2.08-1.57l-4.13-3.44l1.33-3.34l-4.78-1.79l0.43-1.27
	l-0.92-0.92c2.23-0.93,4.93-1.62,6.09-0.92l0.83,0.49l0.79-0.56c0.84-0.6,84.52-59.12,109.7-62.55l0.95-0.13l0.28-0.91
	c0.43-1.4,1.97-4.95,4.13-6.16v3.69h3.04l-1.09,3.82l3.34,0.56l-1.31,3.26h3.21l-1.81,2.27l5.18,1.48v3.66l3.3,0.54l-0.58,3.47
	l2.43,0.49l-1.76,3.52l4.26,0.85l-2.19,1.46l3.16,2.63C1057.24,727.69,1054.28,727.73,1051.41,727.25z"/>
<circle class="st1" cx="678.99" cy="964.68" r="43.08"/>
<polygon class="st2" points="706.12,960.43 683.25,960.43 683.25,937.56 674.74,937.56 674.74,960.43 651.88,960.43 651.88,968.94 
	674.74,968.94 674.74,991.81 683.25,991.81 683.25,968.94 706.12,968.94 "/>
<polygon class="st2" points="814.86,966.17 792.59,955.77 792.59,961.71 740.6,961.71 740.6,970.62 792.59,970.62 792.59,976.57 "/>
<polygon class="st2" points="543.12,966.17 565.41,955.77 565.41,961.71 617.4,961.71 617.4,970.62 565.41,970.62 565.41,976.57 "/>
<rect x="134.56" y="1307.84" class="st0" width="1088.88" height="2.97"/>
<rect x="536.39" y="398.71" class="st2" width="285.21" height="2.97"/>
<rect x="537.07" y="1209.8" class="st2" width="285.21" height="2.97"/>
<path class="st3" d="M1280.57,916.4l-7.43,28.22c0,0-26.74,59.41,0,62.39c26.74,2.97,28.22-77.25,28.22-77.25L1280.57,916.4z"/>
<path class="st4" d="M1326.62,712.89l-53.48,210.94c0,0,20.8,5.94,31.2,13.36L1326.62,712.89z"/>
<path class="st5" d="M1494.48,873.33l14.85,230.25c0,0,35.65,90.61,34.16,176.78c0,0-13.36,34.16-2.97,40.11
	c10.4,5.94,16.34,10.4,10.4,14.85c-5.94,4.45-10.4,14.85-5.94,17.83c4.45,2.97,5.94,7.43,4.45,7.43h-44.56
	c0,0,8.91-22.29-4.45-28.22c-13.36-5.94-5.94-20.8-5.94-20.8l-99.53-291.16l-78.74,267.39c0,0,13.36,8.91,2.97,13.36
	c-10.4,4.45-14.85-4.45-10.4,4.45c4.45,8.91-1.49,13.36-1.49,14.85c0,1.49-44.56-4.45-44.56-4.45s22.29-19.31,11.89-23.76
	c-10.4-4.45-14.85-8.91-11.89-11.89c2.97-2.97,14.85-31.2,14.85-31.2s5.94-106.95,7.43-111.41c1.49-4.45,0-25.25,0-35.65
	s-1.49-51.99,2.97-62.39c4.45-10.4,8.91-138.15,32.69-153C1344.46,871.84,1494.48,873.33,1494.48,873.33z"/>
<path class="st5" d="M1305.83,1313.04c0,0,29.71,60.9,8.91,68.34c-20.8,7.43-47.54,1.49-53.48,10.4
	c-5.94,8.91-71.3,19.31-72.79-2.97c-1.49-22.29,71.3-63.88,71.3-63.88l9.48-15.27L1305.83,1313.04z"/>
<path class="st5" d="M1546.48,1357.6c0,0,29.71,60.9,8.91,68.34c-20.8,7.43-47.54,1.49-53.48,10.4c-5.94,8.91-71.3,19.31-72.79-2.97
	c-1.49-22.27,71.3-63.88,71.3-63.88l9.48-15.27L1546.48,1357.6z"/>
<circle class="st3" cx="1409.08" cy="544.28" r="49.02"/>
<polygon class="st3" points="1442.5,570.29 1436.56,613.36 1391.98,647.53 1380.11,631.19 1380.11,574.74 "/>
<path class="st0" d="M1372.67,625.25c0,0,46.05,4.45,69.81-11.89l47.54,280.76c0,0-167.86,13.36-175.29,4.45v-87.65l29.71-142.61
	L1372.67,625.25z"/>
<path class="st4" d="M1438.41,599.94l15.98,13.43c0,0,65.36,10.4,60.9,28.23l-17.83,210.94l5.94,71.3c0,0-50.51-13.36-89.14,0
	c-38.62,13.36-7.94-287.3-7.94-287.3S1441.74,604.34,1438.41,599.94z"/>
<path class="st4" d="M1380.11,616.19c0,0-47.54,34.3-53.48,56.58c-5.94,22.29-25.25,256.99-25.25,256.99s8.91-4.45,13.36,2.97
	S1387.53,627.95,1380.11,616.19z"/>
<path class="st3" d="M1510.83,926.8l-10.64,34.74c0,0-2.72,64.78-38.37,55.87c-35.65-8.91,10.4-84.68,10.4-84.68l10.4-16.34
	L1510.83,926.8z"/>
<path class="st5" d="M1360.07,542.15c0,0-5.31-7.96-3.26-16.54c1.22-4.87,1.7-9.89,1.42-14.91c0,0,4.29-13.88,8.57-21.64
	c4.29-7.76,2.24-11.02,15.72-13.47c13.47-2.45,7.96-20.01,43.47-1.02c2.45,3.42,6.72,5.04,10.81,4.08c7.34-1.42,10,8.78,10,8.78
	s4.9-2.86,6.73,1.23c1.84,4.09,14.93-2.45,14.93,25.11s-14.91,52.16-14.91,52.16s1.09-46.35-23.19-51.05
	c-24.29-4.7-50.41-18.38-56.75-0.82C1370.23,523.94,1365.68,533.35,1360.07,542.15z"/>
<ellipse class="st3" cx="1454.12" cy="546.78" rx="4.79" ry="6.38"/>
<path class="st4" d="M1503.41,631.19c0,0,23.76-5.94,31.2,34.16c7.43,40.11,16.34,154.49,16.34,154.49l-35.65,120.33
	c0,0-35.65-19.31-43.08-16.34l28.05-104.47l-23.59-106.48C1476.66,712.89,1497.46,631.19,1503.41,631.19z"/>
<polygon class="st6" points="1468.84,714.93 1500.04,818.91 1468.84,924.38 1486.67,818.91 "/>
</svg>
