<?xml version="1.0" encoding="utf-8"?>
<!-- Generator: Adobe Illustrator 24.0.0, SVG Export Plug-In . SVG Version: 6.00 Build 0)  -->
<svg version="1.1" id="Layer_1" xmlns="http://www.w3.org/2000/svg" xmlns:xlink="http://www.w3.org/1999/xlink" x="0px" y="0px"
	 viewBox="0 0 1600 1000" style="enable-background:new 0 0 1600 1000;" xml:space="preserve">
<style type="text/css">
	.st0{fill:#E6E6E6;}
	.st1{fill:#3F3D56;}
	.st2{fill:#5360DE;}
	.st3{fill:#FFFFFF;}
	.st4{fill:#FFB8B8;}
	.st5{fill:#2F2E41;}
</style>
<ellipse class="st0" cx="1105.2" cy="974.51" rx="56.13" ry="5.85"/>
<ellipse class="st0" cx="1271.26" cy="974.51" rx="56.13" ry="5.85"/>
<ellipse class="st0" cx="1399.9" cy="974.51" rx="38.59" ry="4.02"/>
<path class="st0" d="M1410.94,943.17c-0.27,10.02-1.95,19.95-4.99,29.51c-0.07,0.22-0.14,0.44-0.22,0.66h-18.61
	c0.02-0.2,0.04-0.42,0.06-0.66c1.24-14.26,8.39-101.07-0.16-115.92C1387.78,857.96,1412.38,897.85,1410.94,943.17z"/>
<path class="st0" d="M1409.55,972.67c-0.16,0.22-0.32,0.44-0.48,0.66h-13.96c0.11-0.19,0.23-0.41,0.37-0.66
	c2.31-4.16,9.13-16.61,15.47-29.51c6.81-13.86,13.06-28.25,12.53-33.46C1423.63,910.89,1428.34,946.69,1409.55,972.67z"/>
<path class="st0" d="M1019.54,654.25H171.72c-5.63-0.01-10.2-4.57-10.21-10.21V104.66c0.01-5.63,4.57-10.2,10.21-10.2h847.83
	c5.63,0.01,10.2,4.57,10.21,10.2v539.39C1029.74,649.68,1025.18,654.25,1019.54,654.25z M171.72,98.49c-3.4,0-6.16,2.76-6.17,6.17
	v539.39c0,3.4,2.76,6.16,6.17,6.17h847.83c3.4,0,6.16-2.76,6.17-6.17V104.66c0-3.4-2.76-6.16-6.17-6.17L171.72,98.49z"/>
<path class="st1" d="M799.94,173.97H350.73c-4.59,0-8.32,3.73-8.32,8.32v384.12c0,4.59,3.73,8.32,8.32,8.32h449.21
	c4.59,0,8.32-3.73,8.32-8.32V182.29C808.26,177.7,804.53,173.98,799.94,173.97z M804.93,566.41c0,2.76-2.23,4.99-4.99,5H350.73
	c-2.76,0-4.99-2.24-4.99-5V182.29c0-2.76,2.23-5,4.99-5h449.21c2.76,0.01,4.99,2.25,4.99,5V566.41z"/>
<path class="st2" d="M454.42,506.43c0,0.59-0.02,1.18-0.05,1.76c-0.98,18.69-16.92,33.05-35.61,32.07
	c-17.32-0.91-31.17-14.75-32.07-32.07c-0.03-0.58-0.05-1.17-0.05-1.76c0-18.71,15.17-33.88,33.88-33.88S454.42,487.72,454.42,506.43
	z"/>
<path class="st2" d="M765.03,483.84H498.78c-3.12,0.01-5.64,2.54-5.64,5.66c0.01,3.11,2.53,5.63,5.64,5.64h266.25
	c3.12-0.01,5.64-2.54,5.64-5.66C770.66,486.36,768.14,483.84,765.03,483.84z"/>
<path class="st0" d="M613.35,517.73H498.78c-3.12,0.01-5.64,2.53-5.63,5.65c0.01,3.11,2.52,5.63,5.63,5.63h114.57
	c3.12,0.01,5.65-2.52,5.65-5.63c0.01-3.12-2.52-5.65-5.63-5.65C613.36,517.73,613.36,517.73,613.35,517.73z"/>
<path class="st2" d="M906.66,441.93h-449.2c-5.24-0.01-9.48-4.25-9.49-9.49V235.3c0.01-5.24,4.25-9.48,9.49-9.49h449.2
	c5.24,0.01,9.48,4.25,9.49,9.49v197.13C916.14,437.68,911.9,441.92,906.66,441.93z"/>
<path class="st3" d="M548.94,295.7c-3.12,0-5.64,2.53-5.64,5.65c0,3.11,2.53,5.64,5.64,5.64h266.24c3.12,0,5.64-2.53,5.64-5.65
	c0-3.11-2.53-5.64-5.64-5.64H548.94z"/>
<path class="st3" d="M548.94,328.42c-3.12,0.01-5.64,2.54-5.63,5.66c0.01,3.11,2.53,5.63,5.63,5.63h266.24
	c3.12,0,5.65-2.53,5.65-5.65s-2.53-5.65-5.65-5.65l0,0L548.94,328.42z"/>
<path class="st3" d="M548.94,360.75c-3.12,0-5.65,2.53-5.65,5.65s2.53,5.65,5.65,5.65l0,0H663.5c3.12,0,5.65-2.53,5.65-5.65
	s-2.53-5.65-5.65-5.65H548.94z"/>
<circle class="st2" cx="197.74" cy="123.17" r="7.02"/>
<circle class="st2" cx="222.29" cy="123.17" r="7.02"/>
<circle class="st2" cx="246.85" cy="123.17" r="7.02"/>
<path class="st4" d="M1199.59,683.56l-5.75,31.89c-1.61,8.95,4.33,17.52,13.29,19.14c1.71,0.31,3.46,0.34,5.19,0.11l0,0
	c9.01-1.25,15.3-9.57,14.05-18.58c-0.07-0.49-0.16-0.98-0.27-1.47l-7.3-31.36l26.09-84.48l-6.01-90.42l-37.38,12.92l16.9,69.13
	L1199.59,683.56z"/>
<circle class="st4" cx="1184.28" cy="397.51" r="31.26"/>
<path class="st4" d="M1171.14,486.88l61.09-0.95c-13.11-31.72-23.73-61.66-21-82.09l-42.95,6.68
	C1173.36,439.53,1175.83,460.42,1171.14,486.88z"/>
<path class="st2" d="M1122.46,564.19l82.09,15.27c27.67-50.7,42.94-96.48,17.18-125.99l-48.68-2.86
	c-31.1,33.26-57.41,65.54-39.54,88.77L1122.46,564.19z"/>
<path class="st2" d="M1195.56,524.38c18.79,7.19,36.22,0.94,52.23-19.54l-23.72-45.76l-30.22,5.99L1195.56,524.38z"/>
<path class="st5" d="M1114.83,944.08l32.45-1.67l21-219.77l106.9,218.58l33.41-0.95l-63.95-191.85
	c-2.52-64.01-5.16-127.85-32.45-155.58l-9.54-20.04l-76.36-16.23l-10.5,20.04C1091.44,633.44,1105.73,795.86,1114.83,944.08z"/>
<path class="st5" d="M1096.41,976.83l37.88,3.63c8.44,0.81,15.93-5.37,16.74-13.81c0.1-1.03,0.09-2.06-0.02-3.09l-2.78-26.17
	c-10.5,2.73-21.7,2.09-33.41-0.95l-14.32,12.41l-6.79,2.12c-5.13,1.6-8.79,6.15-9.26,11.51l0,0
	C1083.84,969.73,1089.17,976.14,1096.41,976.83z"/>
<path class="st5" d="M1256.77,976.83l37.88,3.63c8.44,0.81,15.93-5.37,16.74-13.81c0.1-1.03,0.09-2.06-0.02-3.09l-2.78-26.17
	c-10.5,2.73-21.7,2.09-33.41-0.95l-14.32,12.41l-6.79,2.12c-5.13,1.6-8.79,6.15-9.26,11.51l0,0
	C1244.19,969.73,1249.52,976.14,1256.77,976.83z"/>
<path class="st2" d="M1147.28,504.06c13.37,15.03,31.72,17.5,55.36,6.68V459.2l-29.59-8.59L1147.28,504.06z"/>
<path class="st4" d="M1077.6,647.23l-19.78,25.66c-5.55,7.21-4.21,17.55,2.99,23.1c1.38,1.06,2.92,1.9,4.56,2.48l0,0
	c8.58,3.04,17.99-1.45,21.03-10.03c0.17-0.47,0.31-0.95,0.43-1.43l7.95-31.2l62.04-63l36.27-83.04l-39.13-5.73l-26.73,72.54
	L1077.6,647.23z"/>
<path class="st5" d="M1172.33,351.39c14.35-7.22,31.51-9.37,46.77-4.33c15.26,5.03,28.17,17.65,32.07,33.24
	c2.95,11.78,0.82,24.14-0.22,36.24c-1.04,12.1-0.71,25.18,6.27,35.12c4.37,6.23,10.9,10.55,17.33,14.62s13.06,8.15,17.82,14.1
	s7.32,14.26,4.45,21.31c-3.66,9-14.21,12.67-23.56,15.31c-13.33,3.76-26.84,7.56-40.69,7.83c-13.85,0.28-28.31-3.35-38.48-12.75
	c-13.84-12.78-17.16-33.69-14.54-52.35c2.62-18.66,10.22-36.21,15-54.44c1.85-7.04,2.92-15.54-2.2-20.71
	c-5.2-5.26-14.02-4.23-20.5-7.8c-7.59-4.19-10.35-13.74-6.16-21.33c2.22-4.02,6.08-6.87,10.58-7.79"/>
</svg>
