<?xml version="1.0" encoding="utf-8"?>
<!-- Generator: Adobe Illustrator 24.0.0, SVG Export Plug-In . SVG Version: 6.00 Build 0)  -->
<svg version="1.1" id="Layer_1" xmlns="http://www.w3.org/2000/svg" xmlns:xlink="http://www.w3.org/1999/xlink" x="0px" y="0px"
	 viewBox="0 0 1600 1000" style="enable-background:new 0 0 1600 1000;" xml:space="preserve">
<style type="text/css">
	.st0{fill:#3F3D56;}
	.st1{opacity:0.1;enable-background:new    ;}
	.st2{fill:#5360DE;}
	.st3{fill:#2F2E41;}
	.st4{fill:#FFB9B9;}
	.st5{opacity:0.15;enable-background:new    ;}
	.st6{fill:#FFFFFF;}
</style>
<path class="st0" d="M1247.67,251.29H857.21v-8.05H680.17v8.05H288.1c-14.59,0-26.41,11.82-26.41,26.41v0v534.65
	c0,14.59,11.82,26.41,26.41,26.41h959.56c14.59,0,26.41-11.82,26.41-26.41V277.71C1274.08,263.12,1262.25,251.29,1247.67,251.29
	L1247.67,251.29z"/>
<rect x="297.1" y="297.97" class="st1" width="941.57" height="531.14"/>
<circle class="st2" cx="767.08" cy="273.83" r="9.66"/>
<path class="st0" d="M1300.52,819.45h-91.89v-6.62c0-0.72-0.59-1.31-1.31-1.31l0,0h-31.51c-0.72,0-1.31,0.59-1.31,1.31l0,0v6.62
	h-19.69v-6.62c0-0.72-0.59-1.31-1.31-1.31l0,0h-31.51c-0.72,0-1.31,0.59-1.31,1.31l0,0v6.62h-19.69v-6.62
	c0-0.72-0.59-1.31-1.31-1.31l0,0h-31.51c-0.72,0-1.31,0.59-1.31,1.31l0,0v6.62h-19.69v-6.62c0-0.72-0.59-1.31-1.31-1.31l0,0h-31.51
	c-0.72,0-1.31,0.59-1.31,1.31l0,0v6.62h-19.69v-6.62c0-0.72-0.59-1.31-1.31-1.31l0,0h-31.51c-0.73,0-1.31,0.59-1.31,1.31l0,0v6.62
	h-19.69v-6.62c0-0.72-0.59-1.31-1.31-1.31l0,0H906.7c-0.73,0-1.31,0.59-1.31,1.31l0,0v6.62h-19.69v-6.62c0-0.72-0.59-1.31-1.31-1.31
	l0,0H637.59c-0.72,0-1.31,0.59-1.31,1.31l0,0v6.62h-19.69v-6.62c0-0.72-0.59-1.31-1.31-1.31l0,0h-31.51c-0.72,0-1.31,0.59-1.31,1.31
	v0v6.62h-19.69v-6.62c0-0.72-0.59-1.31-1.31-1.31h0h-31.51c-0.72,0-1.31,0.59-1.31,1.31l0,0v6.62h-19.69v-6.62
	c0-0.72-0.59-1.31-1.31-1.31h0h-31.51c-0.72,0-1.31,0.59-1.31,1.31l0,0v6.62h-19.69v-6.62c0-0.72-0.59-1.31-1.31-1.31h0H422.3
	c-0.72,0-1.31,0.59-1.31,1.31l0,0v6.62H401.3v-6.62c0-0.72-0.59-1.31-1.31-1.31h0h-31.51c-0.72,0-1.31,0.59-1.31,1.31l0,0v6.62
	h-19.69v-6.62c0-0.72-0.59-1.31-1.31-1.31h0h-31.51c-0.72,0-1.31,0.59-1.31,1.31l0,0v6.62h-60.39c-17.4,0-31.51,14.11-31.51,31.51
	v14.25c0,17.4,14.11,31.51,31.51,31.51h1047.55c17.4,0,31.51-14.11,31.51-31.51v-14.25
	C1332.02,833.56,1317.92,819.45,1300.52,819.45z"/>
<rect x="577.45" y="358.26" class="st2" width="381.19" height="400.7"/>
<path class="st3" d="M779.06,341.62c0,0-32.5-11.61-53.4,34.83c-20.9,46.43-53.4,97.51-53.4,97.51l18.57,4.64
	c0,0,4.64-32.5,16.25-37.15l-4.64,41.79c0,0,139.3,48.76,201.99-4.64l-2.32-16.25c0,0,9.29,2.32,9.29,16.25l6.97-6.97
	c0,0-6.97-13.93-27.86-32.5c-13.71-12.19-18.43-35.38-20.05-49.88c-1.21-12.11-6.06-23.57-13.9-32.87
	C842.68,340.28,817.37,323.18,779.06,341.62z"/>
<path class="st4" d="M599.46,385.43l-13.51-141.07c0,0-27.01-76.54,13.51-70.54c40.52,6,16.51,64.53,16.51,64.53l22.51,147.07
	H599.46z"/>
<circle class="st4" cx="796.05" cy="436.46" r="54.03"/>
<path class="st4" d="M757.04,460.47c0,0-3,61.53-18.01,66.03c-15.01,4.5-57.03,54.03-37.52,69.04c19.51,15.01,132.07,4.5,132.07,4.5
	L823.07,522c0,0-24.01-16.51-4.5-45.02L757.04,460.47z"/>
<path class="st0" d="M869.69,761.96H657.49c0.77-13.58,2.69-32.76,5.15-53.85c0.75-6.39,1.55-12.98,2.37-19.63
	c7.28-58.6,16.99-122.96,16.99-122.96l2.55-5.9l25.96-60.14l0.27,0.11l34.25,13.4l1.22,5.76l9.29,43.76l60.11-48.52l55.45-8.67
	l3.75-0.59l6.75,63.78c0,0-0.3,14.26-0.62,34.56c-0.36,23.34-0.75,54.67-0.72,81.52c0.02,12.83,0.12,24.64,0.38,34.07
	c0.21,7.94,0.53,14.2,0.96,17.93C882.6,745.13,877.26,753.96,869.69,761.96z"/>
<polygon class="st0" points="712.01,506.99 710.51,497.99 668.49,446.96 644.48,361.42 585.95,383.93 627.97,487.48 688,564.02 "/>
<path class="st3" d="M725.08,442.92c0,0,18.57-25.54,34.83-30.18s18.57-27.86,18.57-27.86s41.79,46.43,67.33,48.76
	c25.54,2.32,2.32-55.72,2.32-55.72l-46.43-11.61l-44.11,4.64l-34.83,23.22L725.08,442.92z"/>
<path class="st4" d="M874.6,710.94l-143.58,5.7c0,0-79.12,18.11-68.54-21.46c10.58-39.57,65.99-9.04,65.99-9.04l148.68-5.6
	L874.6,710.94z"/>
<path class="st0" d="M858.34,515.25l13.51-10.51c0,0,22.51-12.01,27.01,30.02c4.5,42.02,37.52,181.59,4.5,183.09
	c-33.02,1.5-117.06,3-117.06,3l9-46.52l69.04-4.5L858.34,515.25z"/>
<polygon class="st5" points="862.84,579.78 858.34,665.33 792.3,678.83 852.33,654.82 "/>
<rect x="434.41" y="101.63" class="st2" width="366.19" height="96.05"/>
<rect x="3.85" y="895.37" class="st0" width="1592.31" height="3"/>
<path class="st2" d="M1441.51,790.52c21.57,23.15,22.69,57.18,22.69,57.18s-33.86-3.51-55.44-26.66s-22.69-57.18-22.69-57.18
	S1419.94,767.37,1441.51,790.52z"/>
<path class="st2" d="M1509.43,826.66c-23.15,21.57-57.18,22.69-57.18,22.69s3.51-33.86,26.66-55.44s57.18-22.69,57.18-22.69
	S1532.58,805.08,1509.43,826.66z"/>
<path class="st0" d="M1503.68,895.37h-85.15c-3.33,0-6.37-1.9-7.83-4.9l-18.54-38.11c-2.1-4.33-0.3-9.54,4.02-11.64
	c1.19-0.58,2.49-0.88,3.81-0.88h122.23c4.81,0,8.71,3.9,8.71,8.71c0,1.32-0.3,2.62-0.88,3.81l-18.54,38.11
	C1510.05,893.47,1507.01,895.37,1503.68,895.37z"/>
<path class="st2" d="M95.33,790.52c21.57,23.15,22.69,57.18,22.69,57.18s-33.86-3.51-55.44-26.66s-22.69-57.18-22.69-57.18
	S73.75,767.37,95.33,790.52z"/>
<path class="st0" d="M143.99,895.37H58.83c-3.33,0-6.37-1.9-7.83-4.9l-18.54-38.11c-2.1-4.33-0.3-9.54,4.02-11.64
	c1.19-0.58,2.49-0.88,3.81-0.88h122.23c4.81,0,8.71,3.9,8.71,8.71c0,1.32-0.3,2.62-0.88,3.81l-18.54,38.11
	C150.36,893.47,147.32,895.37,143.99,895.37z"/>
<rect x="480.94" y="140.23" class="st6" width="273.14" height="18.84"/>
</svg>
