<?xml version="1.0" encoding="utf-8"?>
<!-- Generator: Adobe Illustrator 24.0.0, SVG Export Plug-In . SVG Version: 6.00 Build 0)  -->
<svg version="1.1" id="Layer_1" xmlns="http://www.w3.org/2000/svg" xmlns:xlink="http://www.w3.org/1999/xlink" x="0px" y="0px"
	 viewBox="0 0 1600 1000" style="enable-background:new 0 0 1600 1000;" xml:space="preserve">
<style type="text/css">
	.st0{fill:#5360DE;}
	.st1{fill:#3F3D56;}
	.st2{fill:#F2F2F2;}
	.st3{fill:#FFB9B9;}
	.st4{fill:#2F2E41;}
	.st5{opacity:0.1;enable-background:new    ;}
	.st6{fill:#575A89;}
</style>
<path class="st0" d="M259.18,446.19c0,18.21-10.08,31.8-24.92,31.8c-5,0-9.68-2.72-11.28-5.78c0,0-2.68,10.69-3.26,12.76
	c-1.05,3.47-2.58,6.76-4.56,9.8c-0.89-0.45-3.23-1.44-5.51-2.37c-0.16-3.4,0.12-6.81,0.82-10.15c0.88-3.77,5.93-25.3,5.93-25.3
	c-1.01-2.31-1.51-4.81-1.48-7.33c0-6.87,3.96-12.01,8.9-12.01c4.21,0,6.23,3.17,6.23,6.96c0,4.24-2.71,10.59-4.09,16.47
	c-0.97,3.84,1.35,7.74,5.19,8.71c0.69,0.18,1.41,0.25,2.12,0.21c8.73,0,14.63-11.28,14.63-24.66c0-10.18-6.81-17.78-19.21-17.78
	c-14,0-22.74,10.51-22.74,22.23c-0.14,3.3,0.95,6.54,3.05,9.09c0.75,0.63,1.02,1.68,0.66,2.59c-0.22,0.85-0.72,2.9-0.95,3.73
	c-0.13,0.87-0.94,1.46-1.81,1.33c-0.17-0.03-0.34-0.08-0.49-0.16c-6.45-2.66-9.46-9.74-9.46-17.74c0-13.18,11.07-28.98,33-28.98
	C247.57,419.61,259.18,432.43,259.18,446.19z"/>
<path class="st0" d="M1377.58,173.14h-30.4c-11.63-0.06-21.13,9.28-21.27,20.91v29.87c0.14,11.63,9.64,20.97,21.27,20.9h30.4
	c11.63,0.07,21.13-9.27,21.27-20.9v-29.87C1398.72,182.42,1389.22,173.08,1377.58,173.14z M1362.38,220.94
	c-6.6-0.11-11.86-5.56-11.74-12.16c0.11-6.6,5.56-11.86,12.16-11.74c6.52,0.11,11.74,5.43,11.75,11.94
	C1374.48,215.64,1369.04,220.99,1362.38,220.94L1362.38,220.94z M1382.14,194.06c-2.47-0.04-4.44-2.08-4.4-4.56
	c0.04-2.47,2.08-4.44,4.56-4.4c2.44,0.04,4.4,2.04,4.4,4.48c-0.02,2.49-2.05,4.5-4.54,4.48
	C1382.15,194.06,1382.15,194.06,1382.14,194.06L1382.14,194.06z"/>
<path class="st1" d="M837.44,925.64H495.55c-7.7,0.02-15.25-2.15-21.75-6.26c-10.6-6.6-17.1-18.17-17.22-30.66V91.5
	c0-20.37,17.48-36.95,38.97-36.95h80.35v7.33c0,15.65,13.47,28.38,30.03,28.38H719.2c6.37,0.04,12.6-1.9,17.83-5.55
	c7.52-5.19,12.06-13.7,12.2-22.83v-7.33h88.21c21.49,0,38.97,16.58,38.97,36.95v797.22c-0.06,10.97-5.11,21.32-13.72,28.12
	C855.53,922.57,846.62,925.68,837.44,925.64z M495.55,56.79c-20.25,0-36.72,15.57-36.72,34.7v797.22
	c0.12,11.72,6.22,22.58,16.18,28.77c6.15,3.88,13.27,5.93,20.55,5.91h341.89c8.66,0.03,17.07-2.9,23.84-8.31
	c8.08-6.37,12.82-16.08,12.89-26.37V91.5c0-19.14-16.47-34.7-36.72-34.7h-85.96v5.09c-0.14,9.87-5.05,19.07-13.17,24.68
	c-5.6,3.91-12.28,5.99-19.11,5.95H605.93c-17.8,0-32.28-13.74-32.28-30.63v-5.09L495.55,56.79z"/>
<path class="st2" d="M848.67,122.31v727.63c-0.02,18.05-14.65,32.67-32.7,32.68h-295.4c-18.03,0.03-32.67-14.56-32.7-32.59
	c0-0.03,0-0.06,0-0.09V122.31c0-18.06,14.64-32.7,32.69-32.7c0,0,0,0,0.01,0h44.21v5.67c0,14.87,12.05,26.93,26.92,26.93h150.24
	c5.75,0.01,11.35-1.83,15.96-5.25c0.93-0.68,1.82-1.42,2.65-2.22c5.31-5.07,8.32-12.11,8.31-19.45v-5.67h47.11
	c18.05-0.01,32.69,14.63,32.7,32.68C848.67,122.3,848.67,122.31,848.67,122.31z"/>
<path class="st1" d="M767.49,673.95H570.06V461.38h197.43V673.95z M572.59,671.42h192.37V463.92H572.59V671.42z"/>
<rect x="595.95" y="243.58" class="st1" width="129.62" height="2.53"/>
<rect x="595.95" y="278.04" class="st1" width="129.62" height="2.53"/>
<rect x="595.95" y="312.49" class="st1" width="129.62" height="2.53"/>
<path class="st1" d="M556.91,925.94l-1.2-0.45c-0.26-0.1-26.61-10.19-38.96-33.09c-12.34-22.89-6.3-50.45-6.24-50.73l0.28-1.26
	l1.2,0.45c0.26,0.1,26.61,10.19,38.96,33.09c12.34,22.89,6.3,50.45,6.24,50.73L556.91,925.94z M518.73,891.34
	c10.44,19.35,31.26,29.28,36.53,31.54c1-5.65,4.15-28.52-6.28-47.86c-10.43-19.33-31.26-29.27-36.53-31.54
	C511.44,849.14,508.3,872,518.73,891.34L518.73,891.34z"/>
<path class="st0" d="M526.18,884.37c22.18,13.35,30.73,39.85,30.73,39.85s-27.42,4.87-49.6-8.47
	c-22.18-13.35-30.73-39.85-30.73-39.85S504,871.03,526.18,884.37z"/>
<polygon class="st3" points="774.82,906 741.14,903.75 752.37,954.27 790.54,938.55 "/>
<polygon class="st4" points="1083.52,811.7 1004.94,735.37 960.04,770.17 871.36,876.81 881.46,892.53 989.23,819.56 
	1062.19,914.98 1131.79,880.18 "/>
<polygon class="st5" points="1083.52,811.7 1004.94,735.37 960.04,770.17 871.36,876.81 881.46,892.53 989.23,819.56 
	1062.19,914.98 1131.79,880.18 "/>
<path class="st3" d="M1090.26,862.22l-10.1,7.86l-81.95-28.06l-19.08-7.86l-38.17,7.86c0,0,0-31.43,35.92-30.31l37.04,8.98
	l43.78,3.37L1090.26,862.22z"/>
<polygon class="st4" points="1163.22,945.29 1138.53,961 1109.34,961 973.51,910.49 774.82,946.41 769.21,903.75 951.06,824.05 
	1110.46,876.81 "/>
<path class="st3" d="M1003.82,745.47l-16.84,3.37l-3.67-4.28c-5.94-6.93-7.15-16.74-3.07-24.91l0,0l47.15-61.74
	c0,0,13.47-30.31,34.8-17.96c21.33,12.35-17.96,32.55-17.96,32.55l-23.57,37.04l2.25,19.08L1003.82,745.47z"/>
<circle class="st3" cx="1110.46" cy="628.73" r="43.78"/>
<path class="st3" d="M1090.82,660.72l20.21,48.27l48.27-20.21c0,0-15.72-38.17-15.72-39.29S1090.82,660.72,1090.82,660.72z"/>
<path class="st6" d="M1223.74,803.52c0,26.42-4.16,52.68-12.34,77.8l-3.28,10.08l-15.72,71.84l-16.84,4.49l-12.35-15.72l-24.7-17.96
	l-17.96-29.19l-15.4-25.66l-4.8-8.01l-16.84-84.19l-63.99-35.92l-21.33-3.37l4.49-12.35l19.08-25.82l19.08-2.25l5.61-4.49l4.49,2.25
	l17.96-10.1l5.61,2.25l32.82,3.05l19.94-4.18l28.67-15.39l11.74,1.92l40.41,33.68C1218.45,744.21,1223.74,773.75,1223.74,803.52z"/>
<path class="st4" d="M751.48,923.38c0,0,10.05-17.04,5.81-19.03c-4.25-1.99-22.28-9.92-22.28-9.92l-26.45-8.76
	c0,0-38.16-56.72-39-7.4s27.79,61.18,27.79,61.18s25.53,54.94,39.99,46.18c14.46-8.76,28.93-38.5,28.93-38.5
	S740.19,933.11,751.48,923.38z"/>
<polygon class="st5" points="1211.49,793.74 1168.83,821.81 1105.16,879.21 1100.36,871.2 1086.89,803.85 1090.26,803.85 
	1125.06,739.86 "/>
<polygon class="st6" points="1125.06,733.13 1090.26,797.11 1077.91,797.11 1070.05,819.56 1052.09,824.05 1100.36,876.81 
	1168.83,815.07 1211.49,787.01 "/>
<path class="st4" d="M1076.41,596.18l-4.74,1.83c-3.03-2.05-3.82-6.17-1.77-9.2c0.03-0.04,0.05-0.08,0.08-0.11l-8.77-0.41
	c21.95-29.23,63.44-35.14,92.67-13.19c2.15,1.61,4.2,3.36,6.14,5.22c0.4-1.37,4.75,1.3,6.53,4.01c0.6-2.24,4.68,8.58,6.12,16.22
	c0.67-2.54,3.24,1.56,0.99,5.51c1.43-0.21,2.07,3.44,0.97,5.47c1.56-0.73,1.3,3.62-0.39,6.53c2.23-0.2-17.55,30.5-25.56,48.43
	c-2.33-10.68-4.94-21.93-12.44-29.89c-1.27-1.35-2.67-2.58-4.06-3.81l-7.54-6.65c-8.76-7.73-16.73-17.28-28.41-20.17
	c-8.02-1.99-13.09-2.44-8.72-11.47c-3.95,1.65-7.64,4.1-11.62,5.63C1075.93,598.85,1076.49,597.44,1076.41,596.18z"/>
<circle class="st3" cx="1132.35" cy="633.78" r="7.86"/>
<path class="st0" d="M699.98,544.61c0.04,0.86,0.06,1.75,0.06,2.63c0,26.94-20.5,58-58,58c-11.06,0.02-21.9-3.18-31.17-9.22
	c1.61,0.2,3.23,0.3,4.86,0.3c9.17,0.02,18.08-3.06,25.3-8.72c-8.72-0.17-16.37-5.86-19.04-14.16c1.27,0.24,2.55,0.37,3.84,0.37
	c1.81,0.01,3.61-0.23,5.35-0.71c-9.51-1.92-16.34-10.28-16.34-19.99v-0.24c2.83,1.59,6.01,2.46,9.26,2.55
	c-8.96-5.98-11.73-17.89-6.35-27.22c10.33,12.74,25.6,20.49,41.98,21.3c-0.35-1.53-0.52-3.09-0.52-4.66
	c-0.01-11.24,9.09-20.36,20.34-20.37c5.64-0.01,11.03,2.33,14.89,6.45c4.57-0.9,8.95-2.57,12.95-4.94
	c-1.53,4.72-4.71,8.73-8.96,11.29c4.03-0.49,7.96-1.58,11.68-3.22C707.4,538.15,703.97,541.73,699.98,544.61z"/>
<path class="st1" d="M668.91,653.18c-44.73,0-80.98-36.26-80.98-80.98s36.26-80.98,80.98-80.98c44.73,0,80.98,36.26,80.98,80.98
	c0,0,0,0,0,0C749.84,616.9,713.61,653.13,668.91,653.18z M668.91,493.46c-43.49,0-78.74,35.25-78.74,78.74s35.25,78.74,78.74,78.74
	c43.49,0,78.74-35.25,78.74-78.74c0,0,0,0,0,0C747.6,528.73,712.37,493.51,668.91,493.46z M650.45,613.7
	c-11.28,0.02-22.33-3.24-31.78-9.39l-4.03-2.62l4.77,0.57c1.57,0.19,3.15,0.28,4.73,0.29c7.92,0.03,15.67-2.32,22.23-6.76
	c-7.99-1.29-14.57-6.96-17.03-14.66l-0.58-1.82l1.88,0.38c1.34,0.27,2.71,0.38,4.08,0.35c-7.65-3.51-12.56-11.15-12.57-19.57v-2.17
	l1.67,0.94c1.55,0.87,3.22,1.52,4.96,1.92c-7.03-6.89-8.49-17.66-3.55-26.17l0.82-1.41l1.03,1.26c9.83,12.09,24.19,19.61,39.73,20.8
	c-0.18-1.14-0.27-2.29-0.26-3.44c-0.01-11.86,9.59-21.49,21.45-21.5c5.74-0.01,11.24,2.28,15.28,6.36
	c4.22-0.89,8.27-2.48,11.98-4.69l2.54-1.51l-0.9,2.81c-1.1,3.43-3.04,6.53-5.65,9c2.35-0.56,4.65-1.34,6.86-2.32l3.53-1.56
	l-2.14,3.21c-2.69,4.04-6.05,7.59-9.95,10.49c0.03,0.69,0.04,1.38,0.04,2.08C709.56,583.64,687.45,613.7,650.45,613.7z
	 M623.87,604.78c8.17,4.4,17.31,6.69,26.59,6.67c35.59,0,56.86-28.92,56.86-56.88c0-0.86-0.02-1.73-0.06-2.57l-0.03-0.61l0.49-0.36
	c2.85-2.06,5.41-4.48,7.63-7.21c-2.72,0.91-5.52,1.54-8.37,1.89l-5.25,0.64l4.53-2.72c3.12-1.87,5.66-4.58,7.31-7.82
	c-3.32,1.65-6.85,2.84-10.49,3.55l-0.61,0.12l-0.42-0.45c-7.25-7.76-19.42-8.18-27.19-0.92c-3.9,3.64-6.11,8.74-6.1,14.08
	c-0.01,1.48,0.16,2.95,0.49,4.39l0.35,1.46l-1.5-0.07c-16.11-0.82-31.18-8.2-41.71-20.42c-4.08,8.64-1.22,18.98,6.74,24.28
	l3.22,2.15l-3.87-0.1c-2.77-0.07-5.5-0.69-8.04-1.82c0.72,8.53,6.98,15.57,15.37,17.28l4.66,0.94l-4.59,1.25
	c-2.53,0.69-5.16,0.91-7.77,0.65c2.99,6.95,9.77,11.5,17.34,11.64l3.15,0.06l-2.48,1.94c-7.4,5.84-16.57,9.01-26,8.97
	C624.05,604.79,623.96,604.79,623.87,604.78z"/>
<path class="st1" d="M1374.73,228.79c-7.22-0.12-12.98-6.06-12.86-13.28c0.12-7.22,6.06-12.98,13.28-12.86
	c7.14,0.11,12.86,5.93,12.86,13.07C1387.94,223,1382,228.84,1374.73,228.79z M1374.73,204.9c-5.98,0.11-10.73,5.05-10.62,11.03
	c0.12,5.98,5.05,10.73,11.03,10.62c5.9-0.11,10.62-4.93,10.62-10.82C1385.7,209.69,1380.76,204.85,1374.73,204.9z"/>
<path class="st1" d="M1389.93,246.71h-30.39c-4.31,0-8.44-1.69-11.52-4.71c-3.08-2.97-4.81-7.07-4.8-11.35v-29.87
	c0.01-4.27,1.74-8.36,4.8-11.34c3.06-3.04,7.21-4.73,11.52-4.71h30.39c4.31,0,8.44,1.69,11.52,4.71c3.08,2.97,4.81,7.07,4.8,11.35
	v29.87c-0.01,4.27-1.74,8.36-4.8,11.35C1398.38,245.04,1394.24,246.73,1389.93,246.71z M1359.53,186.98
	c-3.72-0.02-7.3,1.44-9.94,4.06c-2.63,2.56-4.12,6.08-4.13,9.75v29.87c-0.01,3.67,1.48,7.19,4.13,9.74
	c2.65,2.61,6.23,4.07,9.95,4.07h30.39c3.72,0.02,7.3-1.44,9.94-4.06c2.63-2.56,4.12-6.08,4.13-9.75v-29.87
	c0.01-3.67-1.48-7.19-4.13-9.74c-2.65-2.61-6.23-4.07-9.95-4.07L1359.53,186.98z M1374.73,234.77c-10.52-0.17-18.9-8.84-18.73-19.36
	c0.17-10.52,8.84-18.9,19.36-18.73c10.4,0.17,18.73,8.65,18.73,19.04C1393.99,226.32,1385.33,234.84,1374.73,234.77z
	 M1374.73,198.93c-9.28,0.17-16.66,7.83-16.49,17.11c0.17,9.28,7.83,16.66,17.11,16.49c9.16-0.17,16.49-7.64,16.49-16.8
	C1391.75,206.36,1384.09,198.85,1374.73,198.93z M1394.49,201.91c-3.09-0.04-5.57-2.59-5.53-5.68c0.04-3.09,2.59-5.57,5.68-5.53
	c3.06,0.04,5.53,2.54,5.53,5.6C1400.14,199.42,1397.6,201.93,1394.49,201.91z M1394.49,192.95c-1.85,0.04-3.32,1.58-3.28,3.43
	c0.04,1.85,1.58,3.32,3.43,3.28c1.82-0.04,3.28-1.53,3.28-3.36C1397.9,194.43,1396.36,192.93,1394.49,192.95z"/>
<path class="st1" d="M1373.95,288.35c-40.39,0-73.25-32.3-73.25-72s32.86-72,73.25-72c40.39,0,73.25,32.3,73.25,72
	S1414.34,288.35,1373.95,288.35z M1373.95,146.59c-39.15,0-71,31.29-71,69.76c0,38.46,31.85,69.76,71,69.76
	c39.15,0,71-31.29,71-69.76C1444.95,177.89,1413.1,146.59,1373.95,146.59z M1389.93,252.69h-30.39
	c-12.26,0.09-22.28-9.77-22.4-22.03v-29.87c0.12-12.26,10.13-22.12,22.4-22.03h30.39c12.26-0.09,22.28,9.77,22.4,22.03v29.87
	C1412.21,242.92,1402.19,252.77,1389.93,252.69L1389.93,252.69z M1359.53,181c-11.02-0.09-20.04,8.76-20.15,19.78v29.87
	c0.11,11.02,9.13,19.87,20.15,19.78h30.39c11.02,0.09,20.04-8.76,20.15-19.78v-29.87c-0.11-11.02-9.13-19.87-20.15-19.78
	L1359.53,181z"/>
<path class="st1" d="M232.2,534.03c-43.78,0-79.39-35.79-79.39-79.78s35.62-79.78,79.39-79.78s79.39,35.79,79.39,79.78
	S275.97,534.03,232.2,534.03z M232.2,376.72c-42.54,0-77.15,34.78-77.15,77.54s34.61,77.54,77.15,77.54s77.15-34.78,77.15-77.54
	S274.73,376.72,232.2,376.72z M232.66,501.31c-4.54,0-9.05-0.66-13.41-1.95l-1.42-0.42l0.79-1.25c1.96-2.98,3.48-6.23,4.51-9.64
	c0.57-2.04,3.23-12.63,3.25-12.74l0.72-2.86l1.37,2.61c1.33,2.55,5.55,5.18,10.28,5.18c14.01,0,23.8-12.61,23.8-30.68
	c0-12.51-10.51-25.46-28.11-25.46c-21.99,0-31.88,16.29-31.88,27.86c0,8.32,3.19,14.41,8.77,16.69c0.16,0.09,0.35,0.1,0.52,0.05
	c0.15-0.11,0.25-0.28,0.28-0.46c0.12-0.45,0.32-1.24,0.51-2c0.17-0.68,0.33-1.34,0.44-1.73c0.2-0.75,0.21-0.8-0.44-1.58
	c-2.27-2.75-3.45-6.25-3.31-9.81c0-11.32,8.36-23.35,23.86-23.35c12.35,0,20.34,7.42,20.34,18.9c0,14.71-6.77,25.8-15.76,25.8
	c-2.67,0.05-5.22-1.13-6.91-3.2c-1.57-2.01-2.12-4.63-1.48-7.1c0.51-2.18,1.2-4.41,1.86-6.56c1.13-3.66,2.19-7.12,2.19-9.65
	c0-1.37-0.37-5.84-5.1-5.84c-4.36,0-7.78,4.78-7.78,10.89c-0.02,2.35,0.44,4.67,1.37,6.83l0.18,0.36l-0.09,0.4
	c0,0-5.05,21.52-5.94,25.29c-0.71,3.4-0.97,6.88-0.78,10.35l0.07,1.8l-1.64-0.73c-24.02-10.63-34.88-38.73-24.24-62.75
	c7.58-17.12,24.5-28.21,43.23-28.31c26.17,0.06,47.34,21.33,47.28,47.5c0,0.02,0,0.03,0,0.05
	C279.99,479.96,258.84,501.22,232.66,501.31z M221.31,497.6c24.17,6.41,48.96-7.99,55.37-32.16c6.41-24.17-7.99-48.96-32.16-55.37
	c-24.17-6.41-48.96,7.99-55.37,32.16c-5.54,20.88,4.45,42.76,23.84,52.27c-0.07-3.07,0.23-6.13,0.88-9.12
	c0.82-3.48,5.18-22.06,5.85-24.92c-0.96-2.37-1.44-4.9-1.43-7.45c0-7.37,4.4-13.14,10.03-13.14c4.46,0,7.35,3.17,7.35,8.08
	c0,2.87-1.11,6.48-2.29,10.31c-0.65,2.12-1.33,4.31-1.82,6.42c-0.48,1.8-0.09,3.72,1.05,5.2c1.27,1.53,3.16,2.4,5.15,2.35
	c7.7,0,13.51-10.12,13.51-23.55c0-10.27-6.93-16.65-18.09-16.65c-14.04,0-21.61,10.87-21.61,21.11c-0.13,3.04,0.86,6.02,2.79,8.37
	c1,0.91,1.35,2.33,0.89,3.6c-0.1,0.39-0.27,1.04-0.43,1.7c-0.2,0.78-0.4,1.59-0.52,2.04c-0.29,1.46-1.71,2.41-3.17,2.12
	c-0.22-0.04-0.44-0.12-0.65-0.22c-6.36-2.61-10.16-9.63-10.16-18.77c0-14.8,12.76-30.1,34.13-30.1c19,0,30.35,14.08,30.35,27.7
	c0,19.08-10.95,32.92-26.04,32.92c-4.01-0.01-7.87-1.56-10.76-4.33c-0.82,3.27-2.27,9.01-2.69,10.49
	C224.37,491.79,223.03,494.8,221.31,497.6z"/>
<path class="st1" d="M1277.38,451.67c-13.64,0.05-27.16-2.59-39.78-7.79c-35.2-14.67-58.5-46.26-81.04-76.82
	c-12.17-16.49-24.75-33.55-39.13-47.91c-23.03-23.01-49.75-37.88-77.27-42.99c-30.93-5.75-62.44,1.69-84.3,19.88
	c-2.76,2.3-5.37,4.79-7.8,7.45c3.19,0.39,6.37,0.8,9.54,1.24c33.38,4.63,75.24,17.45,85.12,52.31c3.79,13.38,1.09,28.52-7.4,41.55
	c-9.1,13.96-23.59,23.55-38.75,25.67c-2.47,0.34-4.96,0.52-7.46,0.51c-27.31,0-54.21-20.3-62.18-48.2
	c-6.75-23.63,0.06-51.16,16.66-71.35c-20.07-2.29-40.24-3.54-60.44-3.76l0.02-2.25c20.78,0.22,41.52,1.54,62.16,3.94
	c2.79-3.18,5.83-6.14,9.08-8.85c22.37-18.62,54.57-26.23,86.15-20.37c27.97,5.2,55.1,20.28,78.45,43.61
	c14.49,14.48,27.13,31.61,39.35,48.17c23.39,31.7,45.48,61.65,80.1,76.08c34.8,14.51,77.53,7.91,106.33-16.42
	c28.8-24.33,42.46-65.35,33.98-102.09l2.19-0.51c8.66,37.53-5.29,79.45-34.72,104.31C1327.23,443.17,1302.26,451.67,1277.38,451.67z
	 M946.26,305.54c-16.83,19.72-23.84,47.05-17.16,70.42c8.39,29.41,38.53,50.07,67.16,46.08c14.53-2.03,28.43-11.25,37.18-24.67
	c8.14-12.48,10.74-26.95,7.12-39.71c-9.55-33.69-50.55-46.16-83.26-50.69C953.63,306.46,949.95,305.98,946.26,305.54z"/>
<path class="st1" d="M407.36,437.34c-10.08,0.03-20.13-1.05-29.97-3.24c-24.46-5.26-46.44-18.6-62.39-37.88
	c-5.27-6.31-10.06-13.39-14.7-20.23c-7.04-10.39-14.32-21.14-23.26-29.14c-8.9-7.96-20.61-12.14-30.57-10.93
	c-7.33,0.84-13.91,4.88-17.96,11.04l-1.85-1.27c4.41-6.7,11.57-11.1,19.55-12.01c10.73-1.31,22.83,2.99,32.34,11.49
	c9.15,8.18,16.51,19.05,23.63,29.55c4.61,6.8,9.37,13.83,14.56,20.05c30.29,36.27,78.39,48.94,131.99,34.77l0.57,2.17
	C435.61,435.39,421.52,437.28,407.36,437.34z"/>
</svg>
