<?xml version="1.0" encoding="utf-8"?>
<!-- Generator: Adobe Illustrator 24.0.0, SVG Export Plug-In . SVG Version: 6.00 Build 0)  -->
<svg version="1.1" id="Layer_1" xmlns="http://www.w3.org/2000/svg" xmlns:xlink="http://www.w3.org/1999/xlink" x="0px" y="0px"
	 viewBox="0 0 1600 1600" style="enable-background:new 0 0 1600 1600;" xml:space="preserve">
<style type="text/css">
	.st0{fill:#3F3D56;}
	.st1{fill:#5360DE;}
	.st2{fill:#E6E6E6;}
	.st3{fill:#FFB8B8;}
	.st4{fill:#2F2E41;}
	.st5{fill:#FFB9B9;}
	.st6{fill:#575A89;}
	.st7{fill:none;stroke:#3F3D56;stroke-miterlimit:10;}
	.st8{opacity:0.1;enable-background:new    ;}
</style>
<path class="st0" d="M744.06,474.09H372.61c-3.79,0-6.88-3.08-6.88-6.88v-92.14c0-3.79,3.08-6.88,6.88-6.88h371.45
	c3.79,0,6.88,3.08,6.88,6.88v92.14C750.93,471.01,747.86,474.09,744.06,474.09z M372.61,370.95c-2.28,0-4.12,1.84-4.13,4.13v92.14
	c0,2.28,1.84,4.12,4.13,4.13h371.45c2.28,0,4.12-1.84,4.13-4.13v-92.14c0-2.28-1.84-4.12-4.13-4.13H372.61z"/>
<ellipse transform="matrix(0.1602 -0.9871 0.9871 0.1602 -50.8159 775.4855)" class="st1" cx="430.34" cy="417.61" rx="28.02" ry="28.02"/>
<path class="st2" d="M495.04,398.92c-2.58,0-4.66,2.1-4.66,4.67s2.08,4.66,4.66,4.66h220.16c2.58,0,4.66-2.1,4.66-4.67
	s-2.08-4.66-4.66-4.66H495.04z"/>
<path class="st2" d="M495.04,426.95c-2.58,0-4.67,2.1-4.67,4.67c0,2.58,2.1,4.67,4.67,4.67h94.73c2.58,0,4.67-2.08,4.67-4.66
	c0-2.58-2.08-4.67-4.66-4.67h-0.01h-94.73V426.95z"/>
<path class="st0" d="M582.79,802.53H417.71c-3.79,0-6.88-3.08-6.88-6.88V623.72c0-3.79,3.08-6.88,6.88-6.88H582.8
	c3.79,0,6.88,3.08,6.88,6.88v171.94C589.67,799.45,586.6,802.53,582.79,802.53z M417.71,619.6c-2.28,0-4.12,1.84-4.13,4.13v171.94
	c0,2.28,1.84,4.12,4.13,4.13H582.8c2.28,0,4.12-1.84,4.13-4.13V623.72c0-2.28-1.84-4.12-4.13-4.13L417.71,619.6z"/>
<path class="st2" d="M452.89,652.3c-2.58,0-4.66,2.1-4.66,4.67c0,2.58,2.08,4.66,4.66,4.66h94.73c2.58,0,4.66-2.1,4.66-4.67
	c0-2.58-2.08-4.66-4.66-4.66H452.89z"/>
<path class="st2" d="M452.89,679.82c-2.58,0-4.67,2.08-4.67,4.66s2.08,4.67,4.66,4.67h0.01h94.73c2.58,0,4.67-2.1,4.67-4.67
	c0-2.58-2.1-4.67-4.67-4.67h-94.73V679.82z"/>
<path class="st1" d="M500.25,767.08c-16.24,0-29.39-13.17-29.39-29.39c0-16.24,13.17-29.39,29.39-29.39s29.39,13.17,29.39,29.39l0,0
	C529.63,753.91,516.48,767.06,500.25,767.08z"/>
<path class="st0" d="M853.24,231.56h165.09c3.79,0,6.88,3.08,6.88,6.88v171.94c0,3.79-3.08,6.88-6.88,6.88H853.24
	c-3.79,0-6.88-3.08-6.88-6.88V238.44C846.36,234.65,849.45,231.56,853.24,231.56z M1018.34,414.5c2.28,0,4.12-1.84,4.13-4.13V238.44
	c0-2.28-1.84-4.12-4.13-4.13H853.24c-2.28,0-4.12,1.84-4.13,4.13v171.94c0,2.28,1.84,4.12,4.13,4.13h165.09V414.5z"/>
<path class="st2" d="M983.15,381.79c2.58,0,4.67-2.08,4.67-4.66c0-2.58-2.08-4.67-4.66-4.67h-0.01h-94.73
	c-2.58,0-4.67,2.08-4.67,4.66c0,2.58,2.08,4.67,4.66,4.67h0.01H983.15z"/>
<path class="st2" d="M983.15,354.28c2.58,0,4.67-2.08,4.67-4.66c0-2.58-2.08-4.67-4.66-4.67h-0.01h-94.73
	c-2.58,0-4.67,2.08-4.67,4.66c0,2.58,2.08,4.67,4.66,4.67h0.01H983.15z"/>
<path class="st1" d="M935.78,267.02c16.24,0,29.39,13.17,29.39,29.39c0,16.23-13.17,29.39-29.39,29.39
	c-16.24,0-29.39-13.17-29.39-29.39l0,0C906.4,280.18,919.56,267.04,935.78,267.02z"/>
<path class="st0" d="M367.85,587.27c29.21-22.62,63.34-38.05,99.63-45.04c36.57-6.97,74.29-5.04,109.96,5.65
	c17.92,5.34,35.15,12.81,51.32,22.24c16.47,9.62,31.33,21.47,45.64,34.01c14.5,12.71,28.51,25.98,43.66,37.95
	c43.21,34.54,96.85,53.41,152.17,53.53c4.57,0.01,9.13-0.12,13.7-0.37c2.47-0.13,2.49-4,0-3.87
	c-56.39,3.11-112.07-13.72-157.3-47.53c-15.68-11.73-30.01-25.14-44.63-38.14c-14.18-12.6-28.73-24.85-44.81-34.98
	c-80.42-50.67-183.36-48.32-261.39,5.96c-3.63,2.52-7.18,5.16-10.66,7.88C363.15,586.06,365.91,588.78,367.85,587.27L367.85,587.27z
	"/>
<circle class="st0" cx="365.8" cy="585.87" r="20.09"/>
<circle class="st0" cx="1113.16" cy="852.6" r="20.09"/>
<path class="st0" d="M1218.41,738.16h-327.8c-3.79,0-6.88-3.08-6.88-6.88V560.72c0-3.79,3.08-6.88,6.88-6.88h327.8
	c3.79,0,6.88,3.08,6.88,6.88v170.56C1225.28,735.07,1222.21,738.16,1218.41,738.16z M890.61,556.6c-2.28,0-4.12,1.84-4.13,4.13
	v170.56c0,2.28,1.84,4.12,4.13,4.13h327.8c2.28,0,4.12-1.84,4.13-4.13V560.72c0-2.28-1.84-4.12-4.13-4.13h-327.8V556.6z"/>
<circle class="st1" cx="945.58" cy="614.26" r="28.02"/>
<path class="st2" d="M1010.29,595.58c-2.58,0-4.67,2.08-4.67,4.66s2.08,4.67,4.66,4.67h0.01h176.5c2.58,0,4.67-2.1,4.67-4.67
	c0-2.58-2.1-4.67-4.67-4.67l0,0h-176.5V595.58z"/>
<path class="st2" d="M1010.29,623.6c-2.58,0-4.67,2.08-4.67,4.66c0,2.58,2.08,4.67,4.66,4.67h0.01h94.73c2.58,0,4.67-2.1,4.67-4.67
	c0-2.58-2.1-4.67-4.67-4.67h-94.73V623.6z"/>
<path class="st2" d="M924.09,668.4c-3.55,0-6.44,2.1-6.44,4.67c0,2.58,2.89,4.67,6.44,4.67h260.1c3.55,0,6.44-2.1,6.44-4.67
	c0-2.58-2.89-4.67-6.44-4.67H924.09z"/>
<path class="st2" d="M924.09,696.42c-3.55,0-6.44,2.1-6.44,4.67c0,2.58,2.89,4.67,6.44,4.67h260.1c3.55,0,6.44-2.1,6.44-4.67
	c0-2.58-2.89-4.67-6.44-4.67H924.09z"/>
<path class="st0" d="M864.26,871.29c18.49-8.02,39.14-1.02,56.57,6.36c8.97,3.81,17.85,7.88,27.15,10.88
	c7.82,2.52,15.82,4.42,23.94,5.67c16.29,2.49,32.85,2.6,49.17,0.3c16.39-2.29,32.38-6.94,47.45-13.79
	c14.99-6.79,28.84-15.85,41.07-26.85c1.55-1.41,3.08-2.84,4.58-4.31c1.78-1.75-0.95-4.48-2.73-2.73
	c-11.78,11.48-25.3,21.03-40.07,28.28c-14.71,7.23-30.38,12.26-46.55,14.95c-16.21,2.73-32.75,3.02-49.05,0.84
	c-8.13-1.1-16.17-2.84-24.02-5.22c-9.02-2.94-17.86-6.37-26.5-10.3c-17.59-7.55-37.14-14.95-56.47-9.75
	c-2.22,0.61-4.38,1.39-6.48,2.31C860.04,868.94,862,872.28,864.26,871.29L864.26,871.29z"/>
<path class="st1" d="M857.11,918.71H702.24l36.44-63.12c2.06-3.57,6.6-4.78,10.17-2.72c1.13,0.65,2.07,1.59,2.72,2.72l15.56,26.97
	l26.48-45.85c2.58-4.46,8.28-5.99,12.73-3.41c1.42,0.82,2.59,2,3.41,3.41L857.11,918.71z"/>
<path class="st0" d="M857.27,918.69H692.17c-3.79,0-6.88-3.08-6.88-6.88v-92.14c0-3.79,3.08-6.88,6.88-6.88h165.09
	c3.79,0,6.88,3.08,6.88,6.88v92.14C864.13,915.61,861.06,918.69,857.27,918.69z M692.17,815.54c-2.28,0-4.12,1.84-4.13,4.13v92.14
	c0,2.28,1.84,4.12,4.13,4.13h165.09c2.28,0,4.12-1.84,4.13-4.13v-92.14c0-2.28-1.84-4.12-4.13-4.13H692.17z"/>
<path class="st3" d="M1181.06,837.6l-29.43,14.94c-10.5,5.34-20.64,4.42-24.53-6.7l0,0c-3.54-10.14,1.82-21.24,11.96-24.78
	c0.93-0.33,1.88-0.58,2.84-0.76l27.97-5.22l119.78-39.74l72.55-51.45l26.6,42.38l-83.84,45.23L1181.06,837.6z"/>
<polygon class="st3" points="1318.43,1333.6 1295.92,1329.84 1298.41,1287.32 1322.18,1287.32 "/>
<polygon class="st3" points="1536.94,1292.05 1515.15,1298.86 1498.22,1259.77 1519.43,1249.06 "/>
<path class="st4" d="M1524.81,1254.8l-27.51,11.25l-131.34-172.6l-41.27,202.63l-27.51-5c-17.65-174.69-32.04-352.88-14.38-437.15
	l101.94-4.37L1431,997.15l22.51,100.07L1524.81,1254.8z"/>
<path class="st4" d="M1317.19,1367.99L1317.19,1367.99c-4.12,0.88-8.41,0.42-12.25-1.3l-13.37-6.02
	c-11.22-0.58-18.85,1.66-25.09-6.49c-3.59-4.75-4.31-11.06-1.92-16.49l0,0c2.39-5.46,7.53-9.2,13.46-9.79l18.37-11.58l0.96,8.67
	c8.4,4.76,18.36,2.7,28.92-1.93l5.77,20.18c3,10.49-3.07,21.43-13.56,24.42C1318.05,1367.79,1317.62,1367.9,1317.19,1367.99z"/>
<path class="st4" d="M1545.85,1326.59L1545.85,1326.59c-3.6,2.17-7.82,3.13-12.01,2.75l-14.6-1.35c-10.79,3.1-17.29,7.69-25.84,2.01
	c-4.94-3.32-7.67-9.06-7.17-14.99l0,0c0.48-5.94,4.13-11.14,9.55-13.62l13.61-16.91l3.73,7.89c9.48,1.77,18.25-3.41,26.73-11.21
	l12.01,17.21c6.24,8.95,4.05,21.26-4.9,27.5C1546.61,1326.12,1546.24,1326.36,1545.85,1326.59z"/>
<circle class="st3" cx="1347.2" cy="626.9" r="45.03"/>
<polygon class="st3" points="1402.23,721.95 1343.44,709.45 1335.93,660.68 1377.22,651.92 "/>
<path class="st1" d="M1385.97,855.8h-105.07l23.68-59.46c-1.72-20.45,6.95-35.5,19.36-48.61l15.74-39.52
	c25.44-16.74,44.62-15.49,65.04,6.25C1428.94,748.73,1412.19,800.28,1385.97,855.8z"/>
<path class="st3" d="M1338.44,982.13l-2.99,32.86c-1.07,11.73-7.23,19.83-18.71,17.2l0,0c-10.48-2.4-17.03-12.83-14.64-23.31
	c0.22-0.95,0.51-1.89,0.87-2.81l10.44-26.47l30.02-122.58l-5-88.8h50.03l-6.25,95.06L1338.44,982.13z"/>
<path class="st1" d="M1392.23,770.74h-57.53l4.04-37.54c0.55-13.46,11.26-24.27,24.72-24.95l0,0c14.36-0.72,26.59,10.35,27.31,24.71
	c0,0.1,0.01,0.18,0.01,0.28L1392.23,770.74z"/>
<circle class="st4" cx="1402.92" cy="563.68" r="16.92"/>
<path class="st4" d="M1385.48,559.54c0.58-8.91,7.99-15.84,16.91-15.82c-0.35-0.05-0.7-0.1-1.05-0.12
	c-9.32-0.59-17.37,6.48-17.97,15.82c-0.59,9.32,6.48,17.36,15.79,17.96c0.36,0.02,0.71,0.01,1.06,0.01
	C1391.37,576.27,1384.91,568.45,1385.48,559.54z"/>
<path class="st4" d="M1385.38,566.76c-15.09-12.52-58.39,3.4-61.18,11.82c-20.41,2.78-35.86,14.7-35.86,35.86l0,0
	c12.13,4.98,25.94,4.36,40.86,0c23.78,19.38,25.42,43.75,10.95,71.74l17.79,0.36L1380,654.3l1.06,32.69l40.79-0.82v-46.86
	c0.13-15.58-3.46-30.97-10.46-44.88C1405.02,582.07,1395.17,574.87,1385.38,566.76z"/>
<ellipse class="st3" cx="1347.4" cy="638.22" rx="8.1" ry="11.34"/>
<path class="st5" d="M329.05,652.59c0,0,4.87-84.32,30.16-65.17c25.3,19.17-11.05,72.99-11.05,72.99L329.05,652.59z"/>
<path class="st5" d="M234.95,902.73c0,0,56.18,63.07,24.75,67.41c-31.43,4.34-43.8-59.41-43.8-59.41L234.95,902.73z"/>
<path class="st6" d="M161.63,604.18L161.63,604.18c14.42,3.79,25.15,15.88,27.22,30.63l17.88,127.21l25.06,101.47
	c0,0,12.53,11.28,7.52,17.54c-5.01,6.26,6.26,32.57,6.26,32.57l-31.32,10.02c0,0-3.76-26.31-10.02-27.56
	c-5.51-1.1-67.12-165.71-81.97-205.58c-2.05-5.49-3.2-8.63-3.2-8.63S121.54,597.91,161.63,604.18z"/>
<path class="st5" d="M167.35,1267.53l19.24,34.09c14.9,31.8,1.66,37.58-34.86,21.82l-8.32-40.25L167.35,1267.53z"/>
<path class="st4" d="M177.05,1312.83c0,0,9.13-14.87,12.43-12.38c3.3,2.49,16.92,13.27,16.92,13.27l17.74,17
	c0,0,59.95,6.34,21.85,27.34c-38.1,21.01-59.15,3.59-59.15,3.59s-53.35,2.77-52.5-12.11c0.86-14.89,18.07-38.44,18.07-38.44
	S174.14,1325.64,177.05,1312.83z"/>
<path class="st4" d="M81.99,882.21l18.03,218.21c0,0,0.6,130.45,19.84,155.69c19.24,25.25,19.84,37.87,19.84,37.87l39.67-20.44
	c0,0-20.44-34.05-16.23-39.27c2.59-3.3,4.45-7.13,5.41-11.23l-10.82-134.65l20.44-234.43L81.99,882.21z"/>
<path class="st7" d="M109.64,1293.97"/>
<polygon class="st5" points="131.29,1267.53 114.45,1312 76.28,1296.05 96.41,1262.71 "/>
<path class="st4" d="M103.21,1297.03c0,0,14.31-8.95,16.11-5.37c1.79,3.58,8.95,18.79,8.95,18.79l8.05,22.37
	c0,0,49.21,31.32,7.16,33.1c-42.05,1.79-52.79-22.37-52.79-22.37s-47.43-20.57-40.26-33.1c7.16-12.53,32.21-25.51,32.21-25.51
	S95.15,1306.87,103.21,1297.03z"/>
<path class="st4" d="M234.68,882.81l9.61,200.77c0,0-87.77,181.54-97.38,186.34c-5.79,2.99-10.13,8.19-12.02,14.43l-52.89-13.23
	l24.04-38.48l52.89-128.64c0,0,8.42-3.6,10.82-15.62c2.41-12.02,7.22-12.02-4.81-14.43c-12.02-2.41-12.02-14.43-12.02-14.43
	l-39.67-182.74L234.68,882.81z"/>
<ellipse transform="matrix(0.0825 -0.9966 0.9966 0.0825 -342.3514 667.6129)" class="st5" cx="191.4" cy="519.73" rx="48.09" ry="48.09"/>
<path class="st5" d="M148.72,522.73c0,0-3.6,61.32-8.42,67.33c-4.81,6.01,50.5,4.81,50.5,4.81s-3.6-51.69,0-56.51
	C194.4,533.55,148.72,522.73,148.72,522.73z"/>
<path class="st6" d="M238.28,896.03c0,0-135.86-12.02-161.09,0c0,0,9.29-34.46,6.89-38.07c-1.75-2.64,3.07-100.83,1.55-157.46
	c-0.86-31.96-8.23-63.17,13.2-86.9c7.3-8.06,15.43-14.83,24.02-18.13c0,0-2.4-22.84,9.62-24.04c0,0,45.69-4.82,62.52,9.62
	c5.37,4.58,8.76,18.55,9.12,30.59c-8.32,40.95-5.37,86.37,2.26,133.5c0.47,2.99,0.99,6,1.49,9.01
	C215.99,800.88,228.24,849.08,238.28,896.03z"/>
<path class="st4" d="M166.27,533.9c4.07-0.24,8.03,1.13,12.08,1.66c14.46,1.92,29.48-8.56,32.67-22.79
	c0.25-1.89,0.82-3.73,1.67-5.44c2.23-3.63,7.29-4.32,11.47-3.49c4.18,0.83,8.13,2.79,12.38,3.01c6.57,0.35,12.87-3.7,16.37-9.26
	c3.3-5.75,4.71-12.38,4.01-18.97l-3.14,3.3c-1.28-2.71-1.77-5.71-1.42-8.69c-3.4-0.9-7.01,0.02-9.55,2.45
	c-2.77,0.3-0.69-5.14-2.75-7.02c-1-0.61-2.19-0.84-3.36-0.63c-5.9,0.06-10.68-4.46-15.33-8.1c-8.06-6.29-17.49-10.59-27.51-12.55
	c-6.66-1.3-13.76-1.51-20.08,0.98c-5.11,2.29-9.71,5.55-13.56,9.61c-9.9,9.52-18.66,20.7-22.78,33.8
	c-3.35,10.73-3.45,22.21-0.28,32.99c1.66,5.6,6.66,24.78,13.99,25.22C160.34,550.55,154.83,534.59,166.27,533.9z"/>
<path class="st6" d="M186.18,610.08l17.23,1.84c0,0,16.91,32.81,15.68,39.66c-1.23,6.84-3.9,2.69,3.71,13.64
	c7.61,10.95,29.21,39.26,31.89,43.4c2.67,4.16,75.59-51.49,71.06-68.15c0,0,23.03,16.53,32.9,18.72c0,0-75.14,98.56-85.62,111.17
	c-10.48,12.61-18.9,10.02-33.3,2.54c-14.4-7.48-87.2-82.07-87.2-82.07L186.18,610.08z"/>
<path class="st8" d="M207.88,754.14L148,694.26l15.15-4.94l43.23,55.81C206.85,748.13,207.36,751.14,207.88,754.14z"/>
</svg>
