<?xml version="1.0" encoding="utf-8"?>
<!-- Generator: Adobe Illustrator 24.0.0, SVG Export Plug-In . SVG Version: 6.00 Build 0)  -->
<svg version="1.1" id="Layer_1" xmlns="http://www.w3.org/2000/svg" xmlns:xlink="http://www.w3.org/1999/xlink" x="0px" y="0px"
	 viewBox="0 0 1000 1600" style="enable-background:new 0 0 1000 1600;" xml:space="preserve">
<style type="text/css">
	.st0{fill:#FFB8B8;}
	.st1{fill:#2F2E41;}
	.st2{fill:#3F3D56;}
	.st3{fill:#E6E6E6;}
	.st4{fill:#FFFFFF;}
	.st5{fill:#5360DE;}
</style>
<path class="st0" d="M667.57,727.68c0,0,3.74,50.52,3.74,52.4s-26.2,130.99-26.2,130.99s-37.43,71.11,0,69.24s26.2-67.36,26.2-67.36
	l39.3-108.53l-16.84-76.73H667.57z"/>
<polygon class="st0" points="852.83,1292.82 858.44,1333.98 819.14,1337.73 824.75,1287.2 "/>
<polygon class="st0" points="729.32,1292.82 723.7,1333.98 763,1337.73 757.39,1287.2 "/>
<path class="st1" d="M686.28,907.33l-9.35,13.1c0,0-5.61,56.14,0,74.86c5.61,18.71,16.84,104.79,16.84,110.4
	c0,5.61,1.87,9.35,0,11.23c-1.87,1.87,0,20.58,0,20.58v9.35l24.33,138.48c0,0-14.97,16.84-3.74,16.84c11.23,0,52.4,0,50.52-18.71
	l-3.74-1.87c0,0-5.61-123.51-3.74-129.12c1.87-5.61,3.74-41.17,3.74-41.17l16.84-114.15l31.82,110.4l7.48,164.68
	c0,0-7.48,18.71,0,22.45s39.3,16.84,41.17-1.87s11.23-181.52,11.23-189s-3.76-123.52-3.76-123.52s1.87-18.71,3.74-22.46
	c1.87-3.74-1.87-7.48,0-13.1s-3.74-24.33-3.74-24.33l-84.21-22.45L686.28,907.33z"/>
<path class="st1" d="M751.78,1326.5c0,0,9.35-9.35-3.74-9.35c-8.41,0.17-16.69,2.08-24.33,5.61l-9.35,33.69
	c0,0-38.36,30.88,4.68,27.13c43.04-3.75,49.59-4.68,51.46-8.42c1.31-2.63-1.06-30.14-2.6-46.32c-0.21-2.39-2.32-4.16-4.71-3.95
	c-0.83,0.08-1.63,0.39-2.29,0.9C758.38,1328.12,754.61,1328.41,751.78,1326.5z"/>
<path class="st1" d="M832.24,1326.5c0,0-9.35-9.35,3.74-9.35c8.41,0.17,16.69,2.08,24.33,5.61l9.35,33.69
	c0,0,38.36,30.87-4.68,27.13c-43.04-3.74-55.21-4.68-57.08-8.42c-1.31-2.6,3.75-29.73,6.93-45.95c0.56-2.9,3.38-4.79,6.29-4.23
	c0.82,0.16,1.58,0.51,2.24,1.01C825.87,1328.15,829.5,1328.36,832.24,1326.5z"/>
<path class="st0" d="M693.76,566.75c0,0,7.48,37.43,7.48,43.04s31.82,22.46,31.82,22.46l35.56-44.91c0,0-22.46-31.82-22.46-39.3
	L693.76,566.75z"/>
<path class="st2" d="M721.83,615.41c0,0-16.31-4.34-21.25-11.53c0,0-51.73,50.82-51.73,60.18l41.17,72.98c0,0,0,26.2,3.74,28.07
	c3.74,1.87,0,0,0,7.48s-11.23,56.14-7.48,63.62c3.75,7.48,7.48,1.87,3.74,13.1c-3.74,11.23-13.1,71.11-13.1,71.11
	s33.69-11.23,82.34,7.48c48.65,18.71,106.66-7.48,106.66-7.48s-14.97-33.69-11.23-44.91c3.74-11.23-9.35-31.82-9.35-31.82
	l-9.35-172.16c0,0,13.1-76.73,3.74-80.47l-18.71-7.48l-59.92-7.36C761.09,576.23,746.16,613.54,721.83,615.41z"/>
<path class="st2" d="M667.57,650.96l-18.71,13.1c0,0-9.35,28.07,0,41.17c9.35,13.1,13.1,31.82,13.1,31.82l37.43-3.74L667.57,650.96z
	"/>
<path class="st3" d="M673.57,519.95V349.33c0-54.54-44.21-98.75-98.75-98.75l0,0H213.34c-54.54,0-98.75,44.21-98.75,98.75l0,0
	v936.04c0,54.54,44.21,98.75,98.75,98.75h361.48c54.54,0,98.75-44.21,98.75-98.75V641.4V519.95z"/>
<path class="st4" d="M578.81,276.28h-47.18c7.31,17.91-1.29,38.36-19.21,45.68c-4.2,1.71-8.7,2.6-13.23,2.6H292.1
	c-19.35,0-35.03-15.69-35.03-35.03c0-4.53,0.88-9.03,2.6-13.23h-44.07c-40.73,0-73.74,33.02-73.74,73.74v934.67
	c0,40.73,33.02,73.74,73.74,73.74l0,0h363.22c40.73,0,73.74-33.02,73.74-73.74l0,0l0,0V350.02
	C652.55,309.29,619.54,276.28,578.81,276.28L578.81,276.28z"/>
<path class="st3" d="M626.78,694.03H177.79c-4.59-0.01-8.31-3.72-8.32-8.32V574.34c0.01-4.59,3.72-8.31,8.32-8.32h448.99
	c4.59,0.01,8.31,3.72,8.32,8.32v111.37C635.09,690.31,631.36,694.02,626.78,694.03z M177.79,569.35c-2.76,0-4.99,2.23-4.99,4.99
	v111.37c0,2.76,2.23,4.99,4.99,4.99h448.99c2.76,0,4.99-2.23,4.99-4.99V574.34c0-2.76-2.23-4.99-4.99-4.99L177.79,569.35z"/>
<ellipse transform="matrix(0.9951 -0.0985 0.0985 0.9951 -60.4344 27.4258)" class="st3" cx="247.53" cy="625.75" rx="33.87" ry="33.87"/>
<path class="st3" d="M325.77,603.17c-3.12,0.01-5.64,2.54-5.64,5.65c0.01,3.11,2.53,5.63,5.64,5.64h266.11
	c3.12,0.01,5.65-2.52,5.65-5.64c0.01-3.12-2.52-5.65-5.64-5.65c-0.01,0-0.02,0-0.03,0H325.77z"/>
<path class="st3" d="M325.77,637.05c-3.12,0-5.65,2.53-5.65,5.65c0,3.12,2.53,5.65,5.65,5.65h114.51c3.12,0,5.65-2.53,5.65-5.65
	c0-3.12-2.53-5.65-5.65-5.65l0,0H325.77z"/>
<path class="st3" d="M626.78,1055.37H177.79c-4.59-0.01-8.31-3.72-8.32-8.32V935.68c0.01-4.59,3.72-8.31,8.32-8.32h448.99
	c4.59,0.01,8.31,3.72,8.32,8.32v111.37C635.09,1051.65,631.36,1055.37,626.78,1055.37z M177.79,930.7c-2.76,0-4.99,2.23-4.99,4.99
	v111.37c0,2.76,2.23,4.99,4.99,4.99h448.99c2.76,0,4.99-2.23,4.99-4.99V935.68c0-2.76-2.23-4.99-4.99-4.99H177.79z"/>
<ellipse transform="matrix(0.9985 -0.0553 0.0553 0.9985 -54.2076 15.2)" class="st3" cx="247.56" cy="987.12" rx="33.87" ry="33.87"/>
<path class="st3" d="M325.77,964.52c-3.12,0-5.65,2.53-5.65,5.65c0,3.12,2.53,5.65,5.65,5.65h266.11c3.12,0,5.65-2.53,5.65-5.65
	c0-3.12-2.53-5.65-5.65-5.65l0,0H325.77z"/>
<path class="st3" d="M325.77,998.39c-3.12,0-5.65,2.53-5.65,5.65c0,3.12,2.53,5.65,5.65,5.65l0,0h114.51c3.12,0,5.65-2.53,5.65-5.65
	c0-3.12-2.53-5.65-5.65-5.65H325.77z"/>
<path class="st5" d="M631.97,765.92V877.3c0,4.58-3.72,8.31-8.3,8.32H393.23V759.76h236C630.97,761.33,631.97,763.57,631.97,765.92z
	"/>
<rect x="511.04" y="757.6" class="st4" width="3.12" height="124.68"/>
<path class="st3" d="M629.23,759.77c-1.52-1.4-3.5-2.17-5.56-2.17H174.68c-4.59,0.01-8.31,3.72-8.32,8.32V877.3
	c0.01,4.59,3.72,8.31,8.32,8.32h448.99c4.58-0.01,8.3-3.73,8.3-8.32V765.92C631.97,763.57,630.97,761.33,629.23,759.77z
	 M628.65,877.29c-0.01,2.75-2.23,4.98-4.99,4.99H174.68c-2.76,0-4.98-2.23-4.99-4.99V765.92c0-2.75,2.22-4.98,4.97-4.99h0.01h448.99
	c2.76,0,4.98,2.23,4.99,4.99V877.29z"/>
<path class="st3" d="M317.77,816.55H210.51c-3.12,0-5.65,2.53-5.65,5.65c0,3.12,2.53,5.65,5.65,5.65h107.25
	c3.12,0,5.65-2.53,5.65-5.65C323.41,819.08,320.88,816.55,317.77,816.55z"/>
<path class="st4" d="M446.83,809.17c-4.19-3.29-10.2-2.85-13.84,1.04c-3.77,4.22-3.54,10.67,0.52,14.62l13.13,13.13
	c0.61,0.61,1.59,0.61,2.2,0l13.13-13.13c4.06-3.94,4.3-10.39,0.52-14.62c-3.65-3.88-9.66-4.33-13.84-1.04
	C448.12,809.58,447.37,809.58,446.83,809.17z"/>
<path class="st4" d="M583.59,839.04h-19.37c-0.72,0-1.34-0.49-1.51-1.18l-5.45-21.81c-0.21-0.83,0.29-1.68,1.13-1.89
	c0.13-0.03,0.25-0.05,0.38-0.05h30.27c0.86,0,1.56,0.7,1.56,1.56c0,0.13-0.02,0.25-0.05,0.38l-5.45,21.81
	C584.93,838.56,584.3,839.04,583.59,839.04z"/>
<path class="st5" d="M573.9,821.13c-0.43,0-0.78,0.35-0.78,0.78v10.9c0,0.43,0.35,0.78,0.78,0.78s0.78-0.35,0.78-0.78v-10.9
	C574.68,821.48,574.33,821.13,573.9,821.13z"/>
<path class="st5" d="M579.47,832.6c-0.12,0.41,0.13,0.84,0.54,0.96c0.41,0.12,0.84-0.13,0.96-0.54l2.94-10.5
	c0.11-0.41-0.13-0.84-0.55-0.96c-0.41-0.11-0.83,0.13-0.95,0.54L579.47,832.6z"/>
<path class="st5" d="M564.64,821.53c-0.07,0-0.14,0.01-0.21,0.03c-0.41,0.12-0.66,0.55-0.54,0.96l2.94,10.5
	c0.12,0.41,0.55,0.66,0.96,0.54s0.66-0.55,0.54-0.96l0,0l-2.94-10.5C565.3,821.77,565,821.54,564.64,821.53z"/>
<path class="st4" d="M587.92,811.01h-10.9v-1.56c0-1.72-1.4-3.12-3.12-3.12c-1.72,0-3.12,1.4-3.12,3.12v1.56h-10.9
	c-0.43,0-0.78,0.35-0.78,0.78c0,0.43,0.35,0.78,0.78,0.78h28.03c0.43,0,0.78-0.35,0.78-0.78
	C588.68,811.35,588.35,811.01,587.92,811.01z"/>
<circle class="st0" cx="710.61" cy="531.2" r="48.65"/>
<path class="st1" d="M673.46,479.78l-8.44-3.38c0,0,17.64-19.43,42.2-17.74l-6.91-7.6c0,0,16.88-6.76,32.22,10.98
	c8.06,9.33,17.4,20.28,23.21,32.63h9.04l-3.77,8.31l13.2,8.31l-13.55-1.49c1.28,7.17,0.84,14.54-1.28,21.51l0.36,6.56
	c0,0-15.71-24.3-15.71-27.68v8.44c0,0-8.44-7.6-8.44-12.67l-4.6,5.91l-2.3-9.29l-28.39,9.29l4.6-7.6l-17.64,2.54l6.91-9.29
	c0,0-19.94,10.98-20.72,20.27c-0.78,9.29-10.74,21.12-10.74,21.12l-4.6-8.44C658.11,530.46,651.2,492.45,673.46,479.78z"/>
<path class="st0" d="M806.04,667.8c0,0-10.84,27.86-8.57,55.43c0.41,4.94,2.07,9.69,4.83,13.8l0,0l-132.76,63.03
	c0,0-59.98,6.21-45.01,32.41c14.97,26.2,69.24-13.1,69.24-13.1s142.22-20.58,153.44-41.17c11.23-20.58,18.71-106.66,18.71-106.66
	L806.04,667.8z"/>
<path class="st2" d="M811.66,591.08h28.07c0,0,20.58,3.74,26.2,41.17c5.61,37.43,11.23,46.78,5.61,46.78
	c-5.61,0-72.98-1.87-72.98-3.74C798.55,673.42,811.66,591.08,811.66,591.08z"/>
</svg>
