<?xml version="1.0" encoding="utf-8"?>
<!-- Generator: Adobe Illustrator 24.0.0, SVG Export Plug-In . SVG Version: 6.00 Build 0)  -->
<svg version="1.1" id="Layer_1" xmlns="http://www.w3.org/2000/svg" xmlns:xlink="http://www.w3.org/1999/xlink" x="0px" y="0px"
	 viewBox="0 0 1600 1000" style="enable-background:new 0 0 1600 1000;" xml:space="preserve">
<style type="text/css">
	.st0{opacity:0.1;fill:#5360DE;enable-background:new    ;}
	.st1{fill:none;stroke:#535461;stroke-width:2;stroke-miterlimit:10;}
	.st2{fill:#5360DE;}
	.st3{opacity:0.25;enable-background:new    ;}
	.st4{fill:url(#SVGID_1_);}
	.st5{fill:#F6F7F9;}
	.st6{opacity:0.2;}
	.st7{opacity:0.2;fill:#5360DE;enable-background:new    ;}
	.st8{fill:#3ACC6C;}
	.st9{opacity:0.1;enable-background:new    ;}
	.st10{fill:#FFD037;}
	.st11{fill:#65617D;}
	.st12{fill:#9D9CB5;}
	.st13{opacity:0.5;}
	.st14{fill:none;stroke:#5360DE;stroke-miterlimit:10;}
	.st15{opacity:0.1;}
	.st16{fill:url(#SVGID_2_);}
	.st17{fill:#ECB4B6;}
	.st18{fill:#C17174;}
	.st19{opacity:0.25;fill:#FFFFFF;enable-background:new    ;}
	.st20{fill:#FF748E;}
	.st21{fill:#5E5A6B;}
	.st22{fill:#464353;}
	.st23{fill:#9F9EFF;}
</style>
<path class="st0" d="M959.4,185.62c-51.96,32.86-119.37,30.73-178.42,13.64c-59.06-17.08-113.32-47.55-170.84-69.2
	c-48.32-18.15-98.76-30.03-150.1-35.35c-73.34-7.58-155.23,1.65-206.33,54.78c-56.91,59.18-52.54,165.92,9.01,220.22
	c31.3,27.63,72.31,41.19,108.06,62.76c35.75,21.57,68.83,57.4,65.79,99.04c-2.81,38.54-35.58,68.13-69.49,86.68
	c-26.22,14.34-58.5,30-61.66,59.71c-3.05,28.75,24.09,51.28,50.01,64.08c84.56,41.79,188.73,41.38,272.96-1.06
	c30.05-15.14,57.68-35.27,89.19-47.07c82.75-30.98,173.92,0.21,261.54,11.61c74.4,9.63,149.96,4.66,222.46-14.64
	c43.39-11.58,86.94-29.28,117.42-62.25c21.98-23.78,35.64-53.87,48.54-83.58c13.71-31.69,26.88-63.61,39.53-95.74
	c7.6-19.3,15.07-38.96,17.02-59.61c3.55-37.4-11.41-74.37-31.8-105.94c-48.42-74.96-129.92-127.66-218.17-141.05
	c-88.25-13.38-181.64,12.78-250.1,69.97"/>
<ellipse class="st0" cx="343.23" cy="960.74" rx="166.83" ry="32.62"/>
<ellipse class="st0" cx="838.84" cy="892.62" rx="349.71" ry="32.62"/>
<path class="st1" d="M1076.22,660.38c0,0,49.03-86.84,122.91-111.84c30.98-10.51,58.04-30.26,76.53-57.25
	c8.75-12.83,16.32-26.44,22.59-40.64"/>
<path class="st2" d="M1344.62,434.59c-8.42,8.16-47.6,16.6-47.6,16.6s9.62-38.9,18.03-47.07c8.41-8.17,21.85-7.96,30.02,0.45
	C1353.24,412.98,1353.03,426.42,1344.62,434.59L1344.62,434.59L1344.62,434.59z"/>
<path class="st2" d="M1322.46,505c-11.5,2.27-48.98-11.93-48.98-11.93s29.21-27.43,40.71-29.72c11.45-2.54,22.79,4.69,25.33,16.15
	s-4.69,22.79-16.15,25.33C1323.07,504.89,1322.77,504.95,1322.46,505L1322.46,505z"/>
<path class="st2" d="M1241.71,581.19c-11.06-3.83-36.26-35.02-36.26-35.02s39.07-8.95,50.15-5.11
	c11.17,3.57,17.34,15.52,13.77,26.69c-3.57,11.17-15.52,17.34-26.69,13.77C1242.35,581.42,1242.03,581.31,1241.71,581.19z"/>
<path class="st2" d="M1167.71,625.08c-11.57-1.91-41.65-28.4-41.65-28.4s36.99-15.41,48.56-13.52c11.57,1.91,19.4,12.83,17.49,24.4
	c-1.91,11.57-12.83,19.4-24.4,17.49l0,0L1167.71,625.08z"/>
<path class="st2" d="M1240.8,462.71c0,11.73,21.21,45.73,21.21,45.73s21.24-34,21.25-45.72c-0.28-11.73-10.02-21-21.74-20.72
	c-11.33,0.27-20.45,9.39-20.72,20.72V462.71z"/>
<path class="st2" d="M1154.87,515.1c3.5,11.18,33.91,37.29,33.91,37.29s10.1-38.79,6.6-49.97c-3.5-11.2-15.42-17.44-26.62-13.94
	c-11.2,3.5-17.44,15.42-13.94,26.62H1154.87z"/>
<path class="st2" d="M1078.32,577.53c1.56,11.63,27.14,42.49,27.14,42.49s16.51-36.52,14.95-48.14
	c-1.56-11.62-12.25-19.78-23.87-18.21C1084.92,555.22,1076.76,565.91,1078.32,577.53L1078.32,577.53z"/>
<path class="st3" d="M1344.62,434.59c-8.42,8.16-47.6,16.6-47.6,16.6s9.62-38.9,18.03-47.07c8.41-8.17,21.85-7.96,30.02,0.45
	C1353.24,412.98,1353.03,426.42,1344.62,434.59L1344.62,434.59L1344.62,434.59z"/>
<path class="st3" d="M1322.46,505c-11.5,2.27-48.98-11.93-48.98-11.93s29.21-27.43,40.71-29.72c11.45-2.54,22.79,4.69,25.33,16.15
	s-4.69,22.79-16.15,25.33C1323.07,504.89,1322.77,504.95,1322.46,505L1322.46,505z"/>
<path class="st3" d="M1241.71,581.19c-11.06-3.83-36.26-35.02-36.26-35.02s39.07-8.95,50.15-5.11
	c11.17,3.57,17.34,15.52,13.77,26.69c-3.57,11.17-15.52,17.34-26.69,13.77C1242.35,581.42,1242.03,581.31,1241.71,581.19z"/>
<path class="st3" d="M1167.71,625.08c-11.57-1.91-41.65-28.4-41.65-28.4s36.99-15.41,48.56-13.52c11.57,1.91,19.4,12.83,17.49,24.4
	c-1.91,11.57-12.83,19.4-24.4,17.49l0,0L1167.71,625.08z"/>
<path class="st3" d="M1240.8,462.71c0,11.73,21.21,45.73,21.21,45.73s21.24-34,21.25-45.72c-0.28-11.73-10.02-21-21.74-20.72
	c-11.33,0.27-20.45,9.39-20.72,20.72V462.71z"/>
<path class="st3" d="M1154.87,515.1c3.5,11.18,33.91,37.29,33.91,37.29s10.1-38.79,6.6-49.97c-3.5-11.2-15.42-17.44-26.62-13.94
	c-11.2,3.5-17.44,15.42-13.94,26.62H1154.87z"/>
<path class="st3" d="M1078.32,577.53c1.56,11.63,27.14,42.49,27.14,42.49s16.51-36.52,14.95-48.14
	c-1.56-11.62-12.25-19.78-23.87-18.21C1084.92,555.22,1076.76,565.91,1078.32,577.53L1078.32,577.53z"/>
<path class="st1" d="M1079.05,658.64c0,0,9.62-99.26,66.97-152.05c24.2-21.99,40.61-51.24,46.78-83.35
	c2.8-15.27,4.2-30.76,4.18-46.29"/>
<path class="st2" d="M1232.93,343.49c-4.39,10.88-36.79,34.41-36.79,34.41s-6.98-39.46-2.59-50.39
	c4.86-10.67,17.45-15.37,28.12-10.51c10,4.56,14.87,16.01,11.21,26.37L1232.93,343.49z"/>
<path class="st2" d="M1241.18,416.82c-9.59,6.75-49.6,8.95-49.6,8.95s15.6-36.87,25.18-43.67c9.66-6.64,22.87-4.2,29.52,5.46
	C1252.82,397.07,1250.56,410.07,1241.18,416.82z"/>
<path class="st2" d="M1198.28,519.17c-11.68,0.98-47.33-17.32-47.33-17.32s32.09-24,43.78-24.99c11.68-0.98,21.95,7.69,22.93,19.38
	C1218.64,507.92,1209.96,518.19,1198.28,519.17z"/>
<path class="st2" d="M1148.38,589.3c-11.34,2.94-49.58-9.07-49.58-9.07s27.58-29.09,38.92-32.03c11.35-2.94,22.94,3.87,25.88,15.22
	C1166.54,574.77,1159.73,586.36,1148.38,589.3L1148.38,589.3z"/>
<path class="st2" d="M1149.39,411.21c4.76,10.72,37.93,33.18,37.93,33.18s5.64-39.67,0.9-50.39c-4.75-10.72-17.29-15.56-28.02-10.81
	C1149.47,387.95,1144.64,400.49,1149.39,411.21L1149.39,411.21L1149.39,411.21z"/>
<path class="st2" d="M1092.06,493.98c7.74,8.8,46.13,20.34,46.13,20.34s-6.49-39.55-14.22-48.36c-7.74-8.82-21.16-9.7-29.99-1.97
	c-8.82,7.74-9.7,21.16-1.97,29.99L1092.06,493.98z"/>
<path class="st2" d="M1047.39,582.06c6.15,9.99,42.02,27.85,42.02,27.85s0.3-40.08-5.84-50.07c-6.14-9.99-19.21-13.12-29.2-6.98
	C1044.38,559,1041.25,572.07,1047.39,582.06L1047.39,582.06L1047.39,582.06z"/>
<linearGradient id="SVGID_1_" gradientUnits="userSpaceOnUse" x1="834.6025" y1="104.5889" x2="834.6025" y2="971.6346" gradientTransform="matrix(1 0 0 -1 0 1002)">
	<stop  offset="0" style="stop-color:#808080;stop-opacity:0.25"/>
	<stop  offset="0.54" style="stop-color:#808080;stop-opacity:0.12"/>
	<stop  offset="1" style="stop-color:#808080;stop-opacity:0.1"/>
</linearGradient>
<polygon class="st4" points="522.79,30.37 522.79,64.02 522.79,897.41 1146.41,897.41 1146.41,64.02 1146.41,30.37 "/>
<rect x="528.26" y="37.97" class="st5" width="612.68" height="33.05"/>
<g class="st6">
	<rect x="528.26" y="37.97" class="st2" width="612.68" height="33.05"/>
</g>
<rect x="528.26" y="71.02" class="st5" width="612.68" height="818.78"/>
<circle class="st5" cx="544.37" cy="54.49" r="5.6"/>
<circle class="st5" cx="559.57" cy="54.49" r="5.6"/>
<circle class="st5" cx="574.76" cy="54.49" r="5.6"/>
<g class="st6">
	<rect x="637.61" y="121.5" class="st2" width="393.97" height="15.42"/>
</g>
<rect x="979.24" y="121.5" class="st2" width="52.35" height="15.42"/>
<g class="st6">
	<rect x="581.15" y="436.71" class="st7" width="247.92" height="177.59"/>
</g>
<g class="st6">
	<rect x="581.15" y="206.35" class="st7" width="247.92" height="177.59"/>
</g>
<g class="st6">
	<rect x="581.15" y="664.08" class="st7" width="247.92" height="177.59"/>
</g>
<g class="st6">
	<rect x="840.13" y="436.71" class="st7" width="247.92" height="177.59"/>
</g>
<g class="st6">
	<rect x="840.13" y="206.35" class="st7" width="247.92" height="177.59"/>
</g>
<g class="st6">
	<rect x="840.13" y="664.08" class="st7" width="247.92" height="177.59"/>
</g>
<path class="st8" d="M1321.34,810.2c0,0,8.78,11.47-4.04,28.77c-12.82,17.3-23.35,31.96-19.11,42.72c0,0,19.33-32.15,35.08-32.59
	C1349.01,848.65,1338.66,829.53,1321.34,810.2z"/>
<path class="st9" d="M1321.34,810.2c0.77,1.1,1.37,2.31,1.79,3.59c15.36,18.04,23.54,34.88,8.78,35.31
	c-13.74,0.39-30.25,24.97-34.19,31.18c0.13,0.48,0.29,0.95,0.47,1.41c0,0,19.33-32.15,35.08-32.59
	C1349.01,848.65,1338.66,829.53,1321.34,810.2z"/>
<path class="st10" d="M1337.65,824.81c0,4.03-0.45,7.3-1.01,7.3s-1.02-3.27-1.02-7.3s0.57-2.14,1.13-2.14
	S1337.65,820.77,1337.65,824.81z"/>
<path class="st10" d="M1343.24,829.63c-3.54,1.93-6.64,3.1-6.89,2.61s2.38-2.46,5.92-4.39c3.54-1.93,2.15-0.52,2.46,0
	C1345.04,828.36,1346.78,827.74,1343.24,829.63z"/>
<path class="st8" d="M1275.03,810.2c0,0-8.78,11.47,4.04,28.77s23.35,31.96,19.11,42.72c0,0-19.33-32.15-35.08-32.59
	C1247.37,848.65,1257.69,829.53,1275.03,810.2z"/>
<path class="st9" d="M1275.03,810.2c-0.77,1.1-1.37,2.31-1.79,3.59c-15.36,18.04-23.54,34.88-8.78,35.31
	c13.75,0.39,30.25,24.97,34.19,31.18c-0.12,0.48-0.28,0.95-0.47,1.41c0,0-19.33-32.15-35.08-32.59
	C1247.37,848.65,1257.69,829.53,1275.03,810.2z"/>
<path class="st10" d="M1258.72,824.81c0,4.03,0.45,7.3,1.02,7.3s1.01-3.27,1.01-7.3s-0.57-2.14-1.12-2.14
	S1258.72,820.77,1258.72,824.81z"/>
<path class="st10" d="M1253.13,829.63c3.55,1.93,6.64,3.1,6.91,2.61c0.27-0.49-2.4-2.46-5.94-4.39c-3.54-1.93-2.15-0.52-2.46,0
	C1251.34,828.36,1249.59,827.74,1253.13,829.63z"/>
<ellipse class="st0" cx="1298.19" cy="955.35" rx="91.69" ry="14.07"/>
<path class="st11" d="M1345.38,866.24l-0.44,3.58l-0.61,5.06l-0.26,2.1l-0.61,5.06l-0.27,2.11l-0.61,5.05l-7.02,57.52
	c-0.63,5.14-9.01,9.13-19.14,9.13h-36.45c-10.13,0-18.44-3.99-19.12-9.13l-7.03-57.54l-0.61-5.05l-0.26-2.11l-0.63-5.06l-0.26-2.1
	l-0.61-5.06l-0.44-3.58c-0.34-2.84,4.24-5.3,9.92-5.3h74.57C1341.19,860.92,1345.74,863.38,1345.38,866.24z"/>
<polygon class="st12" points="1344.94,869.82 1344.33,874.87 1252.05,874.87 1251.43,869.82 "/>
<polygon class="st12" points="1344.07,876.98 1343.45,882.05 1252.93,882.05 1252.31,876.98 "/>
<polygon class="st12" points="1343.18,884.15 1342.57,889.21 1253.81,889.21 1253.19,884.15 "/>
<path class="st2" d="M903.52,240.67c0,0-2.25-5.62,12.92-4.22c15.17,1.4,58.71,6.24,77.54,2s30.05-5.59,28.93,0
	c-1.12,5.59-32.58,18.23-32.58,18.23l-40.74,4.22l-30.05-4.78l-16.14-9.55L903.52,240.67z"/>
<path class="st9" d="M1022.94,238.46c-1.13,5.59-32.58,18.23-32.58,18.23l-40.74,4.22l-30.05-4.77l-16.13-9.55l0.11-5.9
	c-0.32-1,0.02-2.09,0.86-2.72c1.39-1.23,4.63-2.19,12.06-1.5c15.18,1.4,58.71,6.23,77.54,1.99c15.34-3.45,25.64-4.99,28.27-2.46
	C1022.94,236.63,1023.2,237.58,1022.94,238.46z"/>
<path class="st2" d="M1047.15,323.54c-26.22,5.05-50.94,16-72.29,32.02c-1.08-2.87-3.12-5.29-5.76-6.85
	c-1.81-1.12-3.78-1.95-5.85-2.46c-1.88-0.48-3.69,0.66-5.35,2.31c-1.91,2.11-3.51,4.48-4.76,7.04
	c-28.65-19.66-72.11-32.21-72.11-32.21v-3.93c0-0.77,0.14-1.71,0.28-2.77c0.15-1.06,0.33-1.99,0.57-3.13
	c3.69-18.76,18.26-61.61,18.26-61.61h4.51h11.97l31.96,6.64l35.95-2.2l36.21-7.53l4.69-0.98c7.83,6.15,16.72,49.16,20.21,67.47
	c0.44,2.32,0.79,4.24,1.04,5.65C1046.99,322.6,1047.15,323.54,1047.15,323.54z"/>
<path class="st2" d="M886.98,315.42c0.95-18.01,15.25-57.03,17.67-63.51h-4.51c0,0-15.44,45.47-18.57,63.22
	c-0.01,0.04-0.01,0.09,0,0.14c-0.09,0.48-0.17,0.95-0.23,1.39c-0.15,1.06-0.25,1.99-0.28,2.77v3.93c0,0,43.46,12.56,72.11,32.21
	c1.25-2.56,2.85-4.93,4.76-7.04C946.97,338.57,905.45,322.35,886.98,315.42z"/>
<path class="st2" d="M1046.69,320.95c-0.11-0.63-0.25-1.35-0.39-2.15c-0.18-1.03-0.41-2.2-0.65-3.5l0,0
	c-3.49-18.34-12.38-61.37-20.21-67.47l-4.7,0.98c2.85,7.66,21.23,57.65,19.66,67.41c-30.73,6.15-61.87,26.12-71.28,32.5
	c2.65,1.55,4.68,3.97,5.76,6.85c21.36-16.02,46.08-26.97,72.29-32.02C1047.18,323.54,1046.99,322.6,1046.69,320.95z"/>
<path class="st9" d="M888.12,314.29c0.93-18.01,15.25-57.03,17.67-63.49h-4.52c0,0-15.44,45.47-18.57,63.21c0,0,0,0.1,0,0.14
	c-0.09,0.49-0.16,0.96-0.22,1.4c-0.15,1.06-0.25,1.99-0.28,2.77v3.93c0,0,43.45,12.55,72.11,32.21c1.24-2.56,2.83-4.93,4.74-7.04
	C948.09,337.48,906.58,321.22,888.12,314.29z"/>
<path class="st2" d="M886.98,315.42c0.95-18.01,15.25-57.03,17.67-63.51h-4.51c0,0-15.44,45.47-18.57,63.22
	c-0.01,0.04-0.01,0.09,0,0.14c-0.09,0.48-0.17,0.95-0.23,1.39c-0.15,1.06-0.25,1.99-0.28,2.77v3.93c0,0,43.46,12.56,72.11,32.21
	c1.25-2.56,2.85-4.93,4.76-7.04C946.97,338.57,905.45,322.35,886.98,315.42z"/>
<path class="st9" d="M1045.57,319.82l-0.39-2.15c-0.2-1.03-0.41-2.19-0.65-3.5l0,0c-3.48-18.33-12.38-61.35-20.21-67.47l-4.68,1
	c2.85,7.66,21.23,57.65,19.66,67.41c-30.73,6.15-61.88,26.12-71.28,32.48c2.65,1.56,4.68,3.98,5.76,6.86
	c21.35-16.03,46.07-26.98,72.28-32.03C1046.06,322.41,1045.88,321.49,1045.57,319.82z"/>
<path class="st2" d="M1046.69,320.95c-0.11-0.63-0.25-1.35-0.39-2.15c-0.18-1.03-0.41-2.2-0.65-3.5l0,0
	c-3.49-18.34-12.38-61.37-20.21-67.47l-4.7,0.98c2.85,7.66,21.23,57.65,19.66,67.41c-30.73,6.15-61.87,26.12-71.28,32.5
	c2.65,1.55,4.68,3.97,5.76,6.85c21.36-16.02,46.08-26.97,72.29-32.02C1047.18,323.54,1046.99,322.6,1046.69,320.95z"/>
<path class="st9" d="M897.67,274.14c0,0,28.51,17.94,35.18-8.33l6.34,1.7c0,0,2.09,29.12-43.41,12.5L897.67,274.14z"/>
<path class="st2" d="M897.67,271.89c0,0,28.51,17.94,35.18-8.33l6.34,1.7c0,0,2.09,29.12-43.41,12.5L897.67,271.89z"/>
<path class="st9" d="M987.39,266.65c0,0,3.69,21.47,42.76,11.06l-1.38-4.06c0,0-26.68,11.06-36.36-8.15L987.39,266.65z"/>
<path class="st2" d="M987.39,264.4c0,0,3.69,21.47,42.76,11.06l-1.38-4.06c0,0-26.68,11.06-36.36-8.15L987.39,264.4z"/>
<path class="st9" d="M961.38,266.37v44.81h6.93c0,0,9.59-3.45,9.37-23.6c-0.22-20.14-1.68-25.56-1.68-25.56L961.38,266.37z"/>
<path class="st2" d="M960.26,265.25v44.81h6.93c0,0,9.59-3.45,9.37-23.6c-0.22-20.14-1.7-25.56-1.7-25.56L960.26,265.25z"/>
<path class="st9" d="M1025.4,250.08c-2.83,5.26-28.49,13.9-33.02,15.39l-0.69,0.22c0,0-1.62,0.42-4.34,0.98
	c-8.26,1.72-26.67,4.92-40.56,2.11c-2.02-0.39-4.11-0.82-6.23-1.23l-4.92-1.07c-15.98-3.55-32.51-8.2-35.45-12.29
	c0,0,0.8-13.36,3.49-13c2.69,0.36,32.74,13,32.74,13l0.43,0.06c0.77,0.1,2.53,0.32,5,0.6c9.76,1.07,30.32,2.77,41.38-0.2
	c0.53-0.15,1.02-0.29,1.5-0.47c0.84-0.28,1.71-0.58,2.61-0.91c14.23-5.04,35.54-14.06,35.54-14.06S1028.52,244.29,1025.4,250.08z"/>
<path class="st9" d="M1022.94,238.46c-1.13,5.59-32.58,18.23-32.58,18.23l-40.74,4.22l-30.05-4.77l-16.13-9.55l0.11-5.9
	c-0.32-1,0.02-2.09,0.86-2.72c5.35,1.62,31.96,12.82,31.96,12.82l0.43,0.06c0.77,0.1,2.53,0.32,5,0.6
	c9.76,1.07,30.32,2.77,41.38-0.2c0.53-0.15,1.02-0.29,1.5-0.47c0.84-0.27,1.71-0.58,2.61-0.91c12.87-4.56,31.54-12.38,34.99-13.83
	C1022.92,236.67,1023.18,237.59,1022.94,238.46z"/>
<path class="st2" d="M1025.4,247.82c-2.83,5.26-28.49,13.89-33.02,15.38l-0.69,0.23c0,0-1.62,0.41-4.34,0.97
	c-8.26,1.72-26.67,4.92-40.56,2.11c-2.02-0.39-4.11-0.82-6.23-1.23l-4.92-1.07c-15.98-3.55-32.51-8.2-35.45-12.29
	c0,0,0.8-13.36,3.49-12.99c2.69,0.37,32.74,12.99,32.74,12.99l0.43,0.06c0.77,0.1,2.53,0.33,5,0.6c9.76,1.07,30.32,2.77,41.38-0.2
	c0.53-0.15,1.02-0.29,1.5-0.47c0.84-0.27,1.71-0.58,2.61-0.91c14.23-5.04,35.54-14.06,35.54-14.06S1028.52,242.06,1025.4,247.82z"/>
<circle class="st9" cx="966.25" cy="262.02" r="4.5"/>
<circle class="st2" cx="966.25" cy="260.89" r="4.5"/>
<path class="st9" d="M942.93,252.54l-1.23,12.68l-4.92-1.07l1.23-12.22C938.7,252.06,940.47,252.29,942.93,252.54z"/>
<path class="st2" d="M941.82,252.54l-1.23,12.68l-4.92-1.07l1.23-12.22C937.58,252.06,939.37,252.29,941.82,252.54z"/>
<path class="st9" d="M991.28,263.2l-0.69,0.23c0,0-1.61,0.41-4.34,0.97l-4.19-12.03c0.53-0.15,1.03-0.29,1.51-0.47
	c0.84-0.27,1.71-0.58,2.61-0.91L991.28,263.2z"/>
<path class="st2" d="M992.41,263.2l-0.69,0.23c0,0-1.62,0.41-4.34,0.97l-4.19-12.03c0.53-0.15,1.02-0.29,1.5-0.47
	c0.84-0.27,1.71-0.58,2.61-0.91L992.41,263.2z"/>
<g class="st13">
	<path class="st2" d="M675.42,230.42c5.75,0.04,11.39,1.6,16.33,4.54c0,0,14.97,1.82,23.13,0s12.29-8.16,13.84-6.35
		c1.55,1.81,1.59,18.83,1.59,18.83l-7.03,18.83l-15.88,11.79l-25.17-7.25l-8.33-21.3L675.42,230.42z"/>
	<path class="st9" d="M730.31,247.45l-7.03,18.83l-15.88,11.79l-25.17-7.25l-8.33-21.32l1.59-19.05h0.37
		c5.62,0.14,11.12,1.71,15.98,4.55c0,0,14.97,1.82,23.13,0c7.76-1.72,11.84-7.55,13.52-6.56l0,0c0.1,0.05,0.19,0.11,0.26,0.2
		C730.31,230.42,730.31,247.45,730.31,247.45z"/>
	<path class="st9" d="M730.31,247.45l-7.03,18.83l-15.88,11.79l-25.17-7.25l-8.33-21.32l1.59-19.05h0.37
		c1.4,6.01,7.37,24.99,26.4,26.33c19.57,1.36,25.12-21.91,26.28-28.33c0.1,0.05,0.19,0.11,0.26,0.2
		C730.31,230.42,730.31,247.45,730.31,247.45z"/>
	<path class="st2" d="M675.42,230.42c0,0,4.08,26.54,26.77,28.12s26.54-29.94,26.54-29.94s32.89,10.78,40.56,30
		s13.38,34.65,13.38,34.65s-2.46,4.3-5.22,4.76c-2.77,0.45-21.55,13.38-21.55,13.38s-0.22,36.75,1.82,39.01
		c2.04,2.26,1.36,12.02-4.77,11.57s-48.54-9.98-84.8-2.04c0,0-15.19,5.44-14.75-3.4c0.44-8.85,1.13-43.55,1.13-43.55
		s-22.91-9.98-24.26-9.98c-1.35,0-4.77-1.79-1.14-7.71c3.63-5.91,8.17-26.08,8.17-26.08S646.39,240.25,675.42,230.42z"/>
	<path class="st9" d="M745.95,278.07c0,0,6.81,4.99,5.22,8.85C749.59,290.78,745.95,278.07,745.95,278.07z"/>
	<path class="st9" d="M755.93,282.86c-0.63,2.21-0.63,4.56,0,6.77"/>
	<path class="st9" d="M760.47,295.31c0,0,0.91,6.15-1.81,6.8"/>
	<path class="st9" d="M667.93,276.48c0,0-12.7,11.06-8.39,15.42"/>
	<path class="st9" d="M659.99,303.25c0,0-0.21,11.57,3.29,12.47"/>
	<path class="st9" d="M696.51,342.03c0,0,8.6-5.89,10.89-5.67"/>
	<path class="st9" d="M705.11,348.16c0,0,9.32-6.59,11.81-6.15"/>
</g>
<g class="st13">
	<path class="st2" d="M907.41,453.67c0,0,74.21,3.52,111.11,1.35l-0.81,9.73l-65.29,8.6l-19.32-5.95L907.41,453.67z"/>
	<path class="st9" d="M1018.57,455.03l-0.81,9.73l-65.27,8.6l-19.33-5.95l-25.74-13.74c0,0,1.52,0.09,4.24,0.2l0,0
		c16.1,0.7,74.07,2.96,105.91,1.23L1018.57,455.03z"/>
	<path class="st2" d="M1044.25,593.44c-14.33,8.6-64.07,0.27-64.07,0.27l-13.79-49.16l-15.41,50.01
		c-21.89,7.84-67.04-3.52-67.04-3.52l17.58-108.16l3.04-14.91l2.86-14.31l27.85,8.38c0,0,8.37,5.68,43.25,4.06
		s40.01-11.06,40.01-11.06c1.54,0.44,3,5.86,4.47,12.6c2.14,9.83,4.31,22.44,6.88,26.61
		C1034.25,501.26,1044.25,593.44,1044.25,593.44z"/>
	<path class="st9" d="M1023.04,468.71c-31.09,17.07-57.86,16.6-57.86,16.6c-6.62,0.81-60.63-16.26-60.63-16.26l2.86-14.29
		l27.85,8.38c0,0,8.37,5.68,43.25,4.06s40.01-11.06,40.01-11.06C1020.1,456.56,1021.57,461.97,1023.04,468.71z"/>
	<path class="st9" d="M1018.57,455.03l-0.81,9.73l-65.27,8.6l-19.33-5.95l-25.74-13.74c0,0,1.52,0.09,4.24,0.2l0,0l23.6,7.1
		c0,0,8.37,5.68,43.25,4.06c27.4-1.23,36.44-7.37,39.06-9.94L1018.57,455.03z"/>
	<path class="st2" d="M1023.04,467.62c-31.09,17.07-57.86,16.6-57.86,16.6c-6.62,0.81-60.63-16.26-60.63-16.26l2.86-14.29
		l27.85,8.38c0,0,8.37,5.68,43.25,4.06s40.01-11.06,40.01-11.06C1020.1,455.47,1021.57,460.89,1023.04,467.62z"/>
	<circle class="st9" cx="970.45" cy="478.81" r="2.84"/>
	<circle class="st14" cx="970.45" cy="477.73" r="2.84"/>
	<path class="st9" d="M897.86,528.56c0,0,5,14.87,8.52,14.6S897.86,528.56,897.86,528.56z"/>
	<path class="st9" d="M894.62,543.16c0,0,3.11,8.92,6.35,10.41"/>
	<path class="st9" d="M894.62,552.49c0,0,4.92,6.22,7.83,7.71"/>
	<path class="st9" d="M1026.63,496.26c0,0,4.6,6.89,0,8.38"/>
	<path class="st9" d="M1028.72,507.47c-5.33-6.33-2.04,8.6-2.04,8.6S1030.08,509.09,1028.72,507.47z"/>
	<path class="st9" d="M1031.41,515.18c0,0-8.11,12.03-6.49,13.38"/>
	<path class="st9" d="M924.1,496.52c-9.94,0-20.32-4.5-20.89-4.77l0.44-1c0.2,0.1,20.05,8.71,30.79,2.25
		c4.06-2.46,6.33-6.78,6.77-12.91l1.08,0.09c-0.47,6.49-2.93,11.06-7.3,13.74C931.67,495.76,927.9,496.66,924.1,496.52z"/>
	<path class="st2" d="M924.1,495.44c-9.94,0-20.32-4.5-20.89-4.77l0.44-0.98c0.2,0.09,20.05,8.7,30.79,2.24
		c4.06-2.46,6.33-6.78,6.77-12.91l1.08,0.09c-0.47,6.49-2.93,11.06-7.3,13.74C931.67,494.68,927.9,495.58,924.1,495.44z"/>
	<path class="st9" d="M1005.74,497.33c-2.55,0.04-5.07-0.51-7.37-1.59c-8.06-3.88-9.37-13.4-9.43-13.8l1.08-0.14
		c0,0.1,1.29,9.35,8.82,12.97c6.71,3.23,16.24,1.23,28.27-6.15l0.55,0.92C1019.1,494.74,1011.76,497.33,1005.74,497.33z"/>
	<path class="st2" d="M1005.74,496.25c-2.55,0.04-5.07-0.51-7.37-1.59c-8.06-3.88-9.37-13.4-9.43-13.8l1.08-0.14
		c0,0.1,1.29,9.35,8.82,12.97c6.71,3.23,16.24,1.23,28.27-6.15l0.55,0.92C1019.1,493.66,1011.76,496.25,1005.74,496.25z"/>
</g>
<path class="st2" d="M681.68,455.33c0,0,13.95,19.48,23.43,17.59c9.48-1.89,10.41-3.97,18.83-17.59l6.91,15.89l-8.14,19.66
	l-9.64,12.47l-20.43-3.21l-6.61-22.32L681.68,455.33z"/>
<path class="st9" d="M730.85,471.21l-8.14,19.66l-9.64,12.47l-20.43-3.21l-6.61-22.32l-4.35-22.49c0,0,1.23,1.7,3.15,4.03
	c4.68,5.59,13.59,14.88,20.28,13.52c9.34-1.87,10.39-3.92,18.5-17.03l0.33-0.55L730.85,471.21z"/>
<path class="st9" d="M730.85,471.21l-8.14,19.66l-9.64,12.47l-20.43-3.21l-6.61-22.32l-4.35-22.49c0,0,1.23,1.7,3.15,4.03
	c3.05,9.83,9.6,25.6,20.28,25.47c12.06-0.14,16.92-20.11,18.5-28.94l0.33-0.55L730.85,471.21z"/>
<path class="st2" d="M674.31,454.76c0,0-4.73-0.57-2.27,5.3c2.46,5.86,6.99,25.15,4.73,29.12c-2.26,3.97-1.13,14.75-10.96,16.84
	l2.83,11.15c0,0,0.57,24.58-0.57,28.18c-1.13,3.6-1.33,23.44-0.95,25.52s0.2,15.69-1.32,16.27c-1.51,0.58-2.46,7.18,2.46,8.31
	c4.92,1.13,25.9,1.71,29.68,2.84c3.79,1.13,30.63,0,30.63,0s11.34-1.51,14.18-2.46c2.84-0.95,3.4-3.21,2.46-7.56
	s-5.3-35.93-4.35-39.89c0.95-3.97,1.14-42.73,1.14-42.73s-7.37-2.46-7.37-9.65s-2.84-26.47,3.02-38.57c0,0-4.73-3.24-5.48-2.67
	c-0.75,0.58-7.89-1.5-7.89-1.5s-3.69,32.9-19.11,33.09s-22.29-33.09-22.29-33.09S683.01,450.22,674.31,454.76z"/>
<path class="st9" d="M696.62,560.27c0,0,3.18,7.76,8.49,8.89C710.42,570.29,696.62,560.27,696.62,560.27z"/>
<path class="st9" d="M691.7,566.32c0,0,10.27,8.32,9.83,10.03"/>
<path class="st9" d="M671.09,517.16c0,0,8.14,5.48,8.14,9.45"/>
<path class="st9" d="M676.57,534.36c0,0-2.26-7.94-3.77-9.64"/>
<path class="st9" d="M672.8,537.39c0,0,3.4,6.81,3.77,8.7"/>
<path class="st9" d="M738.79,523.58c0,0-10.58,3.22-9.65,7.19"/>
<path class="st9" d="M729.09,560.27c0,0,13.86-16.08,9.7-15.69S729.09,560.27,729.09,560.27z"/>
<g class="st15">
	<path d="M734.62,495.98c0-3.32-0.6-9.22-0.68-15.79c-0.07,7.55,0.68,14.53,0.68,18.25c0,7.03,7.04,9.53,7.37,9.64
		c0-1.54,0-2.46,0-2.46S734.62,503.17,734.62,495.98z"/>
	<path d="M745.18,590.71c0.14,0.65,0.26,1.3,0.33,1.95c0.16-1.48,0.04-2.97-0.33-4.41c-0.81-3.69-4.11-27.36-4.45-36.6
		C740.36,557.97,744.32,586.58,745.18,590.71z"/>
	<path d="M666.95,566.19c0-6.75,0.38-16.05,1.12-18.44c0.6-1.92,0.73-9.76,0.71-16.69c0,6.22-0.18,12.54-0.71,14.23
		C667.23,547.98,666.91,559.51,666.95,566.19z"/>
	<path d="M674.31,457.21c8.69-4.54,8.51-1.51,8.51-1.51s6.81,33.28,22.29,33.09c15.49-0.2,19.17-33.09,19.17-33.09
		s7.19,2.08,7.94,1.5c0.75-0.58,3.27,1.23,4.66,2.11c0.26-0.65,0.53-1.29,0.84-1.91c0,0-4.73-3.24-5.49-2.67
		c-0.76,0.58-7.94-1.5-7.94-1.5s-3.69,32.9-19.11,33.09s-22.29-33.09-22.29-33.09s0.18-3.02-8.51,1.51c0,0-3.85-0.44-2.78,3.8
		C672.21,456.97,674.31,457.21,674.31,457.21z"/>
	<path d="M665.79,589.58c1.23-0.45,1.56-8.87,1.49-13.52c-0.06,4.67-0.49,10.68-1.49,11.06c-1,0.38-1.47,2.46-1.09,4.46
		C664.9,590.53,665.29,589.76,665.79,589.58z"/>
	<path d="M676.77,491.63c0.6-1.61,0.8-3.35,0.58-5.05c-0.01,0.9-0.21,1.78-0.58,2.59c-2.27,3.97-1.14,14.75-10.98,16.84l0.59,2.31
		C675.58,505.93,674.54,495.52,676.77,491.63z"/>
</g>
<path class="st2" d="M731.39,685.95c-4.65,8.46-51.8,0-51.8,0l0.12-0.85l0.93-6.55h49.69l0.95,6.54L731.39,685.95z"/>
<path class="st9" d="M731.39,685.95c-4.65,8.46-51.8,0-51.8,0l0.12-0.85c2.26,0,36.38-0.81,51.62,0L731.39,685.95z"/>
<path class="st2" d="M679.58,685.95L679.58,685.95c0,0-8.46,2.11-21.57,37.63C644.9,759.11,640.25,805,640.25,805
	s-7.37,12.49,24.1,13.32c0,0-2.53,8.25,15.23,6.98c17.76-1.27,15.2-1.25,15.2-1.25s11.42-7.19,16.49-5.92
	c5.08,1.27,8.25,1.7,13.74,6.34c5.49,4.65,23.06,2.75,23.27-0.84c0.14-1.76,0.14-3.53,0-5.3c0,0,26.85,1.7,21.78-17.76
	s-9.3-51.39-9.3-51.39s-13.74-62.37-29.4-63.22C715.7,685.12,679.58,685.95,679.58,685.95z"/>
<rect x="615.22" y="764.04" transform="matrix(0.0918 -0.9958 0.9958 0.0918 -153.3423 1360.792)" class="st9" width="108.3" height="0.85"/>
<rect x="638.2" y="766.77" transform="matrix(3.839736e-03 -1 1 3.839736e-03 -74.886 1459.2235)" class="st9" width="113.55" height="0.85"/>
<path class="st14" d="M720.82,710.48"/>
<rect x="722.58" y="710.37" transform="matrix(0.9993 -0.0372 0.0372 0.9993 -28.0225 27.402)" class="st9" width="0.85" height="114.06"/>
<path class="st9" d="M747.88,818.33c-1.47-64.96-12.54-109.42-12.67-109.82l0.82-0.21c0.11,0.44,11.23,45,12.7,110.06L747.88,818.33
	z"/>
<path class="st9" d="M681.06,692.29c0,0-1.47,0.85,0,4.92"/>
<path class="st9" d="M685.3,692.29c0,0-4.02,2.53,0,6.77"/>
<path class="st9" d="M722.93,692.29c0,0,5.49,5.28,4.23,6.77"/>
<path class="st9" d="M727.36,691.03c0,0,0.86,6.34,4.03,8.04"/>
<g class="st13">
	<path class="st2" d="M951.8,680.89c0,0,20.75-8.26,29.72,1.82c8.97,10.08-6.15,22.34-6.15,22.34l-6.34,12.66l-14.92-1.63
		l-3.52-17.5L951.8,680.89z"/>
	<path class="st9" d="M975.38,704.99l-6.34,12.66l-14.92-1.59l-3.52-17.49l1.23-17.69l0.33-0.12c2.63-0.97,20.39-7.17,28.88,1.36
		c0.18,0.16,0.35,0.34,0.5,0.52C990.5,692.68,975.38,704.99,975.38,704.99z"/>
	<path class="st9" d="M975.38,704.99l-6.34,12.66l-14.92-1.59l-3.52-17.49l1.23-17.69l0.33-0.12c2.57,14.07,9.43,20.01,10.58,20.89
		l0.17,0.12l4.22-0.34c8.2-4.52,12.52-15.28,13.91-19.35c0.18,0.16,0.35,0.34,0.5,0.52C990.5,692.68,975.38,704.99,975.38,704.99z"
		/>
	<path class="st2" d="M1011.61,753.19c0,0-4.57,58.23-3.33,65.26c1.24,7.03-2.64,7.56-2.64,7.56s-16.54,3.69-19.66,1.23
		c-3.12-2.46-8.44-2.94-8.44-2.94s-12.29,2.81-17.77,0.71s-14.6-1.23-14.6-1.23s-7.03,4.23-8.97,3.34c-1.94-0.88-4.4-0.53-10.03-2.1
		c-5.63-1.57-8.8-3-5.81-12.67c2.99-9.67,0.37-40.29,0.18-43.99c-0.18-3.7-1.93-12.66-4.4-23.35c-2.47-10.69,4.22-8.44,4.22-8.44
		c15.67-8.09,9.16-23.93,6.7-30.96s1.4-7.37,3.33-7.37s9.33-6.33,9.33-6.33l3-2.69l9.14-8.21c2.27,15.38,9.65,21.83,10.88,22.79
		l0.17,0.14l4.22-0.36c10.2-5.62,14.42-20.89,14.42-20.89c1.23,2.09,3.97,4.47,7.03,6.69c4,2.83,8.18,5.42,12.5,7.74
		c7.37,4.4,1.94,8.8,1.94,8.8c-8.97,30.6,3.69,31.96,3.69,31.96C1016.01,739.24,1011.61,753.19,1011.61,753.19z"/>
	<path class="st9" d="M942.48,698.3c0,0-2.64,1.41-2.64,2.99"/>
	<path class="st9" d="M944.06,701.29c0,0-3.52,3.69-2.9,4.76"/>
	<path class="st9" d="M944.06,706.06c0,0-2.64,2.81-1.59,4.4"/>
	<path class="st9" d="M961.66,705.91l-11.06,10.68c-0.41-11.87-6.15-21.37-8.97-25.38l9.14-8.21
		C953.01,698.5,960.45,704.95,961.66,705.91z"/>
	<path class="st2" d="M962.72,703.8l-11.06,10.69c-0.39-11.88-6.15-21.37-8.96-25.39l9.14-8.21
		C954.12,696.39,961.49,702.84,962.72,703.8z"/>
	<path class="st9" d="M989.61,691.45c-4.42,6.91-12.65,25.15-12.65,25.15l-8.8-10.9c10.2-5.63,14.42-20.89,14.42-20.89
		C983.81,686.84,986.55,689.22,989.61,691.45z"/>
	<path class="st2" d="M988.53,689.33c-4.41,6.92-12.65,25.16-12.65,25.16l-8.78-10.89c10.2-5.62,14.42-20.89,14.42-20.89
		C982.75,684.74,985.49,687.12,988.53,689.33z"/>
	<path class="st9" d="M982.06,802.1c0,0-1.88,15.98-2.96,16.89"/>
	<path class="st9" d="M997.54,804.91c0,0,2.11,11.43,1.23,14.07"/>
	<path class="st9" d="M952.51,805.61c0,0-1.93,10.73,0,11.96"/>
	<path class="st9" d="M941.09,804.03c0,0-1.6,12.67-1.23,14.96"/>
	<path class="st9" d="M1000.18,742.28c0,0-4.92,3.87-4.57,4.92"/>
	<path class="st9" d="M1003.7,744.75c0,0-9.41,7.92-4.71,7.03S1003.7,744.75,1003.7,744.75z"/>
</g>
<linearGradient id="SVGID_2_" gradientUnits="userSpaceOnUse" x1="446.8113" y1="-21.3929" x2="446.8113" y2="542.6818" gradientTransform="matrix(1 0 0 -1 -92.22 943.77)">
	<stop  offset="0" style="stop-color:#808080;stop-opacity:0.25"/>
	<stop  offset="0.54" style="stop-color:#808080;stop-opacity:0.12"/>
	<stop  offset="1" style="stop-color:#808080;stop-opacity:0.1"/>
</linearGradient>
<path class="st16" d="M482.16,518.02l0.06-0.09l-0.11-0.09l0,0l-0.66-0.44l0.14,0.1c-0.99-0.57-2.25-0.29-2.9,0.64l-0.27,0.38l0,0
	L463.48,540l-2.61,3.82c-7.88-2.37-20.67,7.61-27.15,13.34c-0.41,0.36-0.79,0.69-1.13,1.01c-0.52-1.16-0.82-1.89-0.82-1.89
	c-0.32,3.52-12.73,8.79-15.63,10.71c-1.32,0.8-2.79,1.29-4.33,1.45c0.42-13.36-9.92-27.42-9.92-27.42l-25.26-32.14
	c-0.93-5.81-0.03-11.77,2.58-17.05c0.21-0.42,0.42-0.84,0.65-1.23h0.12c-0.96,2.7-1.49,5.53-1.59,8.39
	c0.06,2.18,2.08,12.72,4.92,12.29c0.57,0.06,1.13-0.21,1.45-0.69c2.26-2.63,2.46-7.1,2.35-11.25c-0.04,1.22-0.17,2.43-0.41,3.63
	c0.18-3.44-0.21-7.08-0.21-9.67c0-1.03,0-2.05,0.07-3.08h0.31c0,0.39,0,0.81,0,1.23c0-0.43,0-0.85,0-1.23h0.32
	c5.67-1.04,10.97-3.5,15.42-7.15c2.22-0.09,4.31-1.07,5.8-2.72c0.55,1.83,0.14,3.8-1.09,5.26c3.38-0.16,6.24-2.79,7.55-5.87
	c1.12-3.15,1.45-6.53,0.96-9.83c-0.49-3.31-0.73-6.65-0.73-9.99c0.23-1.81,0.33-3.62,0.29-5.44c-0.05-0.56-0.15-1.11-0.29-1.65h0.1
	c0.65,0.01,1.29-0.23,1.76-0.69c1.4-1.08,1.86-3.2,2.21-4.82c0.97-3.73,1.41-7.59,1.3-11.44c-0.07,1.17-0.22,2.35-0.39,3.52
	c0.31-4.42-0.31-8.73-3.23-11.93c-2.02-2.2-4.83-3.49-7.53-4.78c-0.97-0.35-1.82-0.95-2.46-1.76c-0.48-0.95-0.74-1.99-0.76-3.05
	c-0.95-6.46-7.03-10.96-13.09-13.52c-7.79-3.39-17.21-4.84-24.64-0.81c-3.69,1.95-6.51,5.01-9.83,7.51
	c-4.15,3.16-8.95,5.37-13.38,8.12c-4.44,2.75-8.6,6.24-10.78,10.99c-3.26,7.37-0.81,15.73-0.41,23.73
	c0.65,12.6-4.54,25.81-14.81,33.18c-1.23,0.75-2.33,1.71-3.26,2.81c-0.92,1.15-1.03,2.76-0.27,4.02c0.53,0.69,1.36,1.08,1.94,1.73
	c1.17,1.33,0.93,3.36,0.48,5.05c-1.49,5.55-4.47,10.59-8.6,14.58c0.18,1.3,1.79,1.82,3.11,2.02c3.48,0.51,6.99,0.77,10.51,0.76h1.51
	c-0.16,0.41-0.33,0.84-0.5,1.29c-1.91,5.01-4.38,12.73-3.55,17.45c1.23,7.45,5.16,41.51,3.22,47.48
	c-1.94,5.97,3.12,49.28,3.12,49.28s0.68,3.34,1.84,8.33c-3.04,7.15-6.5,15.09-8.23,18.28c-3.49,6.38-1.77,38.95,10.26,53.43
	c0,0,4.92,7.03,3.69,9.57c-1.23,2.54,0.22,7.03,0.22,7.03l1.91,42.14c-0.04,4.31-0.34,8.61-0.88,12.88
	c-5.14,6.35-13.05,15.62-16.78,17.13c-5.76,2.35-48.76,54.5-48.76,54.5s0.34,0.63,1.02,1.65l-1.23,1.4l-8.25,9.56l-0.65,0.75
	c-1.55-0.29-11.86-2.16-20.03-2.75h-0.81v-0.15c-2.86-0.33-5.76-0.25-8.6,0.23c-0.54,0.1-1.03,0.36-1.43,0.74
	c-2.79,3.42-4.29,57.05-4.29,57.05s2.97,26.85,12.29,28.35c0.47,0.17,0.97,0.26,1.47,0.27h0.41c6.64-0.49,9.68-4.29,11.06-6.89
	c0.41-0.78,0.72-1.6,0.92-2.46c0,0-1.08-4.78,1.82-11.38s8.32-18.21,8.32-18.21s9.83-10.34,8.07-15.35
	c0.27-0.41,0.59-0.85,0.93-1.35c3.69-5.26,11.16-15.65,17.21-22.58c0.39-0.47,0.79-0.9,1.23-1.33c2.2,0.93,4.5,1.59,6.86,1.98
	c0,0,9.24-3.61,12.67-11.7c1.46-3.44,7.2-9.54,13.31-15.4l-0.2,1.56l-0.21,51.3c1.99,1.36,4.1,2.53,6.32,3.48v1.23
	c0.04,7.31-0.4,14.61-1.33,21.86l-0.18,1.14c-0.76-0.54-1.43-0.73-1.84-0.31c-1.89,1.92-3.07,14.16-3.18,19.8c0,0.18,0,0.37,0,0.57
	c-0.31,5.63-3.52,13.81,6.15,14.23c7.23,0.31,38.38,0.77,55.05,1.02c8.98,0.17,17.71-2.93,24.58-8.71c5.3-4.54,8.51-9.93,1.29-13.9
	c-0.44-0.25-0.91-0.48-1.43-0.71l-15.98-2.46l-27.3-13.94c0,0-0.16-8.43-3.44-7.03c-0.97,0.21-1.91,0.58-2.77,1.09
	c-0.16-0.31-0.33-0.64-0.49-0.98c-2.22-4.41-3.38-9.27-3.37-14.21c0-0.44,0-0.9,0.06-1.35c0.8-0.73,1.55-1.5,2.26-2.32
	c0,0-0.21-19.16,1.94-22.77c2.15-3.61,8.81-40.24,8.81-40.24s0.21-6.81,4.51-10.85c4.3-4.04,2.79-15.76,2.79-15.76
	s6.02-3.2,7.95-13.62c1.93-10.42,8.17-33.18,8.17-33.18s12.89-33.64,12.04-54.91c-0.85-21.27,1.23-32.36,1.23-32.36l2.68-49.46
	v-0.76c1.07,0.81,1.79,1.47,1.79,1.47s0-0.2,0-0.54c0.39,0.33,0.61,0.54,0.61,0.54s1.38-22.44,0.91-31.34
	c7.52-2.56,18.98-6.76,19.66-8.9c0.96-3.18,13.86-13.25,13.86-13.25c-0.28-0.05-0.55-0.15-0.79-0.29c0.41-0.18,0.82-0.41,1.23-0.64
	c8.46-4.52,24.16-17.75,21.52-25.81l17.21-24.69C483.7,521.63,483.52,519.45,482.16,518.02z"/>
<path class="st17" d="M442.13,577.65c-1.26,0.79-2.66,1.32-4.12,1.56c-5.37,0.16-9.83-14.38-9.83-14.38s1.52-1.55,3.96-3.69
	c7.2-6.4,22.31-18.23,29.39-11.61C469.51,556.92,451.43,572.65,442.13,577.65z"/>
<path class="st17" d="M360.48,924.4l-19.82,21.4c0,0-18.34,0.21-14.75-9.91c0.72-2.19,1.23-4.45,1.52-6.74
	c0.9-7.18,1.33-14.42,1.29-21.66c0-4.74-0.07-8.07-0.07-8.07s28.87-12.65,25.92,0.53c-0.37,1.65-0.56,3.33-0.59,5.01
	c-0.01,4.88,1.12,9.7,3.29,14.07C358.17,920.93,359.24,922.72,360.48,924.4z"/>
<path class="st9" d="M360.48,924.4l-19.82,21.4c0,0-18.34,0.21-14.75-9.91c0.72-2.19,1.23-4.45,1.52-6.74c2.62,2.03,6.38,8,6.38,8
	s12.65,3.69,16.13-7.37c1.94-6.15,5.01-9.25,7.37-10.74C358.19,920.93,359.25,922.72,360.48,924.4z"/>
<path class="st18" d="M406.48,956.63c-6.72,5.73-15.31,8.79-24.14,8.6c-16.35-0.23-46.89-0.71-53.98-1.01
	c-9.49-0.42-6.34-8.52-6.03-14.1c0-0.2,0-0.37,0-0.55c0.11-5.59,1.23-17.71,3.12-19.6s8.37,8.43,8.37,8.43s12.65,3.69,16.13-7.37
	c3.48-11.06,10.55-12.13,10.55-12.13c3.21-1.39,3.37,6.96,3.37,6.96l26.77,13.8l15.71,2.46c0.5,0.23,0.96,0.47,1.39,0.7
	C414.82,946.79,411.67,952.13,406.48,956.63z"/>
<circle class="st19" cx="357.02" cy="934.2" r="1.16"/>
<circle class="st19" cx="367.88" cy="939.58" r="1.16"/>
<circle class="st19" cx="373.46" cy="942.07" r="1.16"/>
<circle class="st19" cx="385.05" cy="946.52" r="1.16"/>
<circle class="st19" cx="379.15" cy="944.63" r="1.16"/>
<path class="st18" d="M406.48,956.63c-6.72,5.73-15.31,8.79-24.14,8.6c-16.35-0.23-46.89-0.71-53.98-1.01
	c-9.49-0.42-6.34-8.52-6.03-14.1l59.57,3.69c0,0,24.4-3.69,25.81-10.96C414.82,946.79,411.67,952.13,406.48,956.63z"/>
<path class="st19" d="M406.48,956.63c-6.72,5.73-15.31,8.79-24.14,8.6c-16.35-0.23-46.89-0.71-53.98-1.01
	c-9.49-0.42-6.34-8.52-6.03-14.1l59.57,3.69c0,0,24.4-3.69,25.81-10.96C414.82,946.79,411.67,952.13,406.48,956.63z"/>
<path class="st17" d="M295.58,870.65c-2.19,1.79-4.19,3.8-5.97,6c-5.91,6.86-13.22,17.21-16.85,22.34c-1.4,2.02-2.25,3.28-2.25,3.28
	l-7.92-1.17c0,0-8.53-13.06-8.42-13.37c0.11-0.31,6.76-14.34,6.76-14.34l2.57-3.01l8.1-9.46l3.69-4.28
	C275.29,856.64,302.72,865.49,295.58,870.65z"/>
<path class="st9" d="M272.75,899.02c-1.4,2.02-2.25,3.28-2.25,3.28l-7.92-1.17c0,0-8.53-13.06-8.42-13.37
	c0.11-0.31,6.76-14.37,6.76-14.37l2.57-3.01l0.84,0.16h2.02c-7.07,7.37,0.52,23.6,0.52,23.6S270.14,894.45,272.75,899.02z"/>
<path class="st18" d="M263.92,915.54c0,0-5.27,11.38-8.12,17.92S254,944.73,254,944.73c-0.2,0.85-0.5,1.68-0.9,2.46
	c-2.06,4.1-6.21,6.72-10.79,6.83h-0.52c-9.61-0.25-12.66-28.15-12.66-28.15s1.47-53.11,4.22-56.54c0.38-0.38,0.86-0.64,1.39-0.74
	c2.8-0.48,5.65-0.56,8.47-0.23c8.69,0.63,19.86,2.77,19.86,2.77h2c-7.07,7.37,0.52,23.61,0.52,23.61s3.38,0.31,6.01,5.05
	C274.23,904.54,263.92,915.54,263.92,915.54z"/>
<circle class="st19" cx="252.32" cy="899.73" r="1.16"/>
<circle class="st19" cx="251.74" cy="908.94" r="1.16"/>
<path class="st18" d="M252.33,946.95c-2.06,4.1-6.21,6.72-10.79,6.83h-0.5c-9.61-0.25-12.67-28.15-12.67-28.15
	s1.47-53.11,4.22-56.54c0.38-0.38,0.86-0.64,1.39-0.74c2.8-0.48,5.65-0.56,8.47-0.23c-0.16,9.55-0.61,39.72,0,42.72
	C243.05,913.86,248.49,938.95,252.33,946.95z"/>
<path class="st19" d="M252.33,946.95c-2.06,4.1-6.21,6.72-10.79,6.83h-0.5c-9.61-0.25-12.67-28.15-12.67-28.15
	s1.47-53.11,4.22-56.54c0.38-0.38,0.86-0.64,1.39-0.74c2.8-0.48,5.65-0.56,8.47-0.23c-0.16,9.55-0.61,39.72,0,42.72
	C243.05,913.86,248.49,938.95,252.33,946.95z"/>
<path class="st18" d="M241.02,953.81c-9.61-0.25-12.67-28.15-12.67-28.15s1.47-53.11,4.22-56.54c0.38-0.38,0.86-0.64,1.39-0.74
	c2.02,3,3.79,9.64,2.19,24.24c-3,27.67,0.61,29.41,0.61,29.41S241.27,945.55,241.02,953.81z"/>
<path class="st9" d="M241.02,953.81c-9.61-0.25-12.67-28.15-12.67-28.15s1.47-53.11,4.22-56.54c0.38-0.38,0.86-0.64,1.39-0.74
	c2.02,3,3.79,9.64,2.19,24.24c-3,27.67,0.61,29.41,0.61,29.41S241.27,945.55,241.02,953.81z"/>
<path class="st9" d="M442.13,577.65c-1.26,0.79-2.66,1.32-4.12,1.56c-5.37,0.16-9.83-14.38-9.83-14.38s1.52-1.55,3.96-3.69
	C433.9,565.08,438.74,575.68,442.13,577.65z"/>
<path class="st20" d="M407.67,572.41c0,0,4.42,0.32,7.26-1.57c2.84-1.89,15.02-7.12,15.34-10.59c0,0,7.26,17.7,11.38,18.34
	c0,0-12.65,9.96-13.59,13.11c-0.95,3.16-25.61,10.91-25.61,10.91L407.67,572.41z"/>
<path class="st9" d="M407.67,572.41c0,0,4.42,0.32,7.26-1.57c2.84-1.89,15.02-7.12,15.34-10.59c0,0,7.26,17.7,11.38,18.34
	c0,0-12.65,9.96-13.59,13.11c-0.95,3.16-25.61,10.91-25.61,10.91L407.67,572.41z"/>
<path class="st9" d="M295.58,870.65c-2.19,1.79-4.19,3.8-5.97,6c-9.54-3.99-15.68-12.16-18.02-15.73l3.69-4.28
	C275.27,856.64,302.72,865.49,295.58,870.65z"/>
<path class="st21" d="M340.68,781.03c0,0-15.46,20.66-21.12,22.98c-5.65,2.32-47.8,53.96-47.8,53.96s9.06,16.65,25.71,19.38
	c0,0,9.06-3.58,12.44-11.59s29.93-30.65,29.93-30.65L340.68,781.03z"/>
<path class="st9" d="M340.68,781.03c0,0-15.46,20.66-21.12,22.98c-5.65,2.32-47.8,53.96-47.8,53.96s9.06,16.65,25.71,19.38
	c0,0,9.06-3.58,12.44-11.59s29.93-30.65,29.93-30.65L340.68,781.03z"/>
<path class="st9" d="M293.85,850.17c4.68,0.49,9.39,0.49,14.07,0C316.24,849.37,309.97,854.43,293.85,850.17z"/>
<path class="st9" d="M290.05,855.54c0,0,11.06,6.32,15.34,3.16C309.66,855.54,301.27,861.74,290.05,855.54z"/>
<path class="st9" d="M354.6,899.96c-0.37,1.65-0.56,3.33-0.59,5.01c-8.54,7.76-18.83,5.36-25.26,2.53c0-4.74-0.07-8.07-0.07-8.07
	S357.55,886.73,354.6,899.96z"/>
<path class="st21" d="M405.81,625l-0.31,5.83l-2.63,48.98c0,0-2.11,10.96-1.23,32.03s-11.85,54.45-11.85,54.45
	s-6.15,22.55-8.01,32.88c-1.87,10.32-7.79,13.52-7.79,13.52s1.47,11.59-2.74,15.6s-4.42,10.74-4.42,10.74s-6.54,36.26-8.6,39.85
	c-2.06,3.59-1.91,22.55-1.91,22.55c-13.69,16.22-33.71,1.47-33.71,1.47l0.21-50.8c0,0,5.69-46.79,9.91-53.33s4.22-24.45,4.22-24.45
	l-1.88-41.79c0,0-1.5-4.42-0.21-6.96c1.29-2.53-3.6-9.48-3.6-9.48c-11.81-14.34-13.52-46.59-10.07-52.85
	c3.45-6.26,13.67-31.61,13.67-31.61l14.1-8.22l25.48,0.75L405.81,625z"/>
<path class="st9" d="M345.86,873.4c0,0,3.33,11.54,6.01,12.81C354.55,887.47,345.86,873.4,345.86,873.4z"/>
<path class="st9" d="M350.44,834.99c0,0,8.6,6.81,12.29,6.8C366.42,841.77,350.44,834.99,350.44,834.99z"/>
<path class="st17" d="M402.44,549.65v13.91l-9.18-3.96l-9.16-3.95l-19.94-19.6c0,0-15.77-10.24-24.2-19.57
	c-4.82-5.32-7.24-10.35-3-13c2.06-1.35,3.91-2.97,5.52-4.83c4.24-5,7.92-10.43,10.99-16.22c0.14-0.23,0.27-0.47,0.39-0.7
	c4.11-7.53,6.82-13.96,6.82-13.96s11.55,3.69,18.98,8.95c0.6,0.42,1.17,0.85,1.71,1.29c4.14,3.39,6.21,7.37,2.38,11.26
	c-0.98,1.02-1.89,2.1-2.72,3.24l0,0c-0.62,0.85-1.18,1.74-1.7,2.65c-0.22,0.42-0.44,0.82-0.64,1.23
	c-2.56,5.23-3.44,11.12-2.53,16.87L402.44,549.65z"/>
<path class="st22" d="M400.76,450.42c0.48,0.84,1.14,1.55,1.59,2.4c0.75,1.87,0.99,3.91,0.7,5.9c-0.24,3.15-0.03,6.32,0.61,9.41
	c0.65,2.78,1.87,5.46,1.97,8.31c0.14,4.02-1.95,7.74-3.97,11.22c2.21-0.07,4.3-1.04,5.78-2.69c0.54,1.8,0.15,3.75-1.06,5.2
	c3.31-0.16,6.15-2.77,7.37-5.81c1.12-3.15,1.45-6.53,0.95-9.83c-0.48-3.28-0.72-6.58-0.71-9.89c0.23-1.79,0.32-3.59,0.28-5.4
	c-0.31-3.58-2.46-6.69-4.62-9.59l-4.28-5.87c-0.3-0.48-0.72-0.87-1.23-1.12C400.1,440.93,399.63,448.38,400.76,450.42z"/>
<path class="st9" d="M383.84,489.27c-0.98,1.02-1.89,2.1-2.72,3.24l0,0c-0.62,0.85-1.18,1.74-1.7,2.65
	c-0.22,0.42-0.44,0.82-0.64,1.23c-9.86-0.55-18.97-5.47-24.84-13.42c-0.14-0.18-0.27-0.37-0.39-0.57c0.14-0.23,0.27-0.47,0.39-0.7
	c4.11-7.53,6.82-13.96,6.82-13.96s11.55,3.69,18.98,8.95c0.6,0.42,1.17,0.85,1.71,1.29C385.54,481.4,387.61,485.34,383.84,489.27z"
	/>
<path class="st17" d="M413.8,462.02c0,16.01-11.43,29.74-27.17,32.64c-1.99,0.36-4,0.54-6.02,0.54h-0.15c-0.36,0-0.73,0-1.08,0
	c-18.31-0.68-32.61-16.08-31.93-34.39c0.68-18.31,16.08-32.61,34.39-31.93c17.83,0.66,31.94,15.3,31.96,33.14H413.8z"/>
<path class="st9" d="M384.95,544.07c0,0,16.72,9.43,12.44,1.47l-21.82-32.25l0,0l24.77,31.82c0,0,15.81,21.72,7.17,36.67
	c0,0-1.23,12.44,0.21,15.39c1.44,2.95-0.42,34.41-0.42,34.41s-5.91-5.48-9.07-4.44c-3.16,1.04-25.45,2.91-25.45,2.91L384.95,544.07z
	"/>
<path class="st9" d="M405.81,625l-0.31,5.83c-2-1.45-4.79-3.07-6.65-2.46c-3.16,1.06-25.49,2.96-25.49,2.96l1.02-7.26L405.81,625z"
	/>
<path class="st22" d="M385.58,544.07c0,0,16.73,9.43,12.44,1.47L376.2,513.3l0,0l24.77,31.82c0,0,15.81,21.72,7.17,36.67
	c0,0-1.23,12.44,0.21,15.39c1.44,2.95-0.42,34.41-0.42,34.41s-5.9-5.48-9.06-4.44c-3.16,1.04-25.5,2.96-25.5,2.96L385.58,544.07z"/>
<path class="st9" d="M394.52,560.23c-0.97,10.14-5.14,22.2-5.14,22.2s-2.95,29.93-6.77,38.83s-2.11,21.08-4.22,43.63
	c-0.76,8.12-3.38,13.7-6.91,17.46c-5.8,6.15-14.08,7.48-20.62,7.1l-1.55-0.12c-10.55-1.04-20.66-51.84-20.66-51.84
	s-4.84-43.21-2.95-49.16c1.89-5.95-1.87-39.59-3.13-46.96c-0.81-4.68,1.61-12.29,3.48-17.28c1.09-2.88,1.99-4.92,1.99-4.92
	s3.59-11.38,9.49-17.28c1.64-1.69,3.9-2.64,6.26-2.63c2.77,0.11,5.47,0.96,7.8,2.46c0.09,0.05,0.19,0.12,0.27,0.18
	c0,0,38.37,39.21,41.95,48.26C394.8,552.71,394.9,556.33,394.52,560.23z"/>
<path class="st20" d="M393.26,559.61c-0.98,10.13-5.15,22.18-5.15,22.18s-2.95,29.94-6.75,38.79s-2.1,21.08-4.22,43.63
	c-0.76,8.11-3.38,13.69-6.91,17.46c-5.8,6.15-14.08,7.47-20.62,7.1l-1.55-0.12c-10.55-1.06-20.66-51.85-20.66-51.85
	s-4.84-43.2-2.95-49.1c1.89-5.9-1.89-39.62-3.16-47.01c-0.81-4.67,1.61-12.29,3.48-17.28c1.09-2.88,1.99-4.85,1.99-4.85
	s3.59-11.38,9.49-17.28c1.64-1.69,3.9-2.64,6.26-2.62c2.78,0.1,5.47,0.95,7.8,2.46l0.27,0.17c0,0,38.37,39.21,41.95,48.26
	C393.53,552.07,393.67,555.7,393.26,559.61z"/>
<path class="st9" d="M350.28,713.9c0,0-8.7,7.74-11.7,7.37C335.58,720.91,350.28,713.9,350.28,713.9z"/>
<path class="st9" d="M352.59,721.34c0,0-9.17,4.25-11.91,4.92C337.94,726.92,349.05,720.24,352.59,721.34z"/>
<path class="st9" d="M388.06,604.98c0,0,13.59,0.16,15.65,4.42S392.44,603.24,388.06,604.98z"/>
<path class="st9" d="M386.16,612.41c0,0,10.43,2.21,13.59,4.74C402.91,619.68,386.16,612.41,386.16,612.41z"/>
<path class="st9" d="M368.62,586.65c0,0-1.23,42.83-5.92,48.38S368.62,586.65,368.62,586.65z"/>
<path class="st9" d="M356.92,707.73c0,0-8.73,37.78,8.78,40.12c17.5,2.34,12.09-43.02,12.09-43.02L356.92,707.73z"/>
<path class="st17" d="M356.28,707.1c0,0-8.68,37.78,8.79,40.14c17.46,2.36,12.08-43.02,12.08-43.02L356.28,707.1z"/>
<path class="st9" d="M413.59,458.36c-0.49-0.72-0.9-1.49-1.23-2.3c-2.32-4.84-8.3-2.46-12.67-0.16l-2.34,3.01
	c-1.07,1.25-1.96,2.63-2.67,4.12c-0.45,1.2-0.82,2.44-1.12,3.69c-0.6,2.14-1.49,4.18-2.29,6.27c-2.65,6.95-4.22,14.26-4.66,21.68
	c-1.99,0.36-4,0.54-6.02,0.54h-0.15v-0.15c0.22-0.84,0.41-1.68,0.58-2.53l0,0c0.92-4.78,1.03-9.68,0.33-14.5c0-0.11,0-0.21,0-0.32
	c-0.16-1.07-0.37-2.15-0.45-3.22c-0.41,0.74-0.8,1.49-1.23,2.25c-2.64,4.92-5.42,9.83-10.41,11.98c-2.02,0.79-4.16,1.28-6.33,1.43
	c-2.68,0.14-5.33,0.58-7.92,1.32c-0.88,0.24-1.68,0.72-2.3,1.39c-0.69,1.03-1.09,2.23-1.16,3.47c-0.27,1.64-0.68,3.24-1.23,4.81
	c-2.26,5.83-5.78,11.09-10.32,15.39l-1.14,1.11c-1.95,2.01-4.27,3.62-6.83,4.73c-2.33,0.78-4.78,1.15-7.24,1.08
	c1.09-2.88,1.99-4.85,1.99-4.85s3.59-11.38,9.49-17.28c1.64-1.69,3.9-2.64,6.26-2.62c4.4-5.21,8.22-10.88,11.38-16.92
	c-10.87-14.75-7.73-35.53,7.03-46.4c14.75-10.87,35.53-7.73,46.4,7.03c3.46,4.7,5.62,10.22,6.27,16.02L413.59,458.36z"/>
<path class="st22" d="M415.71,432.46c-1.97-2.19-4.73-3.47-7.37-4.73c-0.94-0.36-1.77-0.96-2.4-1.75c-0.46-0.94-0.71-1.97-0.74-3.01
	c-0.92-6.42-6.89-10.85-12.83-13.46c-7.64-3.36-16.83-4.79-24.16-0.81c-3.56,1.94-6.38,4.98-9.6,7.45
	c-4.08,3.12-8.78,5.31-13.13,8.04s-8.51,6.15-10.57,10.89c-3.2,7.25-0.8,15.57-0.39,23.49c0.63,12.49-4.45,25.53-14.53,32.91
	c-1.21,0.74-2.29,1.69-3.2,2.79c-0.9,1.14-1,2.72-0.26,3.97c0.5,0.69,1.34,1.08,1.89,1.72c1.16,1.32,0.92,3.32,0.47,5.01
	c-1.46,5.48-4.37,10.46-8.43,14.42c0.17,1.3,1.75,1.81,3.04,2c3.41,0.51,6.86,0.76,10.31,0.75c5.45,0.45,10.8-1.71,14.42-5.81
	c6.15-5.78,11.34-12.99,12.73-21.3c0.07-1.24,0.47-2.43,1.16-3.47c0.63-0.66,1.42-1.14,2.3-1.39c4.58-1.57,9.83-0.8,14.24-2.74
	c5.75-2.46,8.6-8.6,11.61-14.23c0.1,1.07,0.29,2.15,0.47,3.23c0.88,5.78,0.59,11.69-0.86,17.35c-0.82,3.21-2.02,6.4-1.93,9.71
	c0.06,2.46,2.56,15.3,5.84,11.45s2.08-12.35,2.08-17.12c0-8.93,1.64-17.78,4.83-26.12c0.79-2.08,1.68-4.13,2.29-6.27
	c0.3-1.25,0.67-2.48,1.11-3.69c0.71-1.48,1.61-2.86,2.68-4.12l2.35-3.01c4.38-2.32,10.35-4.68,12.67,0.16
	c0.88,1.86,1.36,3.91,3.69,2.1c1.36-1.07,1.81-3.17,2.16-4.77C419.1,445.43,420.3,437.55,415.71,432.46z"/>
<path class="st9" d="M371.23,548.5c-0.9-22.7-32.67-27.4-40.08-5.92c-0.06,0.14-0.11,0.29-0.15,0.44
	c-4.85,14.54-2.74,51.36-2.74,51.36s0.63,24.73,2.95,32.95s8.85,31.82,8.85,35.64s6.06,18.34,8.6,19.39
	c2.54,1.06,3.83,9.27,4.46,10.74c0.63,1.47,2.46,20.66,2.46,20.66s23.82-1.47,24.24-5.27c0.42-3.8-5.27-22.34-5.27-22.34
	s-4.19-7.58-4.73-13.69c-0.54-6.11-3.83-8.89-3.18-13.1s-1.91-6.32-1.91-9.06c0-2.74-1.89-10.12-1.89-10.12s-4.01-3.17-3.37-6.96
	s-5.69-11.38-4.01-14.12c1.68-2.74,2.1-9.49,2.1-9.49s2.11-30.35,3.59-38.57s10.12-21.5,10.12-21.5S371.25,549.17,371.23,548.5z"/>
<path class="st9" d="M370.24,681.68c-5.8,6.15-14.08,7.47-20.62,7.1c-0.76-2.88-1.87-6.42-3.48-7.08c-2.56-1.06-8.6-15.6-8.6-19.38
	c0-3.79-6.53-27.41-8.85-35.64c-2.32-8.23-2.95-32.94-2.95-32.94s-2.11-36.87,2.74-51.37c0-0.14,0.09-0.28,0.15-0.43
	c7.37-21.48,39.18-16.78,40.08,5.92c0,0.68,0,1.04,0,1.04s-8.6,13.27-10.12,21.5s-3.56,38.57-3.56,38.57s-0.43,6.75-2.11,9.49
	c-1.68,2.74,4.63,10.34,4.01,14.12c-0.63,3.79,3.37,6.96,3.37,6.96s1.89,7.37,1.89,10.13s2.53,4.84,1.91,9.06s2.74,6.96,3.28,13.06
	C367.82,675.21,368.79,678.54,370.24,681.68z"/>
<path class="st20" d="M369.96,547.87c-0.9-22.7-32.67-27.4-40.08-5.92l-0.15,0.43c-4.85,14.55-2.74,51.37-2.74,51.37
	s0.63,24.72,2.95,32.94s8.85,31.83,8.85,35.64c0,3.81,6.06,18.34,8.6,19.39c2.54,1.06,3.83,9.28,4.46,10.75
	c0.63,1.47,2.46,20.65,2.46,20.65s23.82-1.47,24.24-5.26c0.42-3.79-5.26-22.34-5.26-22.34s-4.2-7.6-4.74-13.7
	c-0.54-6.11-3.91-8.85-3.27-13.06s-1.91-6.33-1.91-9.07c0-2.74-1.89-10.12-1.89-10.12s-4.01-3.16-3.37-6.96
	c0.64-3.8-5.69-11.38-4.01-14.12c1.68-2.74,2.1-9.48,2.1-9.48s2.11-30.36,3.59-38.58s10.12-21.5,10.12-21.5
	S369.98,548.55,369.96,547.87z"/>
<path class="st9" d="M330.84,606.25c0.63-0.64,12.65-13.91,16.43-9.17C351.06,601.82,330.84,606.25,330.84,606.25z"/>
<path class="st9" d="M331.95,616.52c0.47-0.48,12.01-0.95,14.86-7.37C349.66,602.72,331.95,616.52,331.95,616.52z"/>
<g class="st15">
	<path d="M318.79,499.96c0.28,0.33,0.5,0.72,0.63,1.14c0.47-1.45,0.24-3.04-0.63-4.3c-0.57-0.65-1.39-1.03-1.91-1.72
		c0,0-0.06-0.11-0.1-0.17c-0.58,1.04-0.54,2.32,0.1,3.33C317.47,498.93,318.23,499.32,318.79,499.96z"/>
	<path d="M334.88,459.02c0-1.23,0-2.46,0-3.59c-0.22-4.3-1.02-8.71-1.23-13.03c-0.26,5.28,0.92,10.83,1.23,16.19
		C334.88,458.71,334.87,458.85,334.88,459.02z"/>
	<path d="M384.14,511.8c-2.93,3.43-5.22-6.44-5.73-10.34c-0.08,0.68-0.12,1.36-0.11,2.04c0.07,2.46,2.56,15.3,5.84,11.45
		c2.22-2.61,2.46-7.04,2.31-11.14C386.29,506.95,385.8,509.85,384.14,511.8z"/>
	<path d="M381.1,476.44c0.25,1.65,0.4,3.32,0.45,4.99c0.11-2.73-0.05-5.46-0.45-8.16c-0.16-1.07-0.37-2.15-0.47-3.23
		c-3.04,5.68-5.85,11.75-11.6,14.24c-4.46,1.93-9.66,1.17-14.24,2.74c-0.88,0.24-1.68,0.72-2.3,1.39c-0.69,1.03-1.09,2.23-1.16,3.47
		c-1.4,8.31-6.61,15.52-12.75,21.3c-3.62,4.11-8.96,6.26-14.42,5.81c-3.45,0-6.89-0.25-10.3-0.75c-0.53-0.08-1.05-0.22-1.55-0.41
		c-0.48,0.54-0.98,1.06-1.5,1.56c0.17,1.3,1.76,1.81,3.05,2c3.41,0.51,6.85,0.76,10.3,0.75c5.45,0.45,10.8-1.71,14.42-5.81
		c6.15-5.78,11.34-12.99,12.75-21.3c0.07-1.24,0.47-2.44,1.16-3.47c0.63-0.66,1.42-1.14,2.3-1.39c4.58-1.57,9.83-0.8,14.24-2.74
		c5.75-2.46,8.6-8.6,11.6-14.23C380.73,474.27,380.94,475.36,381.1,476.44z"/>
	<path d="M417.99,448.97c-0.36,1.6-0.81,3.69-2.18,4.77c-2.31,1.79-2.78-0.25-3.69-2.1c-2.32-4.84-8.3-2.46-12.67-0.16l-2.35,3.01
		c-1.07,1.25-1.96,2.63-2.67,4.12c-0.45,1.2-0.82,2.43-1.11,3.69c-0.61,2.14-1.5,4.18-2.3,6.26c-3.18,8.34-4.81,17.19-4.82,26.12
		c0,0.41,0,0.85,0,1.3c0.22-8.3,1.84-16.5,4.81-24.25c0.8-2.08,1.68-4.13,2.3-6.27c0.29-1.25,0.66-2.48,1.11-3.69
		c0.7-1.48,1.6-2.87,2.67-4.12l2.35-3.01c4.38-2.32,10.35-4.68,12.67,0.16c0.9,1.86,1.36,3.91,3.69,2.1
		c1.36-1.07,1.82-3.17,2.18-4.77c0.93-3.7,1.34-7.52,1.23-11.33C419.01,443.55,418.6,446.28,417.99,448.97z"/>
</g>
<path class="st22" d="M446.74,568.63l0.65,0.44c-1.2-0.8-1.52-2.41-0.73-3.61c0.02-0.03,0.03-0.05,0.05-0.07l29.3-42.45
	c0.81-1.18,2.42-1.49,3.6-0.68c0.01,0,0.01,0.01,0.02,0.01l-0.65-0.45c1.9,1.31,2.38,3.92,1.07,5.83l-27.49,39.91
	C451.25,569.45,448.65,569.93,446.74,568.63z"/>
<path class="st23" d="M479.3,521.97l0.5,0.34l0,0l-32.25,46.82l0,0l-0.5-0.34c-0.97-0.67-1.22-2-0.55-2.97l29.82-43.29
	c0.67-0.97,2-1.22,2.97-0.55L479.3,521.97z"/>
<path class="st22" d="M475.59,528.31l0.09,0.06c0.1,0.07,0.12,0.2,0.05,0.29l-2.39,3.47c-0.07,0.1-0.2,0.12-0.29,0.05l-0.09-0.06
	c-0.1-0.07-0.12-0.2-0.05-0.29l2.39-3.47C475.36,528.27,475.49,528.24,475.59,528.31z"/>
<path class="st8" d="M1097.45,376.96c0.03,11.72-9.45,21.25-21.18,21.27c-11.72,0.03-21.25-9.45-21.27-21.18
	c-0.03-11.72,9.45-21.25,21.18-21.27c0.02,0,0.03,0,0.05,0C1087.92,355.78,1097.42,365.25,1097.45,376.96z M1073.76,388.19
	l15.76-15.74c0.53-0.54,0.53-1.39,0-1.93l-1.94-1.94c-0.52-0.53-1.38-0.54-1.91-0.02c-0.01,0.01-0.01,0.01-0.02,0.02l-12.84,12.84
	l-6-5.97c-0.54-0.53-1.4-0.53-1.94,0l-1.93,1.94c-0.53,0.52-0.54,1.38-0.02,1.91c0.01,0.01,0.01,0.01,0.02,0.02l8.9,8.9
	c0.52,0.53,1.38,0.54,1.91,0.02c0.01-0.01,0.01-0.01,0.02-0.02V388.19z"/>
<path class="st8" d="M840.32,609.91c0,11.72-9.5,21.23-21.23,21.23c-11.72,0-21.23-9.5-21.23-21.23c0-11.72,9.5-21.23,21.23-21.23
	C830.81,588.69,840.32,598.19,840.32,609.91C840.32,609.91,840.32,609.91,840.32,609.91z M816.63,621.15l15.81-15.74
	c0.54-0.53,0.54-1.39,0.01-1.93c0,0-0.01-0.01-0.01-0.01l-1.99-1.87c-0.53-0.54-1.39-0.54-1.93-0.01c0,0-0.01,0.01-0.01,0.01
	l-12.84,12.78l-6-6c-0.52-0.53-1.38-0.54-1.91-0.02c-0.01,0.01-0.01,0.01-0.02,0.02l-1.94,1.93c-0.53,0.54-0.53,1.4,0,1.94l8.9,8.9
	c0.53,0.54,1.39,0.54,1.93,0.01C816.63,621.15,816.63,621.15,816.63,621.15z"/>
<path class="st8" d="M840.32,841.78c0,11.72-9.5,21.23-21.23,21.23c-11.72,0-21.23-9.5-21.23-21.23c0-11.72,9.5-21.23,21.23-21.23
	C830.81,820.56,840.32,830.06,840.32,841.78C840.32,841.78,840.32,841.78,840.32,841.78z M816.63,853.02l15.81-15.74
	c0.54-0.53,0.54-1.39,0.01-1.93c0,0-0.01-0.01-0.01-0.01l-1.93-1.93c-0.53-0.54-1.39-0.54-1.93-0.01c0,0-0.01,0.01-0.01,0.01
	l-12.84,12.84l-6-6c-0.52-0.53-1.38-0.54-1.91-0.02c-0.01,0.01-0.01,0.01-0.02,0.02l-1.94,1.93c-0.53,0.54-0.53,1.4,0,1.94l8.9,8.9
	c0.53,0.54,1.39,0.54,1.93,0.01c0,0,0.01-0.01,0.01-0.01H816.63z"/>
</svg>
