<?xml version="1.0" encoding="utf-8"?>
<!-- Generator: Adobe Illustrator 24.0.0, SVG Export Plug-In . SVG Version: 6.00 Build 0)  -->
<svg version="1.1" id="Layer_1" xmlns="http://www.w3.org/2000/svg" xmlns:xlink="http://www.w3.org/1999/xlink" x="0px" y="0px"
	 viewBox="0 0 1600 1000" style="enable-background:new 0 0 1600 1000;" xml:space="preserve">
<style type="text/css">
	.st0{fill:#F2F2F2;}
	.st1{fill:#5360DE;}
	.st2{fill:#3F3D56;}
	.st3{fill:#FFFFFF;}
	.st4{opacity:0.3;fill:#5360DE;enable-background:new    ;}
	.st5{fill:#FFB9B9;}
	.st6{fill:#2F2E41;}
	.st7{fill:#575A89;}
	.st8{opacity:0.1;enable-background:new    ;}
</style>
<ellipse class="st0" cx="798.49" cy="937.95" rx="759.19" ry="43.66"/>
<rect x="281.09" y="107.73" class="st0" width="1140.52" height="36.28"/>
<circle class="st1" cx="311.61" cy="125.33" r="9.39"/>
<circle class="st1" cx="342.13" cy="125.33" r="9.39"/>
<circle class="st1" cx="372.65" cy="125.33" r="9.39"/>
<polygon class="st2" points="281.9,681.61 281.09,682.3 281.09,927.07 1421.61,927.07 1421.61,497.12 1408.02,498.15 "/>
<rect x="363.4" y="350.45" class="st2" width="318.49" height="12.84"/>
<rect x="363.4" y="378.7" class="st2" width="318.49" height="12.84"/>
<rect x="363.4" y="406.95" class="st2" width="107.88" height="12.84"/>
<rect x="1012.9" y="706.98" class="st3" width="318.49" height="12.84"/>
<rect x="1012.9" y="735.24" class="st3" width="318.49" height="12.84"/>
<rect x="1012.9" y="763.49" class="st3" width="107.88" height="12.84"/>
<circle class="st0" cx="815.02" cy="902.7" r="12.53"/>
<circle class="st0" cx="851.35" cy="903.95" r="12.53"/>
<circle class="st0" cx="887.68" cy="905.21" r="12.53"/>
<circle class="st2" cx="851.46" cy="903.95" r="10.02"/>
<rect x="468.42" y="497.45" class="st2" width="107.88" height="24.61"/>
<rect x="1109.63" y="830.49" class="st3" width="107.88" height="24.61"/>
<circle class="st4" cx="522.97" cy="509.88" r="74.62"/>
<circle class="st4" cx="522.97" cy="509.88" r="49.75"/>
<circle class="st1" cx="522.97" cy="509.88" r="34.55"/>
<circle class="st4" cx="1150.88" cy="324.94" r="74.62"/>
<circle class="st4" cx="1150.88" cy="324.94" r="49.75"/>
<circle class="st1" cx="1150.88" cy="324.94" r="34.55"/>
<circle class="st4" cx="1164.18" cy="842.93" r="74.62"/>
<circle class="st4" cx="1164.18" cy="842.93" r="49.75"/>
<circle class="st1" cx="1164.18" cy="842.93" r="34.55"/>
<rect x="159.93" y="224.34" transform="matrix(0.0387 -0.9992 0.9992 0.0387 -66.8034 409.9668)" class="st1" width="39.52" height="30.74"/>
<path class="st5" d="M303.64,357.67c0,0,42.53-20.32,41.85-2.77c-0.68,17.55-42.87,29.1-42.87,29.1L303.64,357.67z"/>
<path class="st6" d="M280.31,506.17c0,0,20.07,49.12,27.48,84.56c7.41,35.44,18.71,84.22,4.18,118.81
	c-14.52,34.59-55.82,136.26-56.24,147.23s3.54,22.11-5.24,21.77s-56.53-15.38-58.47-22.04c-1.94-6.67,16.29-23.54,16.29-23.54
	l45.02-141.07l-46.97-91.9l-33.88,137.11l-6.64,171.12c0,0-32.57-10.05-37.3-1.45c0,0-14.59-20.34-16.44-29.2
	c-1.85-8.86,6.89-177.7,6.89-177.7s-29.89-192.31-5.76-191.38C137.37,509.41,231.89,451.56,280.31,506.17z"/>
<path class="st6" d="M250.83,869.75c0,0,22.26,49.2,24.37,51.48c2.11,2.28,16.62,24.81,5.65,24.39s-36.87-12.42-55.93-30.73
	c-19.06-18.32-44.2-50.05-41.92-52.16s17.89-8.09,17.89-8.09L250.83,869.75z"/>
<path class="st6" d="M161.88,897.06c0,0,1.34,22.02,5.39,30.97c4.05,8.95,3.54,22.11-7.43,21.68s-39.32-5.92-39.32-5.92
	s-1.68-13.25,0.6-15.36c2.28-2.11,11.99-25.9,7.86-32.65C124.84,889.04,161.88,897.06,161.88,897.06z"/>
<path class="st5" d="M145.66,182.36c0,0-23.38,36.44-32.5,44.88c-9.12,8.44,16.53,27.01,16.53,27.01l45.9,6.17
	c0,0-0.58-41.77,1.79-46.07C179.74,210.05,145.66,182.36,145.66,182.36z"/>
<path class="st1" d="M185.55,230.05c0,0-9.46,17.21-18.23,16.87c-8.78-0.34-54.17-19.68-56.1-26.34
	c-1.94-6.67-15.03,47.75-15.03,47.75l111.07,195.46l27.09-18.72L221.21,330.3l-10.78-61.94L185.55,230.05z"/>
<path class="st7" d="M107.12,404.97c4.43,9.27,7.2,18.93,6.81,28.83c-0.02,0.44-0.03,0.88-0.07,1.32
	c-1.05,20.3-8.53,43.79-11.21,60.87c-1.95,12.25-1.39,21.19,5.78,23.29c17.38,5.07-2.53,8.69,64.71,31.07
	c67.24,22.38,78.98,3.06,79.15-1.33s-9.52-37.72-7.24-39.83c2.28-2.11,31.89,27.6,40.83,23.55c8.95-4.05,1.02-26.33,1.02-26.33
	s-20.15-46.92-19.73-57.89c0.43-10.97-30.53-62.7-30.53-62.7l-21.05-137.04c0,0-8.09-17.89-18.98-20.51
	c-10.88-2.62-19.91,3.62-19.91,3.62l18.21,40.26l19.22,71.05l-3.21,26.24c0,0-22.35-47.01-37.02-65.15
	c-14.68-18.15-45.97-61.11-45.97-61.11s-7.31-24.65-1.79-32.02c5.52-7.39-23-8.49-35.16,21.79c-6.45,16.05-16.91,39.99-23.46,62.28
	c-5.84,19.75-8.6,38.2-2.81,48.76C73.53,360.12,95.78,381.31,107.12,404.97z"/>
<path class="st8" d="M64.68,344.01c8.84,16.12,31.09,37.3,42.44,60.97c2.96-10.67,6.58-21.72,6.58-21.72s13.86-74.17-27.14-93.33
	c-6.79-0.66-13.59,1.24-19.06,5.33C61.66,314.99,58.9,333.45,64.68,344.01z"/>
<path class="st7" d="M227.45,339.33l34.76,10.14l48.26,1.87l4.97,41.94l-79.32,5.71C236.13,398.99,216.32,343.29,227.45,339.33z"/>
<path class="st5" d="M170.77,480.34c0,0,46.5,7.72,35.89,21.71c-10.61,13.99-51.81-0.72-51.81-0.72L170.77,480.34z"/>
<path class="st8" d="M113.86,435.12c-1.05,20.3-8.53,43.79-11.21,60.87c14.81,14.02,28.9,26.39,34.21,26.59
	c10.97,0.43,28.61-1.09,35.1,1.36c6.5,2.45,10.31-39.15,10.31-39.15s-3.88-13.33-21.17-20.6
	C149.42,459.28,127.04,445.95,113.86,435.12z"/>
<path class="st7" d="M87.07,276.76c0,0-37.13-5.83-35.12,55.76s-3.91,100.92,11.02,112.48c14.93,11.56,63.43,63.98,74.4,64.41
	s28.61-1.09,35.1,1.36s10.31-39.15,10.31-39.15s-3.88-13.33-21.17-20.6c-17.3-7.26-58.04-33.01-57.7-41.79s10.31-39.15,10.31-39.15
	S128.07,295.93,87.07,276.76z"/>
<circle class="st5" cx="178.39" cy="188.02" r="48.3"/>
<path class="st6" d="M210.92,118.79c1.17,1,2.56,1.7,4.06,2.04c1.57,0.28,3.07-0.76,3.36-2.33c1.11,2.29,2.35,4.73,4.61,5.91
	c2.26,1.18,5.75,0.19,6.07-2.33c0.33,1.92,1.18,3.71,2.45,5.17c1.4,1.33,3.94,1.67,5.16,0.17c-0.99,5.4-0.38,10.95-0.69,16.43
	c-0.31,5.48-1.77,11.29-5.91,14.89c-6.04,5.26-15.12,3.96-23.06,2.96c-1.2-0.25-2.45-0.18-3.61,0.2c-2.97,1.27-2.84,5.41-2.88,8.64
	c-0.5,11.71-9.39,21.35-21.02,22.8c-3.15,0.49-6.37-0.3-8.94-2.18c-2.26-1.91-3.41-5.03-5.99-6.46c-4.2-2.34-9.3,1.07-12.38,4.77
	c-3.07,3.7-6.1,8.25-10.86,8.93c-6.3,0.9-11.09-5.52-13.45-11.43c-6.56-16.73-6.08-35.4,1.32-51.78
	C142.3,106.53,187.21,102,210.92,118.79z"/>
<path class="st0" d="M1370.39,886.81c17.01,29.01,51.32,40.5,51.32,40.5s6.73-35.55-10.28-64.56c-17.01-29.01-51.32-40.5-51.32-40.5
	S1353.38,857.8,1370.39,886.81z"/>
<path class="st1" d="M1381.01,876.68c29.42,16.29,41.74,50.31,41.74,50.31s-35.37,7.6-64.79-8.69
	c-29.42-16.29-41.74-50.31-41.74-50.31S1351.59,860.39,1381.01,876.68z"/>
</svg>
