<?xml version="1.0" encoding="utf-8"?>
<!-- Generator: Adobe Illustrator 24.0.0, SVG Export Plug-In . SVG Version: 6.00 Build 0)  -->
<svg version="1.1" id="Layer_1" xmlns="http://www.w3.org/2000/svg" xmlns:xlink="http://www.w3.org/1999/xlink" x="0px" y="0px"
	 viewBox="0 0 1600 1000" style="enable-background:new 0 0 1600 1000;" xml:space="preserve">
<style type="text/css">
	.st0{fill:#E6E6E6;}
	.st1{fill:#FFFFFF;}
	.st2{fill:#CCCCCC;}
	.st3{fill:#5360DE;}
	.st4{fill:#3F3D56;}
	.st5{fill:#2F2E41;}
	.st6{fill:#FFB8B8;}
	.st7{fill:#575A89;}
	.st8{opacity:0.2;enable-background:new    ;}
</style>
<path class="st0" d="M671.19,88.06l4.1-6.33c-1.22-3.36-2.62-6.64-4.2-9.84l-2.65,2.14l2.1-3.24c-2-3.94-3.57-6.42-3.57-6.42
	s-8.22,12.95-10.96,26.66l5.26,8.13l-5.82-4.7c-0.21,1.6-0.31,3.21-0.32,4.82c0,16.24,5.3,29.4,11.84,29.4
	c6.54,0,11.85-13.16,11.85-29.4c-0.12-5.17-1.04-10.28-2.71-15.17L671.19,88.06z"/>
<path class="st0" d="M700.19,102.13l7.37-1.58c1.51-3.23,2.84-6.55,3.99-9.93l-3.39-0.36l3.78-0.81c1.37-4.2,2.01-7.06,2.01-7.06
	s-14.97,3.35-26.6,11.1l-2.03,9.46l-0.79-7.44c-1.28,0.98-2.49,2.04-3.63,3.18c-11.48,11.48-17.04,24.54-12.41,29.17
	c4.63,4.63,17.68-0.93,29.17-12.41c3.57-3.74,6.54-8,8.81-12.64L700.19,102.13z"/>
<path class="st0" d="M702.88,164.96c-17.1,1.09-35.74-0.06-55.56,0v-45.39c17.47,2.72,36.1,2.44,55.56,0V164.96z"/>
<path class="st0" d="M825.23,200.35l2.67-4.13c-0.79-2.19-1.71-4.33-2.74-6.42l-1.73,1.4l1.37-2.11c-1.3-2.57-2.33-4.18-2.33-4.18
	c-3.29,5.38-5.71,11.25-7.15,17.39l3.43,5.3l-3.8-3.07c-0.14,1.04-0.2,2.09-0.21,3.14c0,10.59,3.46,19.17,7.72,19.17
	c4.27,0,7.72-8.58,7.72-19.17c-0.08-3.37-0.68-6.71-1.77-9.89L825.23,200.35z"/>
<path class="st0" d="M844.14,209.53l4.81-1.03c0.99-2.11,1.86-4.27,2.6-6.48l-2.21-0.24l2.46-0.53c0.89-2.74,1.31-4.61,1.31-4.61
	c-6.13,1.48-11.99,3.92-17.35,7.24l-1.32,6.17l-0.52-4.85c-0.83,0.64-1.62,1.33-2.37,2.07c-7.49,7.49-11.11,16-8.1,19.02
	c3.02,3.02,11.53-0.61,19.02-8.1c2.33-2.44,4.26-5.22,5.75-8.25L844.14,209.53z"/>
<path class="st0" d="M845.9,250.51c-11.15,0.71-23.3-0.04-36.23,0v-29.6c12.02,1.68,24.21,1.68,36.23,0V250.51z"/>
<path class="st0" d="M839.01,338.23c-9.85,0.63-20.58-0.04-31.99,0v-26.14c10.61,1.49,21.38,1.49,31.99,0V338.23z"/>
<rect x="464.69" y="161.77" class="st0" width="430.51" height="12.03"/>
<rect x="464.69" y="247.15" class="st0" width="430.51" height="12.03"/>
<rect x="464.69" y="332.54" class="st0" width="430.51" height="12.03"/>
<circle class="st0" cx="823.05" cy="297.66" r="24.05"/>
<circle class="st1" cx="823.05" cy="297.66" r="19.24"/>
<circle class="st0" cx="823.05" cy="297.66" r="4.81"/>
<rect x="820.65" y="296.46" class="st0" width="19.24" height="2.41"/>
<rect x="821.85" y="280.83" class="st0" width="2.41" height="19.24"/>
<rect x="668.07" y="188.49" class="st0" width="15.91" height="62.99"/>
<rect x="668.07" y="198.44" class="st2" width="15.91" height="7.29"/>
<rect x="668.07" y="230.26" class="st2" width="15.91" height="7.29"/>
<rect x="643.54" y="188.49" class="st0" width="15.91" height="62.99"/>
<rect x="643.54" y="198.44" class="st2" width="15.91" height="7.29"/>
<rect x="643.54" y="230.26" class="st2" width="15.91" height="7.29"/>
<rect x="696.59" y="188.49" transform="matrix(0.8962 -0.4437 0.4437 0.8962 -24.4596 335.4376)" class="st0" width="15.91" height="62.99"/>
<rect x="688.64" y="200.29" transform="matrix(0.8962 -0.4437 0.4437 0.8962 -18.1656 330.2476)" class="st2" width="15.91" height="7.29"/>
<rect x="702.76" y="228.82" transform="matrix(0.8962 -0.4437 0.4437 0.8962 -29.3548 339.4743)" class="st2" width="15.91" height="7.29"/>
<rect x="526.17" y="273.87" class="st0" width="15.91" height="62.99"/>
<rect x="526.17" y="283.82" class="st2" width="15.91" height="7.29"/>
<rect x="526.17" y="315.64" class="st2" width="15.91" height="7.29"/>
<rect x="501.64" y="273.87" class="st0" width="15.91" height="62.99"/>
<rect x="501.64" y="283.82" class="st2" width="15.91" height="7.29"/>
<rect x="501.64" y="315.64" class="st2" width="15.91" height="7.29"/>
<rect x="554.68" y="273.87" transform="matrix(0.8962 -0.4437 0.4437 0.8962 -77.0747 281.3415)" class="st0" width="15.91" height="62.99"/>
<rect x="546.74" y="285.68" transform="matrix(0.8962 -0.4437 0.4437 0.8962 -70.7808 276.1515)" class="st2" width="15.91" height="7.29"/>
<rect x="560.86" y="314.2" transform="matrix(0.8962 -0.4437 0.4437 0.8962 -81.97 285.3782)" class="st2" width="15.91" height="7.29"/>
<rect x="675.29" y="273.87" class="st0" width="15.91" height="62.99"/>
<rect x="675.29" y="283.82" class="st2" width="15.91" height="7.29"/>
<rect x="675.29" y="315.64" class="st2" width="15.91" height="7.29"/>
<rect x="650.76" y="273.87" class="st0" width="15.91" height="62.99"/>
<rect x="650.76" y="283.82" class="st2" width="15.91" height="7.29"/>
<rect x="650.76" y="315.64" class="st2" width="15.91" height="7.29"/>
<rect x="703.8" y="273.87" transform="matrix(0.8962 -0.4437 0.4437 0.8962 -61.5934 347.5033)" class="st0" width="15.91" height="62.99"/>
<rect x="695.86" y="285.68" transform="matrix(0.8962 -0.4437 0.4437 0.8962 -55.2995 342.3132)" class="st2" width="15.91" height="7.29"/>
<rect x="709.98" y="314.2" transform="matrix(0.8962 -0.4437 0.4437 0.8962 -66.4887 351.5399)" class="st2" width="15.91" height="7.29"/>
<rect x="798.29" y="102.92" class="st0" width="63.25" height="63.25"/>
<rect x="810.94" y="115.57" class="st2" width="37.95" height="37.95"/>
<polygon class="st0" points="821.92,128.31 829.97,142.24 838.02,156.18 821.92,156.18 805.83,156.18 813.88,142.24 "/>
<polygon class="st0" points="835.9,130.97 843.95,144.91 852,158.84 835.9,158.84 819.81,158.84 827.86,144.91 "/>
<circle class="st0" cx="841.56" cy="122.23" r="4.66"/>
<rect x="478.41" y="102.92" class="st0" width="63.25" height="63.25"/>
<rect x="491.06" y="115.57" class="st2" width="37.95" height="37.95"/>
<polygon class="st0" points="502.04,128.31 510.09,142.24 518.14,156.18 502.04,156.18 485.95,156.18 494,142.24 "/>
<polygon class="st0" points="516.02,130.97 524.07,144.91 532.12,158.84 516.02,158.84 499.93,158.84 507.98,144.91 "/>
<circle class="st0" cx="521.68" cy="122.23" r="4.66"/>
<path class="st3" d="M351.31,534.2l4.1-6.33c-1.22-3.36-2.62-6.64-4.2-9.84l-2.65,2.14l2.1-3.24c-2-3.94-3.57-6.42-3.57-6.42
	s-8.22,12.95-10.96,26.66l5.26,8.13l-5.82-4.7c-0.21,1.6-0.31,3.21-0.32,4.82c0,16.24,5.3,29.4,11.85,29.4s11.85-13.16,11.85-29.4
	c-0.12-5.17-1.04-10.28-2.71-15.17L351.31,534.2z"/>
<path class="st3" d="M380.31,548.28l7.37-1.58c1.51-3.23,2.84-6.55,3.99-9.93l-3.39-0.36l3.78-0.81c1.37-4.2,2.01-7.06,2.01-7.06
	s-14.97,3.35-26.6,11.1l-2.03,9.46l-0.79-7.44c-1.28,0.98-2.49,2.04-3.63,3.18c-11.48,11.48-17.04,24.54-12.41,29.17
	c4.63,4.63,17.68-0.93,29.17-12.41c3.57-3.74,6.54-8,8.81-12.64L380.31,548.28z"/>
<path class="st4" d="M383,611.11c-17.1,1.09-35.74-0.06-55.56,0v-45.39c17.47,2.72,36.1,2.44,55.56,0V611.11z"/>
<rect x="858.53" y="625.36" class="st0" width="230.89" height="299.44"/>
<rect x="376.3" y="640.99" class="st0" width="12.03" height="283.8"/>
<rect x="266.87" y="604.91" class="st0" width="822.55" height="24.05"/>
<rect x="370.29" y="628.97" class="st0" width="24.05" height="24.05"/>
<polygon class="st4" points="992.16,642.79 990.81,648.21 957.14,648.21 955.11,642.79 869.35,642.79 869.35,698.11 1078.6,698.11 
	1078.6,642.79 "/>
<polygon class="st4" points="992.16,712.54 990.81,717.95 957.14,717.95 955.11,712.54 869.35,712.54 869.35,767.86 1078.6,767.86 
	1078.6,712.54 "/>
<polygon class="st4" points="992.16,782.29 990.81,787.7 957.14,787.7 955.11,782.29 869.35,782.29 869.35,837.61 1078.6,837.61 
	1078.6,782.29 "/>
<polygon class="st4" points="992.16,852.04 990.81,857.45 957.14,857.45 955.11,852.04 869.35,852.04 869.35,907.36 1078.6,907.36 
	1078.6,852.04 "/>
<polygon class="st0" points="713.02,601.31 642.07,601.31 644.47,570.04 710.61,570.04 "/>
<rect x="638.46" y="597.7" class="st0" width="79.37" height="7.22"/>
<path class="st4" d="M813.43,368.61H542.26c-3.98,0-7.22,3.23-7.22,7.22v0v165.35h285.61V375.83
	C820.65,371.84,817.42,368.61,813.43,368.61L813.43,368.61z"/>
<path class="st0" d="M535.04,541.18v27.06c0,3.98,3.23,7.22,7.22,7.22h0h271.18c3.98,0,7.22-3.23,7.22-7.22l0,0v-27.06H535.04z"/>
<rect x="549.47" y="383.64" class="st1" width="257.35" height="144.31"/>
<circle class="st4" cx="678.15" cy="558.01" r="7.22"/>
<path class="st4" d="M1288.44,922.99c-26.28,1.68-54.92-0.1-85.38,0v-69.75c26.84,4.18,55.47,3.75,85.38,0V922.99z"/>
<polygon class="st4" points="1248.76,859.5 1241.54,859.5 1243.95,718.56 1246.35,718.56 "/>
<polygon class="st4" points="1281.23,860.46 1274.01,860.46 1276.42,719.51 1278.82,719.51 "/>
<polygon class="st4" points="1219.9,860.46 1212.68,860.46 1215.09,719.51 1217.49,719.51 "/>
<path class="st0" d="M1254.77,628.36l11.65-18c-3.45-9.54-7.44-18.88-11.95-27.97l-7.53,6.08l5.96-9.22
	c-5.68-11.19-10.16-18.24-10.16-18.24s-23.36,36.81-31.16,75.79l14.95,23.1l-16.55-13.36c-0.59,4.54-0.89,9.11-0.91,13.69
	c0,46.16,15.08,83.58,33.67,83.58s33.67-37.42,33.67-83.58c0-14.31-3.24-29.28-7.7-43.13L1254.77,628.36z"/>
<path class="st3" d="M1287.24,630.77l11.65-18c-3.45-9.54-7.44-18.88-11.95-27.97l-7.53,6.08l5.96-9.22
	c-5.68-11.19-10.16-18.24-10.16-18.24s-23.36,36.81-31.16,75.79l14.95,23.1l-16.55-13.36c-0.59,4.54-0.89,9.11-0.91,13.69
	c0,46.16,15.08,83.58,33.67,83.58s33.67-37.42,33.67-83.58c0-14.31-3.24-29.28-7.7-43.13L1287.24,630.77z"/>
<path class="st3" d="M1225.91,630.77l11.65-18c-3.45-9.54-7.44-18.88-11.95-27.97l-7.53,6.08l5.96-9.22
	c-5.68-11.19-10.16-18.24-10.16-18.24s-23.36,36.81-31.16,75.79l14.95,23.1l-16.55-13.36c-0.59,4.54-0.89,9.11-0.91,13.69
	c0,46.16,15.08,83.58,33.67,83.58s33.67-37.42,33.67-83.58c0-14.31-3.24-29.28-7.7-43.13L1225.91,630.77z"/>
<rect x="632.93" y="424.38" class="st4" width="69.39" height="3.98"/>
<rect x="632.93" y="438.91" class="st3" width="107.15" height="3.98"/>
<rect x="632.93" y="452.6" class="st3" width="87.33" height="3.98"/>
<rect x="632.93" y="466.23" class="st4" width="50.98" height="3.98"/>
<rect x="632.93" y="479.87" class="st4" width="76.94" height="3.98"/>
<rect x="601.3" y="422.96" class="st4" width="8.5" height="8.5"/>
<rect x="601.3" y="436.65" class="st3" width="8.5" height="8.5"/>
<rect x="601.3" y="450.34" class="st3" width="8.5" height="8.5"/>
<rect x="601.3" y="464.03" class="st4" width="8.5" height="8.5"/>
<rect x="601.3" y="477.72" class="st4" width="8.5" height="8.5"/>
<path class="st3" d="M794.9,416.84h-36.41c-2.48-14.37-2.48-29.05,0-43.42h36.41C790.77,387.64,790.55,402.68,794.9,416.84z"/>
<path class="st5" d="M529.95,503.85l-14.98-3.65c-21.3,0.03-38.59-17.22-38.61-38.52c0-2.58,0.25-5.16,0.76-7.69l0,0
	c-0.03-27.84,22.51-50.44,50.35-50.47h0c27.84-0.03,50.44,22.51,50.47,50.35v0C586.43,483.43,559.83,511.14,529.95,503.85z"/>
<circle class="st6" cx="546.31" cy="472.08" r="37.04"/>
<path class="st6" d="M522.15,491.41c0,0-11.27,38.65-17.71,41.87c-6.44,3.22,51.53,8.05,51.53,8.05s-1.61-37.04,1.61-40.26
	C560.8,497.85,522.15,491.41,522.15,491.41z"/>
<path class="st5" d="M580.13,729.75c0,0,72.47-6.44,82.13,17.71s-6.44,167.48-6.44,167.48h-30.6V797.38
	c0,0-130.46-37.08-130.46-49.97C494.76,734.53,580.13,729.75,580.13,729.75z"/>
<path class="st5" d="M650.99,908.5l16.1,6.44c0,0,19.32-1.61,11.27,12.88c-4.67,8.52-12.97,14.45-22.55,16.1c0,0-30.6,11.27-32.21,0
	c-1.61-11.27,8.05-33.82,8.05-33.82L650.99,908.5z"/>
<path class="st5" d="M539.87,729.75c0,0,72.47-6.44,82.13,17.71c9.66,24.16-6.44,167.48-6.44,167.48h-30.6V797.38
	c0,0-92.61-21.45-92.61-34.33c0-6.05-6.31-36.81,4.81-43.29C509.71,712.44,539.87,729.75,539.87,729.75z"/>
<path class="st5" d="M610.73,908.5l16.1,6.44c0,0,19.32-1.61,11.27,12.88c-4.67,8.52-12.97,14.45-22.55,16.1c0,0-30.6,11.27-32.21,0
	c-1.61-11.27,8.05-33.82,8.05-33.82L610.73,908.5z"/>
<path class="st7" d="M506.05,528.45l48.4,5.26c15.32,1.67,27.84,12.99,31.02,28.07l18.82,89.06c0,0,6.44,88.57-6.44,93.4
	c-12.88,4.83-30.6-19.32-54.75-16.1s-55.56,10.47-55.56,10.47s-4.99-158.54-5.64-171.51C480.6,541.17,506.05,528.45,506.05,528.45z"
	/>
<path class="st6" d="M620.69,734.35l19.87,11.7c0,0,35.64-5.11,34.53,7.41c-1.11,12.53-40.02,10.11-40.02,10.11l-23.94-14.75
	L620.69,734.35z"/>
<circle class="st5" cx="474.42" cy="418.03" r="23.93"/>
<path class="st5" d="M496.49,405.17c-0.01-13.21-10.73-23.91-23.93-23.9c-1.58,0-3.15,0.16-4.7,0.47
	c11.94-5.64,26.2-0.54,31.84,11.4c5.64,11.94,0.54,26.2-11.4,31.84c-1.76,0.83-3.61,1.44-5.52,1.83
	C491.16,422.87,496.5,414.43,496.49,405.17z"/>
<path class="st5" d="M517.02,418.74l32.26-5.94l24.81,15.55c12.45,7.81,19.22,22.15,17.33,36.72l-24.84-6.3l-5.56-13.95l-6.63,10.86
	l-34.64,44.58l-19.45-12.39l-17.34-27.17L517.02,418.74z"/>
<path class="st7" d="M543.58,542.15l16.1-8.05c0,0,33.82,4.83,40.26,27.38s35.43,178.75,35.43,178.75L608,753.11l-38.65-95.01
	L543.58,542.15z"/>
<polygon class="st8" points="557.29,605.52 573.41,668.08 601.99,738.34 601,740.77 566.91,669.25 "/>
<polygon class="st4" points="437.03,950.53 431.35,948.57 486.41,785.02 494.37,787.76 "/>
<polygon class="st4" points="647.48,950.53 653.17,948.57 598.11,785.02 590.15,787.76 "/>
<polygon class="st4" points="531.14,984.31 537.15,984.33 539.02,793.14 530.6,793.11 "/>
<path class="st3" d="M423.11,688.92l16.49,66.66c4.71,19.02,19.54,33.89,38.55,38.64h0c46,11.5,94.15,11.19,140-0.9l24.62-6.49
	c14.31-3.77,25.07-16.06,26.09-30.82c0.41-5.22-0.53-10.46-2.74-15.2c-0.1-0.2-0.19-0.41-0.29-0.61
	c-6.55-13.44-20.01-22.15-34.95-22.6l-26.09-0.84l-95-42.09c0,0-32.67-16.6-59.53-18.45C432.52,654.98,418.84,671.66,423.11,688.92z
	"/>
<rect x="908.44" y="479.25" class="st0" width="93.8" height="127.47"/>
<rect x="919.26" y="493.96" class="st1" width="72.15" height="98.05"/>
<rect x="947.66" y="519.62" class="st4" width="34.96" height="3.98"/>
<rect x="928.06" y="517.41" class="st4" width="8.5" height="8.5"/>
<rect x="947.66" y="536.45" class="st4" width="34.96" height="3.98"/>
<rect x="928.06" y="534.25" class="st4" width="8.5" height="8.5"/>
<rect x="947.66" y="553.29" class="st4" width="34.96" height="3.98"/>
<rect x="928.06" y="551.08" class="st4" width="8.5" height="8.5"/>
<path class="st4" d="M955.34,482.85L955.34,482.85c1.99,0,3.61,1.62,3.61,3.61l0,0c0,1.99-1.62,3.61-3.61,3.61l0,0
	c-1.99,0-3.61-1.62-3.61-3.61l0,0C951.73,484.47,953.34,482.85,955.34,482.85z"/>
</svg>
