<?xml version="1.0" encoding="utf-8"?>
<!-- Generator: Adobe Illustrator 24.0.0, SVG Export Plug-In . SVG Version: 6.00 Build 0)  -->
<svg version="1.1" id="Layer_1" xmlns="http://www.w3.org/2000/svg" xmlns:xlink="http://www.w3.org/1999/xlink" x="0px" y="0px"
	 viewBox="0 0 1600 1000" style="enable-background:new 0 0 1600 1000;" xml:space="preserve">
<style type="text/css">
	.st0{fill:#E6E6E6;}
	.st1{fill:#FFFFFF;}
	.st2{fill:#5360DE;}
	.st3{fill:#A0616A;}
	.st4{fill:#2F2E41;}
	.st5{fill:#3F3D56;}
	.st6{opacity:0.1;enable-background:new    ;}
	.st7{fill:#FBBEBE;}
</style>
<rect x="232.75" y="7.12" class="st0" width="1077.57" height="690.12"/>
<rect x="263.57" y="93.68" class="st1" width="1015.94" height="562.74"/>
<rect x="232.29" y="6.51" class="st2" width="1077.57" height="45.78"/>
<circle class="st1" cx="266.31" cy="29.91" r="8.48"/>
<circle class="st1" cx="298.52" cy="29.91" r="8.48"/>
<circle class="st1" cx="330.72" cy="29.91" r="8.48"/>
<polygon class="st3" points="1367.31,895.3 1375.22,926.97 1340.38,936.48 1337.21,903.22 "/>
<polygon class="st3" points="1240.61,934.89 1240.61,964.98 1205.76,971.32 1199.43,955.48 1212.1,928.56 "/>
<path class="st4" d="M1310.29,607.05l-4.75,42.76l3.17,82.36c0,0,0,7.92,4.75,11.09c2.55,1.73,58.6,158.38,58.6,158.38
	s-12.67,15.84-36.43,11.09l-4.75-15.84c0,0-6.34-20.59-9.5-25.34c-3.17-4.75-50.68-101.36-50.68-101.36l-22.17-39.59l-6.34,53.85
	c0,0,12.67,68.1,9.5,99.78c-3.17,31.68-9.5,64.93-9.5,64.93l-38.01-6.34c-0.17-5.11-1.82-10.06-4.75-14.25
	c-4.75-6.34-3.17-28.51-3.17-28.51v-4.75l-9.5-121.95l-17.42-159.96L1310.29,607.05z"/>
<circle class="st3" cx="1202.59" cy="276.05" r="42.76"/>
<polygon class="st3" points="1239.81,276.84 1257.23,319.6 1216.06,349.69 1190.72,305.35 "/>
<path class="st5" d="M1242.19,309.31l15.84-7.92l9.5,22.17c0,0,61.77,19.01,57.02,106.11c-4.75,87.11-15.84,120.37-15.84,120.37
	s26.92,57.02,11.09,63.35c-15.84,6.34-150.46,30.09-153.62,7.92c-3.17-22.17,11.09-152.04,11.09-152.04s-4.75-93.44,34.84-112.45
	l-7.92-17.42L1242.19,309.31z"/>
<path class="st3" d="M1155.08,616.56c0,0-36.43,38.01-15.84,47.51c20.59,9.5,33.26-42.76,33.26-42.76L1155.08,616.56z"/>
<path class="st4" d="M1229.52,957.06l17.42-6.34c0,0,19.01,42.76,3.17,42.76h-41.18c0,0-23.76-7.92-36.43-7.92
	c-12.67,0-36.43-23.76-19.01-34.84c17.42-11.09,39.59-7.92,39.59-7.92l6.34-14.25l7.92,22.17
	C1207.35,950.73,1216.85,966.57,1229.52,957.06z"/>
<path class="st4" d="M1357.8,922.22c0,0,9.92-6.26,15.25-3.92c5.34,2.34,8.5,27.68,8.5,27.68s15.84,19.01-19.01,22.17
	c-34.84,3.17-42.76-3.17-45.93-12.67c-3.17-9.5,3.17-19.01,3.17-19.01l9.5-3.17c0,0,11.09-7.92,7.92-11.09c-3.17-3.17,0-9.5,0-9.5
	S1348.3,934.89,1357.8,922.22z"/>
<path class="st4" d="M1217.22,275.36c-0.17-1.38-0.49-2.75-0.93-4.07c-2.3-4.82-11.27-3.41-12.86-8.51c-0.31-1-0.25-2.08-0.55-3.08
	c-0.78-2.55-3.78-3.81-6.44-3.69c-2.64,0.36-5.23,1.03-7.72,1.99c-6.27,1.78-12.93,1.1-19.41,0.41c-2.89-0.1-5.72-0.83-8.29-2.16
	c-2.45-1.51-4.22-4.55-3.33-7.28c0.86-2.62,3.73-4.07,5.02-6.51c2.05-3.87-0.46-8.88,1.21-12.93c2.67-6.51,12.77-5.2,17.9-10.01
	c1.25-1.17,2.14-2.66,3.34-3.88c3.54-3.62,9.13-4.32,14.17-3.82c5.04,0.5,9.99,1.98,15.05,1.89c4.8-0.08,9.83-1.55,14.26,0.32
	c2.6,1.33,4.89,3.21,6.7,5.5l11.35,12.45c1.56,1.47,2.76,3.28,3.51,5.28c0.68,2.38,0.05,4.95,0.35,7.41
	c0.66,5.62,5.92,9.86,6.63,15.47c0.14,1.74,0.06,3.49-0.25,5.21l-1.59,11.72c-0.08,1.14-0.38,2.26-0.9,3.28
	c-0.46,0.79-1.16,1.41-1.68,2.17c-1.47,2.13-1.34,4.93-2.07,7.41c-0.73,2.48-3.35,4.93-5.64,3.74c-1.49-0.78-2.48-7.22-4.3-8.9
	c-2.53-2.33-3.85-2.04-6.97-2C1227.53,282.85,1219.22,283.39,1217.22,275.36z"/>
<path class="st5" d="M1224.77,367.9c0,0,47.51,19.01,33.26,61.77s-52.26,174.21-52.26,174.21l-22.17,11.09l-6.34,17.42l-30.09-11.09
	l4.75-23.76l11.09-23.76l28.51-177.38C1191.51,396.41,1191.51,366.32,1224.77,367.9z"/>
<polygon class="st6" points="1260.4,438.38 1211.3,606.26 1190.72,626.85 1202.59,605.47 "/>
<path class="st7" d="M293.74,465.53l9.26,65.83l39.09,69.94c11.31,10.29,1.03,34.97,1.03,34.97l-10.29-7.2l-2.06-12.34
	c0,0-45.26-51.43-56.57-63.77s-15.43-80.23-15.43-80.23L293.74,465.53z"/>
<path class="st7" d="M259.67,911.96c0,0,2.06,23.66,1.03,29.83c-1.03,6.17-31.89-1.03-31.89-1.03c5.14-10.29,8.23-41.14,8.23-41.14
	L259.67,911.96z"/>
<path class="st7" d="M412.93,918.13c0,0,3.09,32.91,2.06,39.09s-31.89-1.03-31.89-1.03c5.14-10.29,8.23-41.14,8.23-41.14
	L412.93,918.13z"/>
<circle class="st7" cx="349.9" cy="353.05" r="37.41"/>
<path class="st7" d="M356.36,388.41c-6.17,8.23-3.09,22.63-3.09,22.63s-62.74,73.03-74.06,73.03s-9.26-51.43-9.26-51.43
	s16.46-19.54,25.71-23.66s25.71-48.34,25.71-48.34S362.53,380.18,356.36,388.41z"/>
<path class="st4" d="M398.53,528.29l40.26,67.63c7.35,12.09-6.32,73.28-6.32,73.28l-6.17,130.63l-10.29,131.63v14.4l-33.94-1.03
	l-11.31-140.88L354.3,698.01l-26.74,81.26l-44.23,99.77c-3.78,12.31-8.42,24.33-13.89,35.98l-8.23,14.4l-30.85-3.61l46.79-157.87
	l9.26-102.86c1.03-57.6,19.54-89.49,19.54-89.49v-12.34L398.53,528.29z"/>
<path class="st4" d="M257.61,936.64c0,0,5.14-8.23,5.14-5.14c0,3.09,13.37,11.31,13.37,11.31s13.37-2.06,15.43,13.37
	c2.06,15.43-18.51,18.51-23.66,17.49c-5.14-1.03-18.51,1.03-18.51,1.03s-10.29,2.06-26.74,0c-16.46-2.06-2.06-29.83,0-34.97
	c2.06-5.14,12.34-1.03,12.34-1.03C253.5,943.84,257.61,936.64,257.61,936.64z"/>
<path class="st4" d="M411.9,952.07c0,0,5.14-8.23,5.14-5.14s13.37,11.31,13.37,11.31s13.37-2.06,15.43,13.37
	c2.06,15.43-18.51,18.51-23.66,17.49c-5.14-1.03-18.51,1.03-18.51,1.03s-10.29,2.06-26.74,0c-16.46-2.06-2.06-29.83,0-34.97
	c2.06-5.14,12.34-1.03,12.34-1.03C407.79,959.27,411.9,952.07,411.9,952.07z"/>
<path class="st5" d="M340.93,410.01c25.71-26.74,53.49,40.11,53.49,40.11s9.26,24.69,2.06,38.06c-7.2,13.37,7.2,43.2,7.2,43.2
	c-35.22,29.99-70.33,57.71-102.86,38.06c4.11-24.69-9.26-37.03-18.51-60.69c-9.26-23.66-26.74-18.51-26.74-18.51
	s1.03-26.74,4.11-48.34c3.09-21.6,30.86-29.71,30.86-29.71C295.56,421.23,315.22,436.75,340.93,410.01z"/>
<path class="st7" d="M386.19,453.21l9.26,65.83l39.09,69.94c11.31,10.29,1.03,34.97,1.03,34.97l-10.29-7.2l-2.06-12.34
	c0,0-45.26-51.43-56.57-63.77s-15.43-80.23-15.43-80.23L386.19,453.21z"/>
<path class="st5" d="M392.36,463.49l-43.2,5.14c0,0-3.09-50.4,3.44-62.99c6.52-12.59,30.51,1.27,30.51,1.27
	C389.27,407.95,392.36,463.49,392.36,463.49z"/>
<path class="st4" d="M391.78,331.39c-27.67,13.83-11.7,51.58-14.97,67.43c-5.35,25.95-84.22,12.76-84.22,12.76
	c-9.6-1.73-15.44-108.49,37.11-107.54C356.19,304.51,415.48,319.54,391.78,331.39z"/>
<ellipse class="st7" cx="374.92" cy="358.05" rx="3.85" ry="6.16"/>
<path class="st0" d="M526.37,226.18c40.66,7.5,82.14,0,122.64-5.08l123.07-15.41c4.98-0.63,12.22-3.61,15.15,2.48
	c1.65,3.41,0.54,10.79,0.66,14.7c0.32,10.79,0.29,21.57,0,32.36c-0.55,20.62-2.06,41.19-3.99,61.71
	c-3.74,40.17-9.04,80.12-11.7,120.45c-1.36,20.52-2.03,41.11-1.43,61.63c0.14,4.9,0.34,9.8,0.63,14.68
	c0.32,5.47,2.77,13.59-3.19,17.24c-3.41,2.1-10.11,1.99-14.01,2.6c-6.16,0.97-12.33,1.74-18.61,2.37
	c-41.43,4.14-83.41,2.42-124.99,2.17l-125.58-0.65l-30.63-0.17c-2.77,0-12.77,1.66-14.48-1.63c-0.72-1.4,1.2-7.97,1.54-9.72
	c0.47-2.9,0.99-5.79,1.54-8.67c3.57-20.26,7.8-40.4,12.05-60.52c9.14-43.14,18.49-86.5,22.25-130.57
	c1.86-22.11,0.63-44.42,2.91-66.49c1.06-10.25,2.33-33.11,15.96-34.02c11.56-0.77,23.45,0,35.04,0c1.28,0,2.31-1.03,2.31-2.31
	c0-1.28-1.03-2.31-2.31-2.31c-10.94,0-21.9-0.29-32.84-0.08c-7.27,0.14-12.33,1.86-15.79,8.55c-8.86,17.16-7.95,40.06-8.23,58.8
	c-0.66,44.85-7.55,88.75-16.52,132.62c-4.51,22.08-9.38,44.08-13.87,66.18c-2.11,10.55-4.13,21.14-5.98,31.76
	c-0.86,5.05-5.22,16.19-1.39,20.83c3.84,4.64,15.64,2.14,20.92,2.17l36.76,0.22l70.45,0.4c45.52,0.26,91.19,1.54,136.69,0.2
	c21.73-0.65,44.68-1.54,65.84-6.73c6.3-1.54,9.34-4.44,9.58-11.16c0.37-10.42-1.33-21.16-1.54-31.62
	c-1.54-89.52,19.49-177.8,17.33-267.35c-0.14-6.09,2.16-21.43-4.5-25.12c-2.99-1.66-6.87-0.76-10.02-0.39
	c-6.01,0.69-12,1.54-18.01,2.25l-78.04,9.74c-24.95,3.08-49.88,6.41-74.87,9.25c-26.46,3.08-53.17,4.92-79.54,0
	c-2.91-0.54-4.16,3.91-1.23,4.45L526.37,226.18z"/>
<path class="st0" d="M477.31,280.65l307.89-15.1c2.97-0.15,2.99-4.78,0-4.62l-307.89,15.1
	C474.35,276.17,474.34,280.79,477.31,280.65z"/>
<path class="st0" d="M572.17,242.55c-2.92,3.09-2.78,7.97,0.32,10.89c0.7,0.66,1.52,1.18,2.41,1.54c4.14,1.9,9.01,0.31,13.13-0.72
	c6.16-1.54,12.33-2.91,18.66-4.04c13.78-2.44,27.74-3.74,41.74-3.88c6.38-0.08,12.71,0.22,19.09,0.49c4.62,0.18,9.6,0.55,13.51-2.31
	c4.47-3.27,5.92-9.65,1.54-13.62c-6.16-5.62-19.45-2.36-26.56-1.77c-25.83,2.15-51.49,5.98-76.83,11.46
	c-2.9,0.62-1.68,5.08,1.23,4.45c16.71-3.61,33.55-6.5,50.52-8.69c8.34-1.03,16.7-1.9,25.07-2.6c3.94-0.32,7.89-0.62,11.83-0.85
	c1.54-0.09,3.17-0.26,4.75-0.22c4.88,0.11,5.45-0.77,2.53,5.13c-2.6,5.22-1.77,4.62-6.29,4.45c-1.91,0-3.82-0.22-5.73-0.31
	c-3.91-0.16-7.83-0.25-11.74-0.26c-8.33,0-16.64,0.4-24.93,1.2c-7.03,0.68-14.04,1.63-20.99,2.87c-4.35,0.77-8.66,1.66-12.96,2.65
	c-1.9,0.45-3.81,0.91-5.7,1.39c-0.91,0.25-1.83,0.46-2.74,0.69c-3.37,1.17-6.24-0.37-8.61-4.62c2.06-2.14-1.19-5.42-3.27-3.27
	L572.17,242.55z"/>
<path class="st0" d="M627.98,308.31c-22.3-0.86-46.38,5.16-61.06,23.11c-11.49,14.04-18.04,38.12-5.87,53.93
	c13.08,16.95,41.77,13.96,59.08,6.73c18.31-7.7,38.34-23.59,43.84-43.47c6.86-24.82-15.41-43.59-38.6-43.87
	c-1.28,0.05-2.27,1.12-2.23,2.4c0.04,1.21,1.02,2.18,2.23,2.23c13.22,0.15,26.19,5.82,32.36,18.14c6.46,12.97,0.89,26.59-7.7,36.98
	c-13.78,16.53-35.32,29-57.26,28.64c-13.17-0.2-27.74-4.71-31.82-18.61c-3.36-11.26-0.8-23.57,5.05-33.56
	c12.67-21.57,38.44-28.88,62.08-27.95c2.97,0.11,2.97-4.51,0-4.62L627.98,308.31z"/>
<path class="st0" d="M605.83,342.55c-3.11-1.15-6.57,0.43-7.72,3.55c-0.31,0.84-0.43,1.73-0.35,2.62c0.46,6.01,7.09,7.7,12.06,7.35
	c4.3-0.37,9.32-1.96,7.81-7.33c-0.56-1.93-1.93-3.51-3.76-4.35c-1.38-0.55-2.87-0.73-4.35-0.54c-0.57,0-5.79,1.91-3.57-0.39
	l-3.64-0.48c0.82,0.81,1.23,1.94,1.11,3.08c0.02,1.28,1.08,2.31,2.37,2.29c0.39-0.01,0.76-0.11,1.1-0.3
	c1.57-0.66,3.38,0.08,4.03,1.65c0.26,0.62,0.31,1.3,0.14,1.95c-0.29,1.25,0.49,2.5,1.74,2.79c0.96,0.22,1.95-0.18,2.48-1.01
	c1.54-2.77,3.41-8.29,1.09-11.19c-1.54-1.96-4.51-1.37-6.36-0.23c-1.14,0.81-2.2,1.72-3.17,2.73c-1.86,1.65-3.08,2.42-2.39-0.74
	c1.16-5.75,6.64-10.32,11.65-12.62l-3.39-2.6c-1.78,6.68-4.95,12.9-9.32,18.26l3.94,1.63c-0.23-4.33,2.29-8.35,6.29-10.03h-2.27
	l1.2,1.97c-0.45,2.91,4.01,4.16,4.45,1.22c0.59-3.81-1.82-8.75-6.27-6.89c-5.32,2.22-8.07,8.31-7.97,13.73
	c0,1.85,2.62,3.28,3.96,1.65c4.9-5.95,8.48-12.88,10.49-20.32c0.3-1.26-0.47-2.52-1.72-2.83c-0.57-0.14-1.17-0.06-1.68,0.22
	c-4.62,2.09-8.52,5.48-11.22,9.77c-1.88,3.08-4.24,7.89-2.33,11.43c1.31,2.37,4.29,3.23,6.66,1.92c0,0,0,0,0,0l0.04-0.02
	c1.42-0.84,2.73-1.88,3.87-3.08c0.57-0.51,1.2-1.39,1.96-1.54c0.68-0.46,0.65-0.2-0.11,0.82c-0.01,1.6-0.48,3.16-1.34,4.5l4.22,1.77
	c1.09-4.11-1.37-8.33-5.48-9.42c-1.84-0.49-3.79-0.28-5.48,0.59l3.48,2c0.07-1.96-0.54-3.89-1.74-5.44
	c-0.67-1.11-2.11-1.46-3.22-0.79c-0.15,0.09-0.28,0.19-0.4,0.31c-2.34,2.45-2.79,6.69,0.15,8.95c2.2,1.68,3.28,0,5.7-0.39
	c8.21-1.06,3.42,2.63,0.52,2.76c-1.3,0.14-2.61,0.05-3.87-0.28c-3.22-1.09-3.42-2.49-0.6-4.21c2.76,1.12,3.94-3.34,1.23-4.45
	L605.83,342.55z"/>
<path class="st0" d="M602.12,350.99c1.9,6.16-5.93,8.2-9.65,10.32c-2.61,1.46-4.88,3.45-6.67,5.84c-3.88,5.21-5.33,11.83-6.61,18.07
	c-0.59,2.91,3.87,4.14,4.47,1.23c0.7-4.59,2.02-9.06,3.9-13.3c2.77-5.52,6.75-7.37,11.93-10.2c5.18-2.84,8.92-7.23,7.09-13.2
	C605.71,346.92,601.24,348.14,602.12,350.99L602.12,350.99z"/>
<path class="st0" d="M609.82,347.89c-2.28,0.32-3.95,2.32-3.85,4.62c0,1.83,1.22,3,2.05,4.47c1.98,2.99,3.48,6.27,4.47,9.72
	c0.74,3.31,1.46,9.25-0.26,12.33c-3.19,5.72-8.95,4.62-13.87,4.62c-4.62,0-8.2,1.54-8.04-4.9c0.09-3.62,2.62-7.29,4.62-10.14
	l-4.22-0.55c0.89,4.7,1.36,9.48,1.4,14.27c0,2.14,3.28,3.33,4.3,1.16c2.48-5.21,4.44-10.65,5.87-16.24l-4.55-0.62l0.8,11.71
	c0.03,1.28,1.1,2.3,2.39,2.26c0.78-0.02,1.5-0.43,1.91-1.09c0.54-0.6,0.94-1.31,1.16-2.08c0.15-0.72-1.26-5.61-1.83-3.87l4.53,0.62
	l0.32-11.12l-4.62,0.62c0.98,3.14,1.27,6.45,0.86,9.71c-0.29,2.57,4.04,3.16,4.62,0.62l2.9-14.95l-4.22,0.54
	c1,2.07,1.28,4.41,0.79,6.66c-0.34,2.96,4.28,2.93,4.62,0c0.39-3.07-0.1-6.18-1.42-8.98c-0.67-1.1-2.1-1.45-3.2-0.78
	c-0.5,0.3-0.86,0.78-1.03,1.34l-2.91,14.95l4.55,0.62c0.46-3.67,0.11-7.4-1.03-10.92c-0.36-1.23-1.64-1.93-2.86-1.57
	c-0.97,0.28-1.65,1.16-1.67,2.17l-0.32,11.12c0.03,1.28,1.09,2.3,2.37,2.27c1.01-0.02,1.88-0.69,2.17-1.65l0.25-0.76
	c0.22-0.8-0.01-1.66-0.59-2.25c-4.79-5.21-5.76,3.08-7.43,5.38l4.31,1.17l-0.8-11.71c-0.17-2.5-3.87-3.27-4.55-0.62
	c-1.3,5.21-3.11,10.28-5.39,15.15l4.31,1.17c-0.05-5.2-0.57-10.39-1.54-15.5c-0.4-2.13-3.19-2.03-4.22-0.55
	c-3.08,4.44-8.41,14.13-4.3,19.45c3.59,4.62,14.88,2.84,19.71,2.54c7.61-0.43,10.37-5.25,11.2-12.43c0.4-3.44,0.2-6.92-0.57-10.29
	c-0.42-1.82-4.62-13.34-5.89-13.11c2.93-0.54,1.68-5.01-1.23-4.47L609.82,347.89z"/>
<path class="st0" d="M600.87,358.28l-12.62,16.66l3.99,2.33l9.24-13.37l-4.22-1.79l-4.61,17.58c-0.29,1.25,0.49,2.5,1.74,2.79
	c0.96,0.22,1.95-0.18,2.48-1.01c2.1-3.47,4.45-6.79,7.04-9.91l-3.85-2.25c-1.03,3.98-3.03,7.65-5.81,10.68l3.87,2.25
	c0.24-2.13,0.8-4.21,1.68-6.16c1.19-2.67-2.57-5.02-3.99-2.34c-1.3,2.44-2.79,4.78-4.45,7l4.22,0.55l0.94-4.39l-4.22-0.55l0.68,3.85
	c0.35,1.24,1.64,1.95,2.88,1.59c0.37-0.11,0.71-0.31,0.99-0.58c3.91-4.04,7.04-8.77,9.24-13.94h-3.98c1.05,1.93,1.78,4.01,2.17,6.16
	c0.55,2.77,4.24,1.74,4.53-0.62c0.66-5.16,1-10.36,1.02-15.56h-4.62v9.69c0,2.51,4.11,3.25,4.55,0.62c0.31-2.34,1.08-4.59,2.27-6.63
	h-4.05c0.98,1.58,1.51,3.39,1.54,5.24c0,1.28,1.03,2.31,2.31,2.31s2.31-1.03,2.31-2.31l0.59-3.08h-4.45
	c0.45,2.73,2.14,18.09-3.88,16.29c-1.02-0.25-1.31-0.18-0.88,0.17l1.37-2.93l3.22-6.83l-4.31-1.17c0.28,3.17,0.57,7.7-1.34,10.42
	c-1.54,2.2-6.29,3.08-8.71,1.79c-1.6-1.14-2.96-2.57-4.02-4.22l-3.16,3.08c2.56,1.86,6.7,6.44,10,6.7c2.51,0.2,4.62-1.88,6.27-3.54
	c5.11-5.28,7.83-12.43,7.53-19.77c0-1.28-1.03-2.31-2.31-2.31s-2.31,1.03-2.31,2.31v5.27c0,1.28,1.03,2.31,2.31,2.31
	s2.31-1.03,2.31-2.31v-12.93c0-1.28-1.03-2.31-2.31-2.31s-2.31,1.03-2.31,2.31c-0.01,3.1-0.28,6.19-0.8,9.25l4.55,0.62
	c-0.36-3.68-0.53-7.38-0.51-11.08c-0.02-1.28-1.06-2.3-2.34-2.28c-1.02,0.01-1.9,0.69-2.19,1.66c-0.69,2.94-1.54,5.84-2.36,8.72
	l4.22-0.55l-0.32-1.23c-0.22-2.94-4.84-2.96-4.62,0c0.05,1.25,0.38,2.47,0.96,3.57c0.89,1.88,3.68,1.22,4.22-0.55
	c0.88-2.9,1.66-5.79,2.36-8.72l-4.55-0.62c-0.02,3.7,0.15,7.4,0.51,11.08c0.23,2.37,4.05,3.39,4.53,0.62
	c0.62-3.48,0.94-7.01,0.97-10.54h-4.62v12.93h4.62v-5.27h-4.62c0.27,5.81-1.75,11.5-5.62,15.84c-0.6,0.68-1.25,1.32-1.94,1.91
	c-1.09,1.05-2.1,0.89-2.97-0.48c-2.19-0.91-4.45-3.25-6.36-4.62c-1.91-1.37-4.53,1.34-3.17,3.16c3.54,4.71,8.83,9.97,15.41,7.7
	c6.92-2.45,7.86-11.82,7.33-17.98c-0.17-2.05-3.24-3.44-4.3-1.16c-1.54,3.25-3.08,6.49-4.62,9.75c-0.8,1.22-1.28,2.62-1.39,4.07
	c0.51,3.47,4.71,2.9,7.3,2.7c10.03-0.75,8.44-14.98,7.29-22.13c-0.39-2.37-3.84-2-4.45,0c-0.49,1.41-0.74,2.89-0.76,4.38h4.62
	c-0.17-2.65-0.91-5.23-2.17-7.57c-0.66-1.1-2.09-1.46-3.19-0.8c-0.33,0.2-0.6,0.47-0.8,0.8c-1.38,2.38-2.31,4.99-2.74,7.7l4.62,0.62
	v-9.69c0-1.28-1.03-2.31-2.31-2.31c-1.28,0-2.31,1.03-2.31,2.31c-0.02,5.2-0.36,10.4-1.02,15.56l4.55-0.62
	c-0.52-2.52-1.41-4.95-2.63-7.21c-0.66-1.1-2.09-1.46-3.19-0.8c-0.33,0.2-0.6,0.47-0.8,0.8c-2.01,4.83-4.9,9.24-8.52,13l3.87,1.02
	l-0.68-3.85c-0.35-2.05-3.25-2.11-4.22-0.55c-1.55,2.34-2.06,5.22-1.4,7.95c0.39,2.19,3.16,1.96,4.22,0.55
	c1.66-2.21,3.15-4.54,4.45-6.98l-3.99-2.34c-1.07,2.3-1.79,4.75-2.16,7.26c-0.28,2.03,2.14,4.16,3.87,2.25
	c3.31-3.62,5.71-7.99,7-12.73c0.57-2.1-2.33-4.08-3.87-2.25c-2.83,3.4-5.41,7-7.7,10.79l4.22,1.79l4.7-17.52
	c0.29-1.25-0.49-2.5-1.74-2.79c-0.96-0.22-1.95,0.18-2.48,1.01l-9.25,13.39c-1.73,2.48,2.23,4.62,3.99,2.33l12.57-16.64
	c1.79-2.37-2.22-4.62-3.99-2.34L600.87,358.28z"/>
<path class="st0" d="M797.45,413.89c18.49-11.31,33.19-28.18,49.52-42.3c17.72-15.3,36.32-29.55,55.47-43.05
	c37.2-26.19,76.26-49.63,115.29-73c1.08-0.68,1.4-2.11,0.72-3.19c-0.65-1.02-1.98-1.37-3.04-0.8c-39.03,23.37-78.11,46.76-115.3,73
	c-17.55,12.33-34.68,25.39-51.11,39.26c-17.87,15.1-33.79,33.9-53.93,46.09c-2.54,1.54-0.22,5.55,2.33,3.99H797.45z"/>
<path class="st0" d="M1077.41,183.76c-20.03,2.03-41.6,7.13-53.93,24.65c-10.65,15.07-10.42,41.36-0.42,56.83
	c11.36,17.58,34.56,18.21,52.59,12.53s36.69-15.65,36.52-37.2c-0.09-11.56-4.27-23.59-8.88-34.07
	c-3.98-9.04-11.02-16.95-21.68-15.95c-2.94,0.28-2.97,4.9,0,4.62c14.28-1.33,18.88,15.64,22.27,26.35c3.08,10,5.93,21.83,1.09,31.77
	s-16.5,15.01-26.47,18.64c-10.79,3.91-22.63,6.3-33.9,3.08c-22.31-6.24-28.47-34.51-22.05-54.58c7.4-23.11,33.59-29.91,54.93-32.06
	c2.93-0.29,2.96-4.92,0-4.62H1077.41z"/>
<path class="st0" d="M1108.22,362.5c-20.03,2.03-41.6,7.13-53.93,24.65c-10.65,15.07-10.42,41.36-0.42,56.83
	c11.36,17.58,34.56,18.21,52.59,12.53c18.03-5.69,36.69-15.65,36.52-37.2c-0.09-11.56-4.27-23.59-8.88-34.07
	c-3.98-9.04-11.02-16.95-21.68-15.95c-2.94,0.28-2.97,4.9,0,4.62c14.28-1.33,18.88,15.64,22.27,26.35c3.08,10,5.93,21.83,1.09,31.77
	c-4.84,9.94-16.5,15.01-26.47,18.64c-10.79,3.91-22.63,6.3-33.9,3.08c-22.31-6.24-28.47-34.51-22.05-54.58
	c7.4-23.11,33.59-29.91,54.93-32.06c2.93-0.29,2.96-4.92,0-4.62H1108.22z"/>
<path class="st0" d="M1047.19,228.77l14.59,16.64c0.92,0.89,2.4,0.87,3.29-0.06c0.26-0.27,0.46-0.61,0.56-0.97
	c3.08-8.1,2.5-16.5,3.22-25.02c0.8-8.81,3.01-17.43,6.55-25.53c7.11-16.44,19.16-30.25,34.48-39.52c2.54-1.54,0.22-5.55-2.33-3.99
	c-15.11,9.1-27.23,22.41-34.87,38.31c-3.74,7.73-6.34,15.97-7.7,24.45c-1.54,10-0.14,20.48-3.84,30.08l3.87-1.03l-14.51-16.61
	c-1.97-2.23-5.22,1.05-3.27,3.27L1047.19,228.77z"/>
<path class="st0" d="M804.89,431.9c79.48-2.42,158.97-2.94,238.49-1.54c1.28-0.05,2.27-1.12,2.23-2.4
	c-0.04-1.21-1.02-2.18-2.23-2.23c-79.5-1.42-158.99-0.9-238.49,1.54C801.92,427.37,801.91,431.99,804.89,431.9z"/>
<path class="st0" d="M1060,386.32c27.17,10.66,53.3,23.79,78.07,39.23c2.53,1.54,4.85-2.42,2.33-3.99
	c-25.1-15.63-51.58-28.91-79.11-39.69c-2.76-1.09-3.96,3.37-1.22,4.45H1060z"/>
<path class="st0" d="M1109.33,365.38c-27.55,32.12-43.51,72.56-45.32,114.84c-0.12,2.97,4.5,2.97,4.62,0
	c1.75-41.06,17.23-80.35,43.96-111.57C1114.53,366.4,1111.28,363.12,1109.33,365.38L1109.33,365.38z"/>
<path class="st0" d="M493.08,415.12l172.22-2.25l19.8-0.26c3.56,0,7.12-0.12,10.68-0.14c5.01,0,8.38,4.16,8.29,9.25
	c-0.23,10.79-7.01,10.4-15.89,10.79l-21.4,0.97l-87.15,3.84c-15.61,0.69-31.23,1.54-46.84,2.08c-14.08,0.43-40.86-4.16-34.61-24.65
	c0.86-2.85-3.59-4.07-4.47-1.23c-3.08,10.08,2.37,20.31,11.16,25.59c12.47,7.49,28.89,4.95,42.65,4.33l107-4.85l25.98-1.16
	c6.66-0.31,15.92,1.05,22.03-2.05c7.18-3.62,8.44-18,3.91-24.05c-2.33-3.08-5.59-3.36-9.25-3.5c-9.58-0.37-19.34,0.26-28.94,0.39
	l-53.34,0.71l-121.9,1.54c-1.28,0.05-2.27,1.12-2.23,2.4c0.04,1.21,1.02,2.18,2.23,2.23L493.08,415.12z"/>
<polygon class="st2" points="999.04,535.14 949.02,505.01 963.62,561.55 972.43,540.95 987.12,560.65 991.47,557.4 976.79,537.7 "/>
<rect x="988.94" y="567.6" class="st2" width="84.75" height="29.28"/>
<polygon class="st5" points="703.03,296.31 753.06,266.18 738.45,322.72 729.64,302.12 714.96,321.82 710.6,318.57 725.29,298.87 
	"/>
<rect x="628.39" y="330.32" class="st5" width="84.75" height="29.28"/>
</svg>
