<?xml version="1.0" encoding="utf-8"?>
<!-- Generator: Adobe Illustrator 24.0.0, SVG Export Plug-In . SVG Version: 6.00 Build 0)  -->
<svg version="1.1" id="Layer_1" xmlns="http://www.w3.org/2000/svg" xmlns:xlink="http://www.w3.org/1999/xlink" x="0px" y="0px"
	 viewBox="0 0 1600 1000" style="enable-background:new 0 0 1600 1000;" xml:space="preserve">
<style type="text/css">
	.st0{fill:#3F3D56;}
	.st1{fill:#5360DE;}
	.st2{fill:#E6E6E6;}
	.st3{fill:#FFB8B8;}
	.st4{fill:#2F2E41;}
	.st5{fill:#FFB9B9;}
	.st6{fill:#575A89;}
	.st7{fill:none;stroke:#3F3D56;stroke-miterlimit:10;}
	.st8{opacity:0.1;enable-background:new    ;}
</style>
<path class="st0" d="M748.6,215.08H422.22c-3.34,0-6.04-2.7-6.04-6.03v-80.77c0-3.33,2.71-6.03,6.04-6.03H748.6
	c3.34,0,6.04,2.7,6.04,6.03v80.77C754.64,212.37,751.94,215.07,748.6,215.08z M422.22,124.66c-2,0-3.62,1.62-3.63,3.62v80.77
	c0,2,1.62,3.62,3.63,3.62H748.6c2,0,3.62-1.62,3.63-3.62v-80.77c0-2-1.62-3.62-3.63-3.62L422.22,124.66z"/>
<ellipse class="st1" cx="472.94" cy="165.56" rx="24.62" ry="24.56"/>
<path class="st2" d="M529.8,149.19c-2.27,0-4.1,1.84-4.1,4.1c0,2.26,1.84,4.09,4.1,4.09h193.45c2.27,0,4.1-1.84,4.1-4.1
	c0-2.26-1.84-4.09-4.1-4.09H529.8z"/>
<path class="st2" d="M529.8,173.75c-2.27,0-4.1,1.83-4.1,4.09c0,2.26,1.84,4.09,4.1,4.09h83.24c2.27,0,4.11-1.83,4.11-4.09
	c0-2.26-1.83-4.1-4.1-4.1c0,0-0.01,0-0.01,0H529.8z"/>
<path class="st0" d="M606.91,502.97H461.85c-3.34,0-6.04-2.7-6.04-6.03V346.23c0-3.33,2.71-6.03,6.04-6.03h145.06
	c3.34,0,6.04,2.7,6.04,6.03v150.71C612.95,500.27,610.25,502.96,606.91,502.97z M461.85,342.61c-2,0-3.62,1.62-3.63,3.62v150.71
	c0,2,1.62,3.62,3.63,3.62h145.06c2,0,3.62-1.62,3.63-3.62V346.23c0-2-1.62-3.62-3.63-3.62L461.85,342.61z"/>
<path class="st2" d="M492.76,371.28c-2.27,0-4.1,1.84-4.1,4.1c0,2.26,1.84,4.09,4.1,4.09H576c2.27,0,4.1-1.84,4.1-4.1
	c0-2.26-1.84-4.09-4.1-4.09H492.76z"/>
<path class="st2" d="M492.76,395.4c-2.27,0-4.11,1.83-4.11,4.09c0,2.26,1.83,4.1,4.1,4.1c0,0,0.01,0,0.01,0H576
	c2.27,0,4.1-1.83,4.1-4.09c0-2.26-1.84-4.09-4.1-4.09H492.76z"/>
<path class="st1" d="M534.38,471.89c-14.27,0-25.83-11.54-25.83-25.77s11.56-25.77,25.83-25.77c14.26,0,25.83,11.54,25.83,25.77v0
	C560.19,460.35,548.64,471.87,534.38,471.89z"/>
<path class="st0" d="M844.54,2.49H989.6c3.34,0,6.04,2.7,6.04,6.03v150.71c0,3.33-2.71,6.03-6.04,6.03H844.54
	c-3.34,0-6.04-2.7-6.04-6.03V8.52C838.5,5.19,841.2,2.49,844.54,2.49z M989.6,162.84c2,0,3.62-1.62,3.63-3.62V8.52
	c0-2-1.62-3.62-3.63-3.62H844.54c-2,0-3.62,1.62-3.63,3.62v150.71c0,2,1.62,3.62,3.63,3.62H989.6z"/>
<path class="st2" d="M958.69,134.18c2.27,0,4.11-1.83,4.11-4.09c0-2.26-1.83-4.1-4.1-4.1c0,0-0.01,0-0.01,0h-83.24
	c-2.27,0-4.11,1.83-4.11,4.09c0,2.26,1.83,4.1,4.1,4.1c0,0,0.01,0,0.01,0H958.69z"/>
<path class="st2" d="M958.69,110.06c2.27,0,4.11-1.83,4.11-4.09c0-2.26-1.83-4.1-4.1-4.1c0,0-0.01,0-0.01,0h-83.24
	c-2.27,0-4.11,1.83-4.11,4.09c0,2.26,1.83,4.1,4.1,4.1c0,0,0.01,0,0.01,0H958.69z"/>
<path class="st1" d="M917.07,33.57c14.27,0,25.83,11.54,25.83,25.77S931.33,85.1,917.07,85.1s-25.83-11.54-25.83-25.77c0,0,0,0,0,0
	C891.26,45.11,902.81,33.58,917.07,33.57z"/>
<path class="st0" d="M418.04,314.28c25.67-19.83,55.66-33.36,87.54-39.48c32.14-6.11,65.27-4.41,96.61,4.95
	c15.75,4.68,30.89,11.22,45.09,19.49c14.46,8.44,27.53,18.82,40.11,29.81c12.74,11.14,25.06,22.77,38.36,33.26
	c37.97,30.27,85.1,46.82,133.71,46.92c4.02,0.01,8.03-0.1,12.04-0.33c2.17-0.12,2.19-3.51,0-3.39
	c-49.55,2.72-98.47-12.03-138.21-41.66c-13.78-10.28-26.37-22.04-39.22-33.43c-12.46-11.04-25.25-21.79-39.38-30.66
	c-70.67-44.41-161.11-42.36-229.68,5.22c-3.19,2.21-6.3,4.52-9.37,6.9C413.92,313.22,416.34,315.6,418.04,314.28L418.04,314.28z"/>
<ellipse class="st0" cx="416.24" cy="313.05" rx="17.65" ry="17.61"/>
<ellipse class="st0" cx="1072.92" cy="546.85" rx="17.65" ry="17.61"/>
<path class="st0" d="M1165.4,446.54H877.37c-3.34,0-6.04-2.7-6.04-6.03v-149.5c0-3.33,2.71-6.03,6.04-6.03h288.03
	c3.34,0,6.04,2.7,6.04,6.03v149.5C1171.44,443.84,1168.74,446.53,1165.4,446.54z M877.37,287.39c-2,0-3.62,1.62-3.63,3.62v149.5
	c0,2,1.62,3.62,3.63,3.62h288.03c2,0,3.62-1.62,3.63-3.62v-149.5c0-2-1.62-3.62-3.63-3.62H877.37z"/>
<ellipse class="st1" cx="925.67" cy="337.94" rx="24.62" ry="24.56"/>
<path class="st2" d="M982.53,321.56c-2.27,0-4.11,1.83-4.11,4.09c0,2.26,1.83,4.1,4.1,4.1c0,0,0.01,0,0.01,0h155.09
	c2.27,0,4.1-1.83,4.1-4.09c0-2.26-1.84-4.09-4.1-4.09l0,0H982.53z"/>
<path class="st2" d="M982.53,346.13c-2.27,0-4.11,1.83-4.11,4.09c0,2.26,1.83,4.1,4.1,4.1c0,0,0.01,0,0.01,0h83.24
	c2.27,0,4.1-1.83,4.1-4.09c0-2.26-1.84-4.09-4.1-4.09H982.53z"/>
<path class="st2" d="M906.78,385.39c-3.12,0-5.66,1.84-5.66,4.09s2.54,4.09,5.66,4.09h228.54c3.12,0,5.66-1.84,5.66-4.09
	s-2.54-4.09-5.66-4.09H906.78z"/>
<path class="st2" d="M906.78,409.95c-3.12,0-5.66,1.84-5.66,4.09s2.54,4.09,5.66,4.09h228.54c3.12,0,5.66-1.84,5.66-4.09
	s-2.54-4.09-5.66-4.09H906.78z"/>
<path class="st0" d="M854.22,563.24c16.25-7.03,34.39-0.9,49.71,5.58c7.89,3.34,15.69,6.9,23.85,9.54
	c6.87,2.21,13.9,3.87,21.03,4.97c14.31,2.19,28.87,2.28,43.21,0.26c14.41-2,28.45-6.08,41.7-12.09
	c13.17-5.95,25.34-13.89,36.09-23.54c1.37-1.23,2.71-2.49,4.02-3.78c1.56-1.53-0.84-3.92-2.4-2.4
	c-10.35,10.06-22.23,18.43-35.2,24.79c-12.92,6.34-26.7,10.75-40.9,13.11c-14.25,2.4-28.78,2.65-43.1,0.74
	c-7.14-0.96-14.2-2.49-21.1-4.58c-7.93-2.57-15.7-5.58-23.29-9.02c-15.46-6.62-32.63-13.11-49.62-8.54
	c-1.95,0.54-3.85,1.22-5.7,2.03C850.51,561.18,852.23,564.1,854.22,563.24L854.22,563.24z"/>
<path class="st1" d="M847.94,604.8H711.86l32.02-55.33c1.81-3.12,5.8-4.19,8.93-2.39c0.99,0.57,1.82,1.4,2.39,2.39l13.68,23.64
	l23.26-40.19c2.26-3.91,7.27-5.25,11.18-2.99c1.24,0.72,2.28,1.75,3,2.99L847.94,604.8z"/>
<path class="st0" d="M848.07,604.79H703.01c-3.34,0-6.04-2.7-6.04-6.03v-80.77c0-3.33,2.71-6.03,6.04-6.03h145.06
	c3.34,0,6.04,2.7,6.04,6.03v80.77C854.11,602.09,851.41,604.78,848.07,604.79z M703.01,514.37c-2,0-3.62,1.62-3.63,3.62v80.77
	c0,2,1.62,3.62,3.63,3.62h145.06c2,0,3.62-1.62,3.63-3.62v-80.77c0-2-1.62-3.62-3.63-3.62H703.01z"/>
<path class="st3" d="M1132.59,533.7l-25.86,13.1c-9.23,4.67-18.14,3.88-21.55-5.87l0,0c-3.11-8.89,1.59-18.62,10.51-21.72
	c0.81-0.28,1.65-0.51,2.5-0.66l24.57-4.58l105.25-34.83l63.75-45.1l23.37,37.14l-73.67,39.65L1132.59,533.7z"/>
<polygon class="st3" points="1253.28,968.47 1233.5,965.18 1235.7,927.9 1256.58,927.9 "/>
<polygon class="st3" points="1445.29,932.06 1426.14,938.02 1411.26,903.75 1429.9,894.37 "/>
<path class="st4" d="M1434.62,899.4l-24.18,9.87l-115.4-151.3l-36.27,177.61l-24.18-4.39c-15.51-153.13-28.16-309.31-12.64-383.18
	l89.57-3.84l40.66,129.37l19.78,87.71L1434.62,899.4z"/>
<path class="st4" d="M1252.2,998.62L1252.2,998.62c-3.62,0.77-7.39,0.37-10.76-1.14l-11.75-5.28c-9.85-0.5-16.56,1.45-22.05-5.69
	c-3.15-4.16-3.79-9.69-1.68-14.46l0,0c2.1-4.78,6.62-8.06,11.82-8.58l16.14-10.15l0.85,7.61c7.38,4.17,16.14,2.37,25.42-1.69
	l5.07,17.69c2.63,9.2-2.7,18.78-11.92,21.41C1252.95,998.44,1252.58,998.53,1252.2,998.62z"/>
<path class="st4" d="M1453.12,962.33L1453.12,962.33c-3.17,1.9-6.87,2.75-10.55,2.41l-12.83-1.18c-9.48,2.71-15.19,6.74-22.71,1.76
	c-4.33-2.91-6.74-7.94-6.29-13.13l0,0c0.43-5.2,3.63-9.77,8.39-11.95l11.96-14.83l3.28,6.92c8.33,1.55,16.03-2.99,23.49-9.83
	l10.55,15.09c5.48,7.84,3.56,18.64-4.31,24.11C1453.78,961.92,1453.45,962.13,1453.12,962.33z"/>
<ellipse class="st3" cx="1278.56" cy="349.02" rx="39.57" ry="39.47"/>
<polygon class="st3" points="1326.92,432.34 1275.26,421.38 1268.67,378.62 1304.94,370.95 "/>
<path class="st1" d="M1312.63,549.65h-92.32l20.81-52.12c-1.51-17.93,6.11-31.12,17.01-42.61l13.83-34.65
	c22.35-14.68,39.2-13.58,57.15,5.48C1350.39,455.82,1335.67,500.99,1312.63,549.65z"/>
<path class="st3" d="M1270.87,660.39l-2.63,28.81c-0.94,10.28-6.35,17.38-16.44,15.08l0,0c-9.21-2.1-14.96-11.24-12.86-20.43
	c0.19-0.84,0.45-1.66,0.76-2.46l9.18-23.2l26.38-107.44l-4.4-77.84h43.96l-5.5,83.32L1270.87,660.39z"/>
<path class="st1" d="M1318.13,475.1h-50.56l3.54-32.9c0.48-11.79,9.9-21.27,21.72-21.86l0,0c12.62-0.63,23.36,9.07,23.99,21.65
	c0,0.08,0.01,0.16,0.01,0.25L1318.13,475.1z"/>
<ellipse class="st4" cx="1327.53" cy="293.6" rx="14.87" ry="14.84"/>
<path class="st4" d="M1312.21,289.97c0.51-7.81,7.02-13.88,14.86-13.87c-0.31-0.04-0.61-0.09-0.92-0.11
	c-8.2-0.52-15.27,5.68-15.79,13.86c-0.52,8.17,5.69,15.22,13.88,15.75c0.31,0.02,0.62,0.01,0.93,0.01
	C1317.38,304.63,1311.71,297.78,1312.21,289.97z"/>
<path class="st4" d="M1312.12,296.3c-13.26-10.98-51.3,2.97-53.76,10.35c-17.94,2.44-31.51,12.88-31.51,31.44v0
	c10.66,4.36,22.79,3.82,35.9,0c20.9,16.99,22.33,38.35,9.62,62.88l15.64,0.31l19.38-28.26l0.93,28.66l35.84-0.72V359.9
	c0.12-13.66-3.04-27.14-9.19-39.34C1329.38,309.73,1320.71,303.41,1312.12,296.3z"/>
<ellipse class="st3" cx="1278.75" cy="358.94" rx="7.11" ry="9.93"/>
<path class="st5" d="M383.95,371.54c0,0,4.28-73.92,26.5-57.12s-9.71,63.98-9.71,63.98L383.95,371.54z"/>
<path class="st5" d="M301.26,590.8c0,0,49.37,55.29,21.75,59.09c-27.62,3.8-38.49-52.08-38.49-52.08L301.26,590.8z"/>
<path class="st6" d="M236.84,329.1L236.84,329.1c12.67,3.33,22.1,13.91,23.92,26.85l15.7,111.5l22.01,88.94
	c0,0,11.01,9.88,6.6,15.37c-4.4,5.49,5.5,28.55,5.5,28.55l-27.52,8.78c0,0-3.3-23.06-8.81-24.16
	c-4.84-0.97-58.98-145.25-72.03-180.2c-1.8-4.82-2.82-7.56-2.82-7.56S201.62,323.61,236.84,329.1z"/>
<path class="st5" d="M241.87,910.55l16.9,29.88c13.09,27.88,1.46,32.94-30.63,19.12l-7.32-35.28L241.87,910.55z"/>
<path class="st4" d="M250.4,950.27c0,0,8.02-13.03,10.93-10.85c2.9,2.18,14.87,11.63,14.87,11.63l15.59,14.9
	c0,0,52.68,5.56,19.2,23.97c-33.47,18.41-51.97,3.15-51.97,3.15s-46.88,2.43-46.12-10.62c0.76-13.05,15.88-33.69,15.88-33.69
	S247.83,961.5,250.4,950.27z"/>
<path class="st4" d="M166.87,572.8l15.85,191.27c0,0,0.53,114.34,17.43,136.47c16.9,22.13,17.43,33.2,17.43,33.2l34.86-17.91
	c0,0-17.96-29.85-14.26-34.42c2.28-2.9,3.9-6.25,4.75-9.84l-9.51-118.03l17.96-205.49L166.87,572.8z"/>
<path class="st7" d="M191.16,933.74"/>
<polygon class="st5" points="210.18,910.55 195.39,949.54 161.85,935.56 179.54,906.34 "/>
<path class="st4" d="M185.5,936.41c0,0,12.58-7.84,14.15-4.71c1.57,3.14,7.86,16.47,7.86,16.47l7.08,19.61
	c0,0,43.24,27.45,6.29,29.02c-36.95,1.57-46.39-19.61-46.39-19.61s-41.67-18.04-35.38-29.02s28.3-22.37,28.3-22.37
	S178.43,945.04,185.5,936.41z"/>
<path class="st4" d="M301.02,573.33l8.45,175.99c0,0-77.12,159.13-85.57,163.34c-5.09,2.62-8.9,7.18-10.56,12.65l-46.48-11.59
	l21.13-33.72l46.48-112.76c0,0,7.39-3.16,9.51-13.7c2.11-10.54,6.34-10.54-4.23-12.65c-10.56-2.11-10.56-12.65-10.56-12.65
	l-34.86-160.18L301.02,573.33z"/>
<ellipse class="st5" cx="263" cy="255.08" rx="42.25" ry="42.15"/>
<path class="st5" d="M225.49,257.71c0,0-3.17,53.74-7.39,59.01c-4.23,5.27,44.37,4.22,44.37,4.22s-3.17-45.31,0-49.53
	S225.49,257.71,225.49,257.71z"/>
<path class="st6" d="M304.19,584.93c0,0-119.37-10.54-141.55,0c0,0,8.16-30.21,6.05-33.37c-1.53-2.31,2.7-88.38,1.37-138.02
	c-0.75-28.01-7.23-55.37,11.6-76.17c6.41-7.07,13.56-13,21.11-15.89c0,0-2.11-20.02,8.45-21.07c0,0,40.15-4.22,54.93,8.43
	c4.73,4.02,7.7,16.26,8.01,26.81c-7.32,35.89-4.73,75.71,1.99,117.02c0.41,2.62,0.86,5.26,1.32,7.9
	C284.6,501.52,295.37,543.76,304.19,584.93z"/>
<path class="st4" d="M240.92,267.5c3.57-0.21,7.06,0.99,10.61,1.46c12.7,1.68,25.9-7.51,28.71-19.98c0.22-1.66,0.72-3.27,1.47-4.77
	c1.95-3.18,6.4-3.79,10.07-3.06c3.67,0.73,7.15,2.44,10.88,2.64c5.77,0.3,11.31-3.24,14.38-8.12c2.91-5.03,4.14-10.85,3.53-16.63
	l-2.77,2.9c-1.12-2.37-1.56-5.01-1.25-7.62c-2.98-0.79-6.16,0.02-8.39,2.14c-2.44,0.26-0.6-4.51-2.41-6.16
	c-0.88-0.54-1.93-0.74-2.95-0.55c-5.19,0.05-9.38-3.91-13.47-7.09c-7.08-5.51-15.37-9.28-24.18-11c-5.86-1.14-12.09-1.32-17.64,0.85
	c-4.48,2.01-8.53,4.87-11.91,8.43c-8.7,8.34-16.4,18.14-20.02,29.63c-2.94,9.4-3.02,19.47-0.24,28.92
	c1.46,4.91,5.85,21.72,12.28,22.11C235.71,282.1,230.86,268.1,240.92,267.5z"/>
<path class="st6" d="M258.41,334.27l15.14,1.62c0,0,14.86,28.76,13.78,34.76c-1.08,6-3.43,2.36,3.26,11.96
	c6.69,9.6,25.67,34.41,28.02,38.05c2.35,3.64,66.42-45.13,62.44-59.74c0,0,20.24,14.48,28.91,16.41c0,0-66.03,86.39-75.23,97.45
	c-9.2,11.06-16.61,8.79-29.25,2.23c-12.65-6.56-76.62-71.94-76.62-71.94L258.41,334.27z"/>
<path class="st8" d="M277.48,460.55l-52.62-52.49l13.32-4.33l37.99,48.92C276.57,455.28,277.03,457.92,277.48,460.55z"/>
</svg>
