<?xml version="1.0" encoding="utf-8"?>
<!-- Generator: Adobe Illustrator 24.0.0, SVG Export Plug-In . SVG Version: 6.00 Build 0)  -->
<svg version="1.1" id="Layer_1" xmlns="http://www.w3.org/2000/svg" xmlns:xlink="http://www.w3.org/1999/xlink" x="0px" y="0px"
	 viewBox="0 0 1000 1600" style="enable-background:new 0 0 1000 1600;" xml:space="preserve">
<style type="text/css">
	.st0{fill:#FBBEBE;}
	.st1{fill:#5360DE;}
	.st2{fill:#3C354C;}
	.st3{opacity:0.1;enable-background:new    ;}
	.st4{fill:none;stroke:#3F3D56;stroke-miterlimit:10;}
	.st5{fill:#57B894;}
	.st6{fill:#3F3D56;}
</style>
<path class="st0" d="M223.06,1025.97c0,0,24.5,1.63,28.85-1.63c4.35-3.27,22.86,4.35,24.5,8.71c1.63,4.35-26.13,4.9-30.48,4.9
	c-4.35,0-25.04,6.53-25.04,6.53L223.06,1025.97z"/>
<path class="st1" d="M285.18,971.3c-32.07,8.31-51.33,41.04-43.03,73.11c0.88,3.38,2.05,6.69,3.5,9.87l54.58-24.9L285.18,971.3z"/>
<path class="st1" d="M313.11,1038.67l-54.58,24.9c13.75,30.14,49.34,43.43,79.48,29.68c30.14-13.75,43.43-49.34,29.68-79.48
	c-12.09-26.49-41.45-40.48-69.63-33.17L313.11,1038.67z"/>
<path class="st2" d="M220.31,1086.97l-8.68,82.36c0,0-2.72,32.66-10.89,39.74c0,0,0,10.34-2.72,13.61l-3.81,43
	c0,0,5.44,15.79,4.9,18.51s2.18,11.43,1.63,12.52c-0.54,1.09-26.13,0-26.13,0l5.44-87.64l16.88-121.94L220.31,1086.97z"/>
<path class="st3" d="M220.31,1086.97l-8.68,82.36c0,0-2.72,32.66-10.89,39.74c0,0,0,10.34-2.72,13.61l-3.81,43
	c0,0,5.44,15.79,4.9,18.51s2.18,11.43,1.63,12.52c-0.54,1.09-26.13,0-26.13,0l5.44-87.64l16.88-121.94L220.31,1086.97z"/>
<line class="st4" x1="30.73" y1="1325.87" x2="410.47" y2="1325.87"/>
<path class="st4" d="M384.53,973.99c0,0,223.5-130.28,511.61,0"/>
<path class="st4" d="M429.5,953.54c-18.78-3.87-32.26-20.4-32.26-39.58V365.58c0-22.31,18.09-40.4,40.4-40.4h405.38
	c22.31,0,40.4,18.09,40.4,40.4c0,0,0,0,0,0v548.38c0,20.63-15.54,37.94-36.05,40.17"/>
<rect x="422.14" y="390.29" class="st4" width="432.16" height="498.96"/>
<circle class="st4" cx="640.34" cy="357.49" r="10.59"/>
<path class="st4" d="M617.61,916.35c2.86-12.55,15.35-20.41,27.9-17.55c8.87,2.02,15.76,9.02,17.63,17.93"/>
<path class="st4" d="M373.82,426.29c-9.21,0.52-17.33,6.2-20.98,14.67c-5.25,12.68,1.51,27.58,11.65,36.83
	c10.14,9.25,23.17,14.54,35.01,21.48c15.9,9.33,30.18,22.29,38.14,38.92s8.8,37.23-0.55,53.12c-8.68,14.75-24.46,23.57-39.51,31.71"
	/>
<ellipse class="st5" cx="387.18" cy="427.4" rx="18.54" ry="9"/>
<ellipse class="st5" cx="402.01" cy="486.71" rx="18.54" ry="9"/>
<ellipse class="st5" cx="368.12" cy="496.25" rx="18.54" ry="9"/>
<ellipse class="st5" cx="421.08" cy="546.03" rx="18.54" ry="9"/>
<ellipse class="st5" cx="458.15" cy="546.03" rx="18.54" ry="9"/>
<path class="st4" d="M872.14,789.99c-8.58,0.48-16.14,5.77-19.54,13.66c-4.89,11.81,1.41,25.68,10.85,34.3
	c9.44,8.61,21.57,13.53,32.6,20.01c14.8,8.69,28.11,20.76,35.52,36.24c7.41,15.49,8.2,34.67-0.51,49.47
	c-8.08,13.73-22.78,21.95-36.79,29.53"/>
<ellipse class="st5" cx="884.59" cy="791.02" rx="17.26" ry="8.38"/>
<ellipse class="st5" cx="898.4" cy="846.26" rx="17.26" ry="8.38"/>
<ellipse class="st5" cx="866.83" cy="855.13" rx="17.26" ry="8.38"/>
<ellipse class="st5" cx="916.15" cy="901.49" rx="17.26" ry="8.38"/>
<ellipse class="st5" cx="950.67" cy="901.49" rx="17.26" ry="8.38"/>
<path class="st4" d="M914,823.87c7,0.4,13.18,4.72,15.96,11.16c3.99,9.65-1.15,20.97-8.86,28.01c-7.71,7.03-17.62,11.05-26.62,16.34
	c-12.09,7.1-22.95,16.95-29,29.6c-6.05,12.65-6.69,28.31,0.42,40.4c6.6,11.21,18.6,17.93,30.05,24.12"/>
<ellipse class="st5" cx="903.83" cy="824.71" rx="14.1" ry="6.85"/>
<ellipse class="st5" cx="892.55" cy="869.81" rx="14.1" ry="6.85"/>
<ellipse class="st5" cx="918.33" cy="877.06" rx="14.1" ry="6.85"/>
<ellipse class="st5" cx="878.05" cy="914.92" rx="14.1" ry="6.85"/>
<ellipse class="st5" cx="849.86" cy="914.92" rx="14.1" ry="6.85"/>
<polyline class="st4" points="494.69,495.22 494.69,734.61 775.39,734.61 "/>
<rect x="530.71" y="655.16" class="st1" width="23.3" height="61.44"/>
<rect x="578.37" y="633.98" class="st1" width="23.3" height="82.62"/>
<rect x="626.04" y="608.56" class="st1" width="23.3" height="108.04"/>
<rect x="673.7" y="563.01" class="st1" width="23.3" height="153.59"/>
<rect x="721.37" y="527" class="st1" width="23.3" height="189.6"/>
<rect x="523.29" y="647.75" class="st4" width="23.3" height="61.44"/>
<rect x="570.96" y="626.56" class="st4" width="23.3" height="82.62"/>
<rect x="618.62" y="601.14" class="st4" width="23.3" height="108.04"/>
<rect x="666.29" y="555.6" class="st4" width="23.3" height="153.59"/>
<rect x="713.95" y="519.58" class="st4" width="23.3" height="189.6"/>
<ellipse class="st6" cx="218.43" cy="879.81" rx="27.22" ry="21.23"/>
<path class="st6" d="M172.62,1292.26c0,0-11.42,28.79-5.46,32.26c5.96,3.47,68.5,0.99,68.5,0.99s10.42-6.45-1.49-10.92
	c0,0-9.93-0.5-16.38-4.47c-6.45-3.97-13.9-11.42-13.9-11.42s-0.5-10.92-4.47-8.44c-2.4,1.58-4.02,4.11-4.47,6.95L172.62,1292.26z"/>
<path class="st3" d="M172.62,1292.26c0,0-11.42,28.79-5.46,32.26c5.96,3.47,68.5,0.99,68.5,0.99s10.42-6.45-1.49-10.92
	c0,0-9.93-0.5-16.38-4.47c-6.45-3.97-13.9-11.42-13.9-11.42s-0.5-10.92-4.47-8.44c-2.4,1.58-4.02,4.11-4.47,6.95L172.62,1292.26z"/>
<path class="st6" d="M155.02,1288.36c0,0-12.52,31.57-5.99,35.38c6.53,3.81,75.12,1.09,75.12,1.09s11.43-7.08-1.63-11.98
	c0,0-10.89-0.54-17.96-4.9c-7.08-4.35-15.24-12.52-15.24-12.52s-0.54-11.98-4.9-9.25c-2.63,1.74-4.41,4.5-4.9,7.62L155.02,1288.36z"
	/>
<path class="st2" d="M205.64,1085.85c0,0-5.99,56.07-8.71,68.05c-1.71,7.89-2.8,15.9-3.27,23.95c0,0-0.54,17.42-5.44,22.32
	c-2.9,2.87-4.47,6.81-4.35,10.89c0,0-4.9,54.98-2.18,61.51s6.42,15.02,3.7,19.37s-33.64,1.31-33.64-1.95c0-3.27,0-5.99-1.63-7.62
	c-1.63-1.63,0-11.98,0-11.98s-6.53-48.45-0.54-62.6s8.71-52.8,8.71-52.8s-4.35-44.09-9.8-51.17c-5.44-7.08,1.09-32.12,1.09-32.12
	L205.64,1085.85z"/>
<path class="st0" d="M190.32,911.73c0.63,1.44,2.15,2.24,3.53,3c7.99,4.4,14.68,10.79,21.27,17.1c-1.64-5.57-1.29-11.55,0.99-16.89
	c0.79-1.82,1.82-3.78,1.26-5.68c-0.55-1.36-1.52-2.52-2.76-3.3c-2.69-2.08-5.5-4-8.42-5.74c-2.04-1.22-6.23-4.47-8.57-4.11
	c-0.12,3.16-0.19,5.99-1.57,8.94C195.72,905.74,190.56,912.28,190.32,911.73z"/>
<circle class="st0" cx="218.16" cy="896.41" r="22.32"/>
<path class="st6" d="M219.25,949.22c0,0,3.81-19.05-7.08-25.59c-10.89-6.53-23.41-14.15-23.41-14.15s-3.81-0.54-5.44,7.62
	c0,0-31.03,5.99-34.29,35.38c-3.27,29.4,2.18,72.4,2.18,72.4s-4.9,37.56-10.89,57.7c0,0-4.9,4.35,16.88-2.18
	s59.88,18.51,59.88,18.51s3.81-3.81,3.81-6.53s4.35-18.51,4.35-18.51s3.81-66.96,5.44-74.58
	C232.32,991.68,224.15,950.31,219.25,949.22z"/>
<path class="st6" d="M212.9,898.71c1.34-0.74,2.84-1.14,4.38-1.17c1.53-0.02,3.03-0.47,4.33-1.29c2.11-1.62,2.26-4.75,3.81-6.91
	c2.23-3.13,6.69-3.51,10.53-3.35c2.35,0.1,4.88,0.24,6.86-1.04c2.03-1.31,2.95-3.77,3.64-6.08c0.81-2.74,1.33-6.09-0.67-8.12
	c-1.39-1.41-3.6-1.69-5.15-2.93c-1.61-1.28-2.27-3.38-3.14-5.24c-0.99-2.27-2.57-4.24-4.56-5.71c-2.92-2.03-6.66-2.49-10.22-2.45
	c-3.56,0.04-7.13,0.51-10.67,0.07c-2.89-0.36-5.78-1.32-8.67-0.89c-3.68,0.54-6.72,3.32-8.53,6.56s-2.59,6.95-3.34,10.59l-2.05,9.9
	c-0.64,3.07-1.27,6.22-0.78,9.32c1.02,6.42,6.69,11.52,7.08,18.01c0.76-3.64,3.29-6.65,6.75-8.02c0.43-0.21,0.91-0.27,1.37-0.17
	c0.56,0.18,0.89,0.74,1.25,1.22c0.93,1.24,3.86,3.12,5.52,2.24C212.14,902.45,211.03,899.98,212.9,898.71z"/>
<path class="st0" d="M156.65,1000.39c0,0-3.81,23.95,11.98,21.77c0,0,8.17-1.09,9.25,0c1.09,1.09,41.37-5.99,46.82-11.98
	c0,0,6.53-2.18,9.8,1.09c3.27,3.27,35.93,6.53,26.13-3.27c-9.8-9.8-25.04-11.98-25.04-11.98l-20.69,1.09c0,0-10.89,3.27-17.42,0
	c-6.53-3.27-25.04-2.18-25.04-2.18L156.65,1000.39z"/>
<path class="st6" d="M178.97,924.72c0,0-24.5,2.72-24.5,38.11v45.18c0,0,13.61-5.99,16.33-5.44s13.61-7.08,13.61-7.08
	s12.52-29.4,11.43-37.56C194.75,949.76,195.3,925.81,178.97,924.72z"/>
<ellipse class="st6" cx="218.16" cy="882.53" rx="20.96" ry="10.89"/>
<ellipse class="st6" cx="198.56" cy="884.44" rx="7.35" ry="18.24"/>
</svg>
