<?xml version="1.0" encoding="utf-8"?>
<!-- Generator: Adobe Illustrator 24.0.0, SVG Export Plug-In . SVG Version: 6.00 Build 0)  -->
<svg version="1.1" id="Layer_1" xmlns="http://www.w3.org/2000/svg" xmlns:xlink="http://www.w3.org/1999/xlink" x="0px" y="0px"
	 viewBox="0 0 1600 1000" style="enable-background:new 0 0 1600 1000;" xml:space="preserve">
<style type="text/css">
	.st0{fill:#3F3D56;}
	.st1{fill:#5360DE;}
	.st2{fill:#E6E6E6;}
	.st3{fill:#FFB8B8;}
	.st4{fill:#2F2E41;}
	.st5{fill:#FFB9B9;}
	.st6{fill:#575A89;}
	.st7{fill:none;stroke:#3F3D56;stroke-miterlimit:10;}
	.st8{opacity:0.1;enable-background:new    ;}
</style>
<path class="st0" d="M751.44,241.91H443.09c-3.15,0-5.71-2.56-5.71-5.71v-76.49c0-3.15,2.56-5.71,5.71-5.71h308.35
	c3.15,0,5.71,2.56,5.71,5.71v76.49C757.15,239.35,754.6,241.91,751.44,241.91z M443.09,156.29c-1.89,0-3.42,1.53-3.43,3.43v76.49
	c0,1.89,1.53,3.42,3.43,3.43h308.35c1.89,0,3.42-1.53,3.43-3.43v-76.49c0-1.89-1.53-3.42-3.43-3.43L443.09,156.29z"/>
<ellipse transform="matrix(0.1602 -0.9871 0.9871 0.1602 219.8481 648.4441)" class="st1" cx="491" cy="195.02" rx="23.26" ry="23.26"/>
<path class="st2" d="M544.72,179.51c-2.14,0-3.87,1.74-3.87,3.88c0,2.14,1.73,3.87,3.87,3.87h182.76c2.14,0,3.87-1.74,3.87-3.88
	c0-2.14-1.73-3.87-3.87-3.87H544.72z"/>
<path class="st2" d="M544.72,202.78c-2.14,0-3.88,1.74-3.88,3.88c0,2.14,1.74,3.88,3.88,3.88h78.64c2.14,0,3.88-1.73,3.88-3.87
	c0-2.14-1.73-3.88-3.87-3.88c0,0-0.01,0-0.01,0H544.72z"/>
<path class="st0" d="M617.57,514.56H480.53c-3.15,0-5.71-2.56-5.71-5.71V366.12c0-3.15,2.56-5.71,5.71-5.71h137.05
	c3.15,0,5.71,2.56,5.71,5.71v142.73C623.28,512,620.73,514.56,617.57,514.56z M480.53,362.7c-1.89,0-3.42,1.53-3.43,3.43v142.73
	c0,1.89,1.53,3.42,3.43,3.43h137.05c1.89,0,3.42-1.53,3.43-3.43V366.12c0-1.89-1.53-3.42-3.43-3.43L480.53,362.7z"/>
<path class="st2" d="M509.73,389.85c-2.14,0-3.87,1.74-3.87,3.88c0,2.14,1.73,3.87,3.87,3.87h78.64c2.14,0,3.87-1.74,3.87-3.88
	c0-2.14-1.73-3.87-3.87-3.87H509.73z"/>
<path class="st2" d="M509.73,412.69c-2.14,0-3.88,1.73-3.88,3.87c0,2.14,1.73,3.88,3.87,3.88c0,0,0.01,0,0.01,0h78.64
	c2.14,0,3.88-1.74,3.88-3.88s-1.74-3.88-3.88-3.88H509.73z"/>
<path class="st1" d="M549.05,485.13c-13.48,0-24.4-10.93-24.4-24.4c0-13.48,10.93-24.4,24.4-24.4s24.4,10.93,24.4,24.4v0
	C573.44,474.2,562.52,485.11,549.05,485.13z"/>
<path class="st0" d="M842.08,40.58h137.05c3.15,0,5.71,2.56,5.71,5.71v142.73c0,3.15-2.56,5.71-5.71,5.71H842.08
	c-3.15,0-5.71-2.56-5.71-5.71V46.29C836.37,43.14,838.93,40.58,842.08,40.58z M979.13,192.44c1.89,0,3.42-1.53,3.43-3.43V46.29
	c0-1.89-1.53-3.42-3.43-3.43H842.08c-1.89,0-3.42,1.53-3.43,3.43v142.73c0,1.89,1.53,3.42,3.43,3.43H979.13z"/>
<path class="st2" d="M949.92,165.29c2.14,0,3.88-1.73,3.88-3.87c0-2.14-1.73-3.88-3.87-3.88c0,0-0.01,0-0.01,0h-78.64
	c-2.14,0-3.88,1.73-3.88,3.87s1.73,3.88,3.87,3.88c0,0,0.01,0,0.01,0H949.92z"/>
<path class="st2" d="M949.92,142.45c2.14,0,3.88-1.73,3.88-3.87c0-2.14-1.73-3.88-3.87-3.88c0,0-0.01,0-0.01,0h-78.64
	c-2.14,0-3.88,1.73-3.88,3.87c0,2.14,1.73,3.88,3.87,3.88c0,0,0.01,0,0.01,0H949.92z"/>
<path class="st1" d="M910.6,70.01c13.48,0,24.4,10.93,24.4,24.4s-10.93,24.4-24.4,24.4c-13.48,0-24.4-10.93-24.4-24.4c0,0,0,0,0,0
	C886.21,80.94,897.13,70.03,910.6,70.01z"/>
<path class="st0" d="M439.14,335.86c24.25-18.78,52.58-31.59,82.71-37.39c30.36-5.79,61.67-4.18,91.28,4.69
	c14.88,4.43,29.18,10.63,42.6,18.46c13.67,7.99,26.01,17.82,37.89,28.23c12.04,10.55,23.67,21.57,36.24,31.5
	c35.87,28.67,80.4,44.34,126.32,44.44c3.79,0.01,7.58-0.1,11.37-0.31c2.05-0.11,2.07-3.32,0-3.21
	c-46.81,2.58-93.03-11.39-130.58-39.46c-13.02-9.74-24.91-20.87-37.05-31.66c-11.77-10.46-23.85-20.63-37.2-29.04
	c-66.76-42.06-152.21-40.11-216.99,4.95c-3.01,2.09-5.96,4.28-8.85,6.54C435.24,334.86,437.53,337.12,439.14,335.86L439.14,335.86z"
	/>
<circle class="st0" cx="437.44" cy="334.7" r="16.68"/>
<circle class="st0" cx="1057.85" cy="556.12" r="16.68"/>
<path class="st0" d="M1145.22,461.12H873.1c-3.15,0-5.71-2.56-5.71-5.71V313.82c0-3.15,2.56-5.71,5.71-5.71h272.12
	c3.15,0,5.71,2.56,5.71,5.71v141.59C1150.92,458.56,1148.37,461.12,1145.22,461.12z M873.1,310.4c-1.89,0-3.42,1.53-3.43,3.43
	v141.59c0,1.89,1.53,3.42,3.43,3.43h272.12c1.89,0,3.42-1.53,3.43-3.43V313.82c0-1.89-1.53-3.42-3.43-3.43H873.1z"/>
<circle class="st1" cx="918.73" cy="358.27" r="23.26"/>
<path class="st2" d="M972.45,342.76c-2.14,0-3.88,1.73-3.88,3.87c0,2.14,1.73,3.88,3.87,3.88c0,0,0.01,0,0.01,0h146.52
	c2.14,0,3.88-1.74,3.88-3.88s-1.74-3.88-3.88-3.88l0,0H972.45z"/>
<path class="st2" d="M972.45,366.02c-2.14,0-3.88,1.73-3.88,3.87c0,2.14,1.73,3.88,3.87,3.88c0,0,0.01,0,0.01,0h78.64
	c2.14,0,3.88-1.74,3.88-3.88c0-2.14-1.74-3.88-3.88-3.88H972.45z"/>
<path class="st2" d="M900.89,403.21c-2.95,0-5.35,1.74-5.35,3.88c0,2.14,2.4,3.88,5.35,3.88h215.92c2.95,0,5.35-1.74,5.35-3.88
	c0-2.14-2.4-3.88-5.35-3.88H900.89z"/>
<path class="st2" d="M900.89,426.47c-2.95,0-5.35,1.74-5.35,3.88c0,2.14,2.4,3.88,5.35,3.88h215.92c2.95,0,5.35-1.74,5.35-3.88
	c0-2.14-2.4-3.88-5.35-3.88H900.89z"/>
<path class="st0" d="M851.23,571.64c15.35-6.66,32.49-0.85,46.96,5.28c7.45,3.16,14.82,6.54,22.54,9.03
	c6.49,2.09,13.13,3.67,19.87,4.71c13.52,2.07,27.27,2.16,40.82,0.25c13.61-1.9,26.88-5.76,39.39-11.45
	c12.44-5.64,23.94-13.16,34.09-22.29c1.29-1.17,2.56-2.36,3.8-3.58c1.48-1.45-0.79-3.72-2.27-2.27c-9.78,9.53-21,17.46-33.26,23.48
	c-12.21,6-25.22,10.18-38.64,12.41c-13.46,2.27-27.19,2.51-40.72,0.7c-6.75-0.91-13.42-2.36-19.94-4.33
	c-7.49-2.44-14.83-5.29-22-8.55c-14.6-6.27-30.83-12.41-46.88-8.09c-1.84,0.51-3.64,1.15-5.38,1.92
	C847.72,569.69,849.35,572.46,851.23,571.64L851.23,571.64z"/>
<path class="st1" d="M845.29,611H716.73l30.25-52.4c1.71-2.96,5.48-3.97,8.44-2.26c0.94,0.54,1.72,1.32,2.26,2.26l12.92,22.39
	l21.98-38.06c2.14-3.7,6.87-4.97,10.57-2.83c1.18,0.68,2.15,1.66,2.83,2.83L845.29,611z"/>
<path class="st0" d="M845.42,610.99H708.37c-3.15,0-5.71-2.56-5.71-5.71v-76.49c0-3.15,2.56-5.71,5.71-5.71h137.05
	c3.15,0,5.71,2.56,5.71,5.71v76.49C851.12,608.43,848.57,610.99,845.42,610.99z M708.37,525.36c-1.89,0-3.42,1.53-3.43,3.43v76.49
	c0,1.89,1.53,3.42,3.43,3.43h137.05c1.89,0,3.42-1.53,3.43-3.43v-76.49c0-1.89-1.53-3.42-3.43-3.43H708.37z"/>
<path class="st3" d="M1114.21,543.67l-24.43,12.4c-8.72,4.43-17.13,3.67-20.36-5.56l0,0c-2.94-8.42,1.51-17.63,9.93-20.57
	c0.77-0.27,1.56-0.48,2.36-0.63l23.22-4.33l99.43-32.99l60.23-42.71l22.08,35.18l-69.6,37.55L1114.21,543.67z"/>
<polygon class="st3" points="1228.25,955.42 1209.56,952.3 1211.63,917 1231.36,917 "/>
<polygon class="st3" points="1409.64,920.93 1391.55,926.58 1377.5,894.13 1395.11,885.24 "/>
<path class="st4" d="M1399.57,890l-22.84,9.34L1267.7,756.06l-34.26,168.21l-22.84-4.15c-14.65-145.02-26.6-292.94-11.94-362.89
	l84.62-3.63l38.42,122.52l18.69,83.07L1399.57,890z"/>
<path class="st4" d="M1227.22,983.97L1227.22,983.97c-3.42,0.73-6.98,0.35-10.17-1.08l-11.1-5c-9.31-0.48-15.65,1.38-20.83-5.39
	c-2.98-3.94-3.58-9.18-1.59-13.69l0,0c1.98-4.53,6.25-7.64,11.17-8.13l15.25-9.61l0.8,7.2c6.97,3.95,15.24,2.24,24.01-1.6
	l4.79,16.75c2.49,8.71-2.55,17.79-11.26,20.27C1227.93,983.8,1227.58,983.89,1227.22,983.97z"/>
<path class="st4" d="M1417.04,949.6L1417.04,949.6c-2.99,1.8-6.49,2.6-9.97,2.28l-12.12-1.12c-8.96,2.57-14.35,6.38-21.45,1.67
	c-4.1-2.76-6.37-7.52-5.95-12.44l0,0c0.4-4.93,3.43-9.25,7.93-11.31l11.3-14.04l3.1,6.55c7.87,1.47,15.15-2.83,22.19-9.31
	l9.97,14.29c5.18,7.43,3.36,17.65-4.07,22.83C1417.67,949.21,1417.36,949.41,1417.04,949.6z"/>
<circle class="st3" cx="1252.13" cy="368.76" r="37.38"/>
<polygon class="st3" points="1297.81,447.67 1249.01,437.29 1242.78,396.8 1277.05,389.53 "/>
<path class="st1" d="M1284.32,558.78h-87.22l19.66-49.36c-1.43-16.98,5.77-29.47,16.07-40.35l13.07-32.81
	c21.12-13.9,37.04-12.86,53.99,5.19C1319.99,469.9,1306.08,512.69,1284.32,558.78z"/>
<path class="st3" d="M1244.86,663.65l-2.48,27.28c-0.89,9.74-6,16.46-15.53,14.28l0,0c-8.7-1.99-14.14-10.65-12.15-19.35
	c0.18-0.79,0.42-1.57,0.72-2.33l8.67-21.97l24.92-101.76l-4.15-73.72h41.53l-5.19,78.91L1244.86,663.65z"/>
<path class="st1" d="M1289.51,488.17h-47.76l3.35-31.16c0.46-11.17,9.35-20.15,20.52-20.71l0,0c11.92-0.6,22.07,8.59,22.67,20.51
	c0,0.08,0.01,0.15,0.01,0.23L1289.51,488.17z"/>
<circle class="st4" cx="1298.39" cy="316.28" r="14.05"/>
<path class="st4" d="M1283.91,312.84c0.48-7.4,6.63-13.15,14.04-13.13c-0.29-0.04-0.58-0.08-0.87-0.1
	c-7.74-0.49-14.42,5.38-14.92,13.13c-0.49,7.74,5.38,14.41,13.11,14.91c0.3,0.02,0.59,0.01,0.88,0.01
	C1288.8,326.73,1283.44,320.24,1283.91,312.84z"/>
<path class="st4" d="M1283.83,318.84c-12.53-10.39-48.47,2.82-50.79,9.81c-16.94,2.31-29.77,12.2-29.77,29.77v0
	c10.07,4.13,21.53,3.62,33.92,0c19.74,16.09,21.1,36.32,9.09,59.55l14.77,0.3l18.31-26.76l0.88,27.14l33.86-0.68v-38.9
	c0.11-12.93-2.87-25.71-8.68-37.26C1300.13,331.55,1291.95,325.57,1283.83,318.84z"/>
<ellipse class="st3" cx="1252.3" cy="378.16" rx="6.72" ry="9.41"/>
<path class="st5" d="M406.93,390.09c0,0,4.04-70,25.04-54.1c21,15.91-9.17,60.59-9.17,60.59L406.93,390.09z"/>
<path class="st5" d="M328.81,597.74c0,0,46.64,52.36,20.55,55.96S313,604.38,313,604.38L328.81,597.74z"/>
<path class="st6" d="M267.95,349.9L267.95,349.9c11.97,3.15,20.88,13.18,22.6,25.43l14.84,105.6l20.8,84.23
	c0,0,10.4,9.36,6.24,14.56s5.2,27.04,5.2,27.04l-26,8.32c0,0-3.12-21.84-8.32-22.88c-4.57-0.91-55.72-137.56-68.05-170.66
	c-1.7-4.56-2.66-7.16-2.66-7.16S234.67,344.7,267.95,349.9z"/>
<path class="st5" d="M272.7,900.57l15.97,28.3c12.37,26.4,1.38,31.2-28.94,18.11l-6.91-33.41L272.7,900.57z"/>
<path class="st4" d="M280.75,938.18c0,0,7.58-12.34,10.32-10.28c2.74,2.07,14.05,11.02,14.05,11.02l14.73,14.11
	c0,0,49.77,5.26,18.14,22.7s-49.1,2.98-49.1,2.98s-44.29,2.3-43.58-10.05c0.71-12.36,15-31.91,15-31.91S278.33,948.81,280.75,938.18
	z"/>
<path class="st4" d="M201.84,580.7l14.97,181.14c0,0,0.5,108.29,16.47,129.24c15.97,20.96,16.47,31.44,16.47,31.44l32.93-16.97
	c0,0-16.97-28.27-13.47-32.6c2.15-2.74,3.69-5.92,4.49-9.32l-8.98-111.78l16.97-194.61L201.84,580.7z"/>
<path class="st7" d="M224.79,922.52"/>
<polygon class="st5" points="242.76,900.57 228.78,937.49 197.1,924.25 213.81,896.57 "/>
<path class="st4" d="M219.45,925.06c0,0,11.88-7.43,13.37-4.46s7.43,15.6,7.43,15.6l6.68,18.57c0,0,40.85,26,5.94,27.48
	c-34.91,1.49-43.82-18.57-43.82-18.57s-39.37-17.08-33.42-27.48c5.94-10.4,26.74-21.18,26.74-21.18S212.76,933.23,219.45,925.06z"/>
<path class="st4" d="M328.59,581.2l7.98,166.67c0,0-72.86,150.7-80.84,154.69c-4.81,2.48-8.41,6.8-9.98,11.98l-43.91-10.98
	l19.96-31.94l43.91-106.79c0,0,6.99-2.99,8.98-12.97c2-9.98,5.99-9.98-3.99-11.98c-9.98-2-9.98-11.98-9.98-11.98l-32.93-151.7
	L328.59,581.2z"/>
<circle class="st5" cx="292.66" cy="279.8" r="39.92"/>
<path class="st5" d="M257.23,282.29c0,0-2.99,50.9-6.99,55.89c-3.99,4.99,41.92,3.99,41.92,3.99s-2.99-42.91,0-46.91
	C295.15,291.27,257.23,282.29,257.23,282.29z"/>
<path class="st6" d="M331.58,592.18c0,0-112.78-9.98-133.73,0c0,0,7.71-28.61,5.72-31.6c-1.45-2.19,2.55-83.7,1.29-130.71
	c-0.71-26.53-6.83-52.44,10.96-72.14c6.06-6.69,12.81-12.31,19.94-15.05c0,0-1.99-18.96,7.99-19.96c0,0,37.93-4,51.9,7.99
	c4.46,3.8,7.27,15.4,7.57,25.39c-6.91,33.99-4.46,71.7,1.88,110.82c0.39,2.48,0.82,4.98,1.24,7.48
	C313.07,513.19,323.24,553.2,331.58,592.18z"/>
<path class="st4" d="M271.8,291.56c3.38-0.2,6.67,0.94,10.03,1.38c12,1.59,24.47-7.11,27.12-18.92c0.21-1.57,0.68-3.1,1.39-4.52
	c1.85-3.01,6.05-3.59,9.52-2.9c3.47,0.69,6.75,2.32,10.28,2.5c5.45,0.29,10.68-3.07,13.59-7.69c2.74-4.77,3.91-10.28,3.33-15.75
	l-2.61,2.74c-1.06-2.25-1.47-4.74-1.18-7.21c-2.82-0.75-5.82,0.02-7.93,2.03c-2.3,0.25-0.57-4.27-2.28-5.83
	c-0.83-0.51-1.82-0.7-2.79-0.52c-4.9,0.05-8.87-3.7-12.73-6.72c-6.69-5.22-14.52-8.79-22.84-10.42c-5.53-1.08-11.42-1.25-16.67,0.81
	c-4.24,1.9-8.06,4.61-11.26,7.98c-8.22,7.9-15.49,17.18-18.91,28.06c-2.78,8.91-2.86,18.44-0.23,27.39
	c1.38,4.65,5.53,20.57,11.61,20.94C266.88,305.38,262.3,292.13,271.8,291.56z"/>
<path class="st6" d="M288.33,354.8l14.3,1.53c0,0,14.04,27.24,13.02,32.92c-1.02,5.68-3.24,2.23,3.08,11.32
	c6.32,9.09,24.25,32.59,26.47,36.03c2.22,3.45,62.75-42.74,58.99-56.57c0,0,19.12,13.72,27.31,15.54c0,0-62.38,81.82-71.08,92.29
	s-15.69,8.32-27.64,2.11c-11.95-6.21-72.39-68.13-72.39-68.13L288.33,354.8z"/>
<path class="st8" d="M306.34,474.39l-49.71-49.71l12.58-4.1l35.89,46.33C305.49,469.4,305.91,471.9,306.34,474.39z"/>
</svg>
