<?xml version="1.0" encoding="utf-8"?>
<!-- Generator: Adobe Illustrator 24.0.0, SVG Export Plug-In . SVG Version: 6.00 Build 0)  -->
<svg version="1.1" id="Layer_1" xmlns="http://www.w3.org/2000/svg" xmlns:xlink="http://www.w3.org/1999/xlink" x="0px" y="0px"
	 viewBox="0 0 1600 1600" style="enable-background:new 0 0 1600 1600;" xml:space="preserve">
<style type="text/css">
	.st0{fill:#2F2E41;}
	.st1{fill:#9F616A;}
	.st2{opacity:0.2;enable-background:new    ;}
	.st3{fill:#5360DE;}
	.st4{fill:#FFB9B9;}
	.st5{fill:#3F3D56;}
	.st6{fill:#E6E6E6;}
	.st7{fill:#FFFFFF;}
</style>
<path class="st0" d="M104.17,716.01c1.47,90.19,35.17,99.95,76.56,90.54c47.29-10.75,86.1-44.43,105.23-88.99l13.19-30.73
	c18.27-42.54-1.42-91.85-43.96-110.1l0,0c-42.54-18.27-91.85,1.42-110.1,43.96l0,0C102.64,637.37,94.25,671.9,104.17,716.01z"/>
<path class="st1" d="M370.35,534.5l12.7-21.5c5.68-9.61,2.49-21.99-7.11-27.66c-1.36-0.8-2.8-1.44-4.3-1.91l0,0
	c-10.66-3.3-21.97,2.66-25.27,13.32c-0.66,2.15-0.97,4.39-0.89,6.62l0.75,23.11l-59.71,163.63l32.57,6.8L370.35,534.5z"/>
<path class="st1" d="M56.22,937.88l-15.64,19.47c-6.98,8.7-5.6,21.41,3.09,28.4c1.23,0.99,2.56,1.82,3.98,2.5l0,0
	c10.07,4.79,22.12,0.5,26.91-9.59c0.97-2.03,1.58-4.2,1.82-6.44l2.55-22.98l82.41-153.46l-31.26-11.37L56.22,937.88z"/>
<path class="st0" d="M152.85,1099.87l2.3,27.65l0.54,6.45l153.06-14.72c18.52-2.08,31.84-18.79,29.75-37.32
	c-0.39-3.45-1.31-6.83-2.72-10l-49.36-105.97l-17.05-36.6l-73.89-17.05c-60.93,46.63-6.11,98.1,62.86,150.16
	c2.7,2.04,5.43,4.09,8.18,6.13L152.85,1099.87z"/>
<path class="st0" d="M101.26,1195.61L101.26,1195.61c3.79,0.54,7.6-0.93,10.03-3.89l50.06-60.6l-2.84-28.42l-17.08-10.25
	c-5.31-3.19-12.2-1.47-15.39,3.84c-0.31,0.53-0.59,1.09-0.81,1.65l-32.65,82.73c-2.23,5.64,0.54,12.04,6.19,14.26
	C99.58,1195.28,100.42,1195.49,101.26,1195.61z"/>
<path class="st2" d="M144.31,1094.18l2.84,34.11l7.99-0.77l145.08-13.95c18.52-2.08,31.84-18.79,29.75-37.32
	c-0.39-3.45-1.31-6.83-2.72-10l-40.84-91.42v-8.87l-17.05-36.6l-73.89-17.05c-60.93,46.63-6.11,98.1,62.86,150.16l-0.34,0.46
	L144.31,1094.18z"/>
<path class="st0" d="M87.06,1184.25L87.06,1184.25c3.79,0.54,7.6-0.93,10.03-3.89l50.06-60.6l-2.84-28.42l-17.08-10.25
	c-5.31-3.19-12.2-1.47-15.39,3.84c-0.31,0.53-0.59,1.09-0.81,1.65l-32.65,82.73c-2.23,5.64,0.54,12.04,6.19,14.26
	C85.37,1183.91,86.21,1184.13,87.06,1184.25z"/>
<path class="st0" d="M138.64,1088.5l2.84,34.11l153.06-14.72c18.52-2.08,31.85-18.8,29.77-37.32c-0.39-3.45-1.3-6.82-2.72-9.99
	l-40.85-91.42v-51.15l-99.47-17.05c-63.33,48.47-1.63,102.16,71.05,156.3L138.64,1088.5z"/>
<circle class="st1" cx="235.26" cy="645.18" r="42.63"/>
<path class="st1" d="M178.42,716.21L238.1,756l51.15-11.37l-28.42-28.42v-42.63l-45.47-2.84
	C214.41,687.77,204.66,703.35,178.42,716.21z"/>
<path class="st3" d="M169.89,915.15l110.83,14.21L306.3,810c11.89-31.69,5.07-59.67-16.93-84.67c-1.74-8.66-9.21-14.98-18.04-15.25
	l-10.5,0.46c1.18,37.69-26.58,28.61-68.2-2.84l-5.03,1.51c-13.43,4.03-21.87,17.3-19.81,31.18l4.58,30.94
	c1.94,12.27,4.96,24.34,9.02,36.07C192.76,841.34,188.7,877.29,169.89,915.15z"/>
<path class="st3" d="M118.74,787.26l51.15,17.05l22.73-82.41l-7.71-3.51c-13.25-6.02-28.91-0.73-35.78,12.1L118.74,787.26z"/>
<polygon class="st3" points="269.36,710.54 297.77,741.8 331.88,687.79 289.25,665.06 "/>
<path class="st0" d="M185.52,632.39c26.79,10.11,55.37,9.05,85.26,0v-34.11h-85.26V632.39z"/>
<polygon class="st0" points="1515.01,1217.78 1485.62,1230.02 1289.7,963.08 1147.66,1234.92 1110.93,1227.58 1218.69,852.88 
	1343.58,852.88 "/>
<path class="st0" d="M1554.44,1280.05L1554.44,1280.05c-3.29,0.9-6.81,0.45-9.76-1.26l-61.98-35.68
	c-6.02-3.46-8.09-11.16-4.62-17.17c0.55-0.96,1.23-1.83,2.01-2.62l5.54-5.54l29.39-2.45l44.93,43.13c5.1,4.9,5.26,13,0.37,18.11
	C1558.71,1278.24,1556.68,1279.44,1554.44,1280.05z"/>
<path class="st0" d="M1073.96,1289.85L1073.96,1289.85c3.29,0.9,6.81,0.44,9.76-1.26l61.97-35.68c6.02-3.46,8.09-11.16,4.62-17.17
	c-0.55-0.96-1.23-1.83-2.01-2.62l-5.54-5.54l-29.39-2.45l-44.93,43.13c-5.1,4.9-5.26,13-0.37,18.11
	C1069.69,1288.03,1071.72,1289.24,1073.96,1289.85z"/>
<path class="st4" d="M1135.42,463.49l-12.24,7.35l-25.38-41.24c-5.36-8.73-2.65-20.15,6.08-25.51c1.81-1.12,3.81-1.91,5.89-2.36l0,0
	c10.02-2.11,19.85,4.31,21.97,14.33c0.17,0.8,0.28,1.63,0.35,2.45L1135.42,463.49z"/>
<path class="st4" d="M1474.62,784.52l5.08-13.34l45.44,16.72c9.62,3.54,14.54,14.2,11.01,23.81c-0.74,2-1.81,3.86-3.18,5.49l0,0
	c-6.57,7.86-18.27,8.9-26.13,2.32c-0.63-0.53-1.23-1.1-1.79-1.72L1474.62,784.52z"/>
<circle class="st4" cx="1282.35" cy="573.69" r="36.73"/>
<polygon class="st4" points="1314.19,652.06 1262.76,652.06 1262.76,595.74 1306.84,590.84 "/>
<path class="st5" d="M1350.93,867.58h-139.59c4.92-77.89,8.83-153.16,0-195.91l8.12-38.96c2.33-11.19,12.86-18.73,24.21-17.3
	l19.09,2.39c12.94,22.74,28.57,22.52,46.53,2.45h23c12.73,0,23.07,10.32,23.07,23.07c0,0.15,0,0.3,0,0.46l0,0
	c5.99,27.44,7.99,55.6,5.92,83.62L1350.93,867.58z"/>
<polygon class="st5" points="1115.82,463.49 1135.42,453.7 1240.72,627.58 1211.34,671.65 "/>
<path class="st5" d="M1474.89,791.49l16.74-14.12l-88.97-124.66c-17.77-24.9-48.34-37.28-78.42-31.75l-2.81,0.51l33.64,58.87
	l44.31,33.54L1474.89,791.49z"/>
<path class="st0" d="M1324.84,552.01c0,0,6.86-15.1-10.99-21.97c0,0-15.1-24.71-45.31-8.24c0,0-20.59,8.24-20.59,30.2
	c0,21.96-6.86,26.09-6.86,26.09s10.23-10.49,12.97-18.73c2.75-8.24,24.1-10.11,32.34-1.87c8.24,8.24,28.83,6.86,28.83,6.86
	l-1.37,30.2c0,0,6.86-17.85,9.61-17.85C1326.22,576.7,1328.96,552.01,1324.84,552.01z"/>
<ellipse class="st6" cx="1321.45" cy="1362.37" rx="224.77" ry="11.7"/>
<ellipse class="st6" cx="199.2" cy="1362.37" rx="118.81" ry="6.19"/>
<path class="st3" d="M1106.92,512.18l-722.26,64.73c-7.38,0.65-13.91-4.8-14.58-12.18l-16.05-179.17
	c-0.65-7.38,4.8-13.91,12.18-14.58l722.26-64.73c7.38-0.65,13.91,4.8,14.58,12.18l16.05,179.17
	C1119.75,504.98,1114.31,511.51,1106.92,512.18z"/>
<ellipse transform="matrix(0.7071 -0.7071 0.7071 0.7071 -191.8129 468.0327)" class="st7" cx="469.06" cy="465.55" rx="56.4" ry="56.4"/>
<path class="st7" d="M595.45,416.48c-5.17,0.48-8.98,5.05-8.5,10.21c0.48,5.16,5.03,8.96,10.18,8.51l441.38-39.56
	c5.17-0.46,9-5.02,8.54-10.19c-0.46-5.17-5.02-9-10.19-8.54c-0.01,0-0.02,0-0.03,0L595.45,416.48z"/>
<path class="st7" d="M600.47,472.65c-5.17,0.46-9,5.02-8.54,10.18c0.46,5.17,5.02,9,10.18,8.54c0.01,0,0.03,0,0.04,0l441.38-39.56
	c5.17-0.46,9-5.02,8.54-10.19c-0.46-5.18-5.02-9-10.19-8.54c-0.01,0-0.02,0-0.03,0L600.47,472.65z"/>
</svg>
