<?xml version="1.0" encoding="utf-8"?>
<!-- Generator: Adobe Illustrator 24.0.0, SVG Export Plug-In . SVG Version: 6.00 Build 0)  -->
<svg version="1.1" id="Layer_1" xmlns="http://www.w3.org/2000/svg" xmlns:xlink="http://www.w3.org/1999/xlink" x="0px" y="0px"
	 viewBox="0 0 1600 1000" style="enable-background:new 0 0 1600 1000;" xml:space="preserve">
<style type="text/css">
	.st0{fill:#707FEF;}
	.st1{fill:#E6E6E6;}
	.st2{fill:#FFB8B8;}
	.st3{fill:#2F2E41;}
	.st4{fill:#5360DE;}
	.st5{opacity:0.2;enable-background:new    ;}
	.st6{fill:#3F3D56;}
	.st7{fill:#FFFFFF;}
</style>
<circle class="st0" cx="315.87" cy="186" r="92.6"/>
<path class="st1" d="M1297.61,781.76c-0.42,15.76-3.06,31.39-7.84,46.41c-0.11,0.35-0.22,0.69-0.34,1.04h-29.27
	c0.03-0.31,0.06-0.66,0.09-1.04c1.95-22.44,13.2-158.99-0.25-182.35C1261.18,647.72,1299.88,710.47,1297.61,781.76z"/>
<path class="st1" d="M1295.42,828.17c-0.24,0.35-0.5,0.7-0.76,1.04h-21.96c0.17-0.3,0.36-0.65,0.58-1.04
	c3.63-6.55,14.36-26.12,24.33-46.41c10.71-21.81,20.54-44.44,19.71-52.63C1317.58,730.97,1324.99,787.3,1295.42,828.17z"/>
<rect x="535.06" y="827.22" class="st1" width="841.67" height="2.75"/>
<path class="st2" d="M1073.81,913.19l4.09-33.73l115.5-29.64l-13.29-39.86c9.26-26.55,25.51-39.56,55.2-26.58l51.07,31.73
	c10.11,6.28,15.99,17.57,15.35,29.45l0,0c-0.64,11.93-7.75,22.56-18.55,27.69C1226.01,899.35,1153.15,909.72,1073.81,913.19z"/>
<path class="st3" d="M1080.97,923.41l-35.78-5.11l-33.46,6.83c-7.82,1.6-15.45-3.45-17.05-11.27c-0.15-0.75-0.25-1.52-0.28-2.29l0,0
	c-0.2-4.75,1.95-9.29,5.74-12.15l52.43-39.51c9.29-7,22.29-6.21,30.67,1.86l13.06,12.57c-9.34,5.8-16.29,14.49-20.44,26.58
	C1084.84,905.86,1086.54,913.36,1080.97,923.41z"/>
<circle class="st2" cx="1115.14" cy="536.19" r="33.09"/>
<path class="st2" d="M1166.83,601.43l-74.11,31.18c6.02-30.24,9.02-57.79,0-74.62l47.53-5.62
	C1137.89,565.3,1149.92,582.62,1166.83,601.43z"/>
<path class="st2" d="M1041.1,912.17l-27.6-2.04c-16.91-70.5-25.56-137.14-21.79-197.96c1.11-18.45,16.6-32.73,35.08-32.33l0,0
	c8.54,0.19,16.71,3.57,22.9,9.46l35.69,33.96c15.92,15.03,28.27,33.42,36.16,53.84c10.11,26.47,6.48,41.31-17.65,38.79
	c-15.08-1.68-28.95-9.05-38.77-20.61l-26.07-30.3L1041.1,912.17z"/>
<path class="st3" d="M1019.73,995.95L1019.73,995.95c-13.01-0.85-22.87-12.09-22.03-25.1c0.14-2.07,0.54-4.12,1.21-6.08l5.39-15.8
	l4.09-39.86c6.3-12.85,15.22-10.93,25.55-1.02c6.57-0.65,7.98-7.22,7.16-16.35l20.72,27.89c3.61,4.86,4.29,11.3,1.78,16.81
	l-20.85,45.75C1038.68,991.11,1029.52,996.59,1019.73,995.95z"/>
<path class="st3" d="M1280.8,811.49c-37.82,21.47-49.67,22.09-87.39,37.31l-32.71-18.4c-38.41,14.2-65.36-5.27-94.55-34.24
	c19.1-31.81,10.65-73.16,22.49-72.57l141.57,44.46l6.13,15.33L1280.8,811.49z"/>
<path class="st4" d="M1235.31,778.27c-49.99,21.64-103.81-1.27-149.75-51.62l-30.42-122.85c-1.45-5.47,1.8-11.09,7.28-12.54
	c0.21-0.05,0.41-0.1,0.62-0.14l35.3-7.06l17.38,27.6l34.75-30.66l36.91,12.07c10,3.27,17.38,11.78,19.21,22.14L1235.31,778.27z"/>
<path class="st5" d="M1155.91,882.41L1155.91,882.41c-9.32-3.55-13.99-13.98-10.44-23.29c0.73-1.91,1.78-3.69,3.1-5.25l23.37-27.56
	l16.35,9.2l-8.42,34.33c-2.37,9.68-12.15,15.61-21.83,13.23C1157.32,882.9,1156.61,882.68,1155.91,882.41z"/>
<path class="st2" d="M1155.91,878.32L1155.91,878.32c-9.32-3.55-13.99-13.98-10.44-23.29c0.73-1.91,1.78-3.69,3.1-5.25l23.37-27.56
	l16.35,9.2l-8.42,34.33c-2.37,9.68-12.15,15.61-21.83,13.23C1157.32,878.81,1156.61,878.59,1155.91,878.32z"/>
<path class="st4" d="M1192.38,839.6l-24.53-16.35l35.78-95.06l-13.29-133.9l12.12,7.58c13.15,8.22,22.35,21.46,25.47,36.65
	l19.65,95.81C1238.98,778.48,1224.65,817.33,1192.38,839.6z"/>
<polygon class="st5" points="1177.56,687.81 1189.83,749.14 1179.74,785 "/>
<path class="st3" d="M1082.78,533.35c0,0-19.07-62.4,39.2-49.31c9.04,2.03,16.85,7.28,23.06,14.16c1.13,1.22,2.73,1.87,4.39,1.79
	c9.31,0,15.06,33.26-3.56,47.89c0,0,3.8-19.68-3.11-26.39c-1.24-1.14-2.28-2.47-3.07-3.96c-4.49-9.07-19.6-12.04-30.02-11.27
	c-5.32,0.39-5.78,9.67-11.67,8.37C1084.6,511.69,1080.33,527.21,1082.78,533.35z"/>
<path class="st1" d="M1141.43,625.96l-0.39,2.83l-2.38,17.43l-3.9,28.55l-0.98,7.15c-0.15,1.13-1.12,1.97-2.26,1.97h-26
	c-1.14,0-2.1-0.84-2.26-1.96l-0.99-7.15l-3.97-28.55l-2.42-17.45l-0.39-2.81c-0.17-1.25,0.7-2.4,1.94-2.57
	c0.1-0.01,0.21-0.02,0.31-0.02h41.42c1.26,0,2.28,1.02,2.28,2.28C1141.45,625.76,1141.44,625.86,1141.43,625.96z"/>
<path class="st6" d="M1100.5,615.81h36.06c1.26,0,2.28,1.02,2.28,2.28l0,0v3.01c0,1.26-1.02,2.28-2.28,2.28l0,0h-36.06
	c-1.26,0-2.28-1.02-2.28-2.28l0,0v-3.01C1098.22,616.83,1099.24,615.81,1100.5,615.81L1100.5,615.81z"/>
<path class="st6" d="M1144.69,627.16c-17.39,1.9-34.93,1.9-52.31,0c-1.26,0-2.28-1.02-2.28-2.28l0,0l0,0v-3.01
	c0-1.26,1.02-2.28,2.28-2.28c17.37,2.14,34.94,2.14,52.31,0c1.26,0,2.28,1.02,2.28,2.28v3.01
	C1146.96,626.14,1145.94,627.16,1144.69,627.16z"/>
<circle class="st7" cx="1117.47" cy="652.28" r="9.83"/>
<path class="st2" d="M1142.75,672.96L1142.75,672.96c1.03,9.92-6.17,18.79-16.09,19.82c-2.04,0.21-4.09,0.08-6.08-0.4l-35.13-8.44
	l0.84-18.75l34.44-7.96c9.71-2.24,19.41,3.81,21.65,13.52C1142.55,671.49,1142.67,672.22,1142.75,672.96z"/>
<path class="st4" d="M1095.28,687.29l-94.82,2.37c-13,0.33-23.81-9.95-24.13-22.96c-0.03-1.31,0.04-2.62,0.23-3.92l0,0
	c0.76-5.31,3.31-10.2,7.23-13.87l44.64-41.76c8.28-7.75,18.6-12.97,29.74-15.06l15.65-2.93l9.2,69.51l-53.15-6.13l62.35,7.16
	L1095.28,687.29z"/>
<path class="st3" d="M970.36,891.26H728.3c-4.48,0-8.12-3.63-8.12-8.12l0,0l0,0c87.75-10.2,173.85-10.2,258.3,0l0,0
	C978.48,887.62,974.84,891.26,970.36,891.26L970.36,891.26z"/>
<path class="st6" d="M978.48,883.62l-258.3-0.48l29.94-50.37l0.14-0.24V721.52c0-5.67,4.59-10.26,10.26-10.26c0,0,0,0,0,0h176.19
	c5.67,0,10.26,4.59,10.26,10.26c0,0,0,0,0,0v111.78L978.48,883.62z"/>
<path class="st7" d="M760.29,718.42c-1.84,0-3.34,1.5-3.34,3.34v101.22c0,1.84,1.5,3.34,3.34,3.34h178.09c1.84,0,3.34-1.5,3.34-3.34
	V721.76c0-1.84-1.5-3.34-3.34-3.34L760.29,718.42z"/>
<path class="st3" d="M761.46,839.69c-0.56,0-1.07,0.33-1.3,0.83l-9.22,20.05c-0.33,0.72-0.02,1.57,0.7,1.9
	c0.19,0.09,0.39,0.13,0.6,0.13h193.98c0.79,0,1.43-0.64,1.43-1.43c0-0.22-0.05-0.44-0.15-0.64l-10.03-20.05
	c-0.24-0.49-0.74-0.79-1.28-0.79H761.46z"/>
<circle class="st7" cx="848.61" cy="714.6" r="2.15"/>
<path class="st3" d="M829.55,866.43c-0.65,0-1.21,0.44-1.38,1.06l-2.31,8.59c-0.21,0.76,0.25,1.55,1.01,1.76
	c0.12,0.03,0.25,0.05,0.37,0.05h44c0.79,0,1.43-0.64,1.43-1.43c0-0.16-0.03-0.32-0.08-0.47l-2.97-8.59
	c-0.2-0.58-0.74-0.96-1.35-0.96H829.55z"/>
<polygon class="st3" points="946.97,830.86 946.97,832.77 750.12,832.77 750.26,832.53 750.26,830.86 "/>
<path class="st1" d="M666.71,767.16c0.54,20.2,3.92,40.23,10.05,59.49c0.14,0.45,0.29,0.89,0.43,1.33h37.52
	c-0.04-0.4-0.08-0.85-0.12-1.33c-2.5-28.76-16.92-203.78,0.32-233.71C713.41,595.37,663.8,675.79,666.71,767.16z"/>
<path class="st1" d="M669.53,826.65c0.31,0.45,0.64,0.89,0.97,1.33h28.14c-0.21-0.38-0.46-0.83-0.75-1.33
	c-4.65-8.39-18.41-33.48-31.19-59.49c-13.73-27.95-26.32-56.96-25.26-67.46C641.12,702.07,631.62,774.26,669.53,826.65z"/>
<path class="st6" d="M733,219.96l15.25-12.2c-11.85-1.31-16.72,5.15-18.71,10.27c-9.26-3.84-19.33,1.19-19.33,1.19l30.52,11.08
	C739.19,226.19,736.51,222.6,733,219.96z"/>
<path class="st6" d="M1192.4,157.16l15.25-12.2c-11.85-1.31-16.72,5.15-18.71,10.27c-9.26-3.84-19.33,1.19-19.33,1.19l30.52,11.08
	C1198.58,163.39,1195.9,159.81,1192.4,157.16z"/>
<path class="st6" d="M1104.57,319.05l15.25-12.2c-11.85-1.31-16.72,5.15-18.71,10.27c-9.26-3.84-19.33,1.19-19.33,1.19l30.52,11.08
	C1110.76,325.28,1108.08,321.7,1104.57,319.05z"/>
<ellipse transform="matrix(0.9841 -0.1774 0.1774 0.9841 -42.8676 85.3874)" class="st1" cx="455.98" cy="282.37" rx="137.72" ry="281"/>
<path class="st6" d="M433.42,229.78c12.11,32.94,22.89,66.33,32.34,100.16c9.43,33.8,17.49,67.95,24.19,102.44
	c6.7,34.48,12.01,69.18,15.94,104.12c3.9,34.88,6.41,69.87,7.53,104.99c1.11,35.08,0.8,70.16-0.92,105.25
	c-0.21,4.3-0.44,8.6-0.7,12.89c-0.26,4.4,6.59,4.39,6.85,0c2.07-35.2,2.72-70.44,1.95-105.73c-0.78-35.09-2.95-70.1-6.54-105.05
	c-3.59-35.05-8.57-69.92-14.92-104.62c-6.36-34.68-14.11-69.07-23.24-103.17c-9.12-34.06-19.62-67.71-31.47-100.96
	c-1.45-4.05-2.91-8.1-4.4-12.14C438.51,223.85,431.9,225.63,433.42,229.78L433.42,229.78z"/>
<path class="st6" d="M480.59,359.35L510.92,292l8.55-18.98c0.9-1.64,0.36-3.69-1.23-4.68c-1.63-0.94-3.72-0.39-4.68,1.23
	l-30.33,67.34l-8.55,18.98c-0.9,1.64-0.36,3.69,1.23,4.68C477.54,361.52,479.63,360.97,480.59,359.35L480.59,359.35z"/>
<path class="st6" d="M487.3,405.36l-69.16-25.93l-19.49-7.31c-1.82-0.49-3.7,0.58-4.21,2.39c-0.46,1.82,0.59,3.67,2.39,4.21
	l69.16,25.93l19.49,7.31c1.82,0.49,3.7-0.58,4.21-2.39C490.15,407.76,489.09,405.9,487.3,405.36L487.3,405.36z"/>
<path class="st1" d="M433.44,772.68c0,0,83.29-27.38,160.88,0"/>
<path class="st4" d="M806.14,759.71c16.51-0.17,33.01-0.47,49.51-0.69c5.5-0.07,11-0.14,16.51-0.2c4.74-0.05,4.75-7.42,0-7.37
	c-16.51,0.17-33.01,0.47-49.51,0.69c-5.5,0.07-11,0.14-16.51,0.2C801.4,752.39,801.39,759.76,806.14,759.71z"/>
<path class="st4" d="M806.14,776.91l66.71-0.69l18.97-0.2c4.74-0.05,4.75-7.42,0-7.37l-66.71,0.69l-18.97,0.2
	C801.4,769.59,801.39,776.96,806.14,776.91z"/>
<path class="st4" d="M806.14,794.11l66.71-0.69l18.97-0.2c4.74-0.05,4.75-7.42,0-7.37l-66.71,0.69l-18.97,0.2
	C801.4,786.79,801.39,794.16,806.14,794.11z"/>
</svg>
